
<svg version="1.1" xmlns="http://www.w3.org/2000/svg" xmlns:xlink="http://www.w3.org/1999/xlink" x="0px" y="0px"
	 viewBox="0 0 1000 1000" style="enable-background:new 0 0 1000 1000;" xml:space="preserve">
<g id="background">
	<rect style="fill:#E0EBFA;" width="1000" height="1000"/>
</g>
<g id="_x34_04">
	<g>
		<g>
			<path style="fill:#ACC4E3;" d="M700.762,542.504H299.238c-3.553,0-6.693-0.779-8.583-1.969c-1.183-0.745-1.878-1.651-1.878-2.629
				v0c0-1.095,0.872-2.101,2.326-2.891c1.918-1.041,4.849-1.707,8.134-1.707h401.524c2.499,0,4.794,0.385,6.593,1.028
				c2.36,0.843,3.868,2.129,3.868,3.57v0c0,1.086-0.857,2.084-2.29,2.871C707.016,541.83,704.068,542.504,700.762,542.504z"/>
			<g>
				<g>
					<path style="fill:#FFFFFF;" d="M642.633,388.665c-11.646-17.525-29.375-23.794-36.961-25.759
						c-7.133-53.659-1.527-106.626,16.364-158.92c1.103-3.223,0.442-6.509-1.346-8.988c-1.788-2.479-4.703-4.153-8.11-4.153H463.239
						c-2.698,0-5.199,1.09-7.029,2.912c-1.037,1.032-1.859,2.3-2.38,3.738c-21.771,60.126-27.29,121.145-15.849,183.081
						c-8.12,10.918-36.688,50.658-42.776,77.181c-0.365,1.591,0.628,3.177,2.22,3.543c0.222,0.051,0.445,0.075,0.664,0.075
						c1.347,0,2.564-0.927,2.879-2.295c5.139-22.386,28.096-56.046,38.568-70.585c3.515,16.91,8.274,33.888,14.333,50.936
						c0.516,1.453,1.344,2.732,2.392,3.771c1.831,1.816,4.335,2.9,7.028,2.9h38.999c-3.39,18.308-9.909,63.107,1.833,87.986
						c0.504,1.07,1.566,1.695,2.675,1.695c0.423,0,0.853-0.091,1.26-0.283c1.477-0.697,2.109-2.458,1.412-3.935
						c-11.115-23.549-4.303-68.471-1.141-85.462h68.431c-3.39,18.308-9.909,63.107,1.833,87.986c0.504,1.07,1.566,1.695,2.675,1.695
						c0.423,0,0.853-0.091,1.26-0.283c1.477-0.697,2.109-2.458,1.412-3.935c-11.115-23.549-4.303-68.471-1.141-85.462h29.873
						c3.409,0,6.314-1.672,8.096-4.152c1.782-2.48,2.439-5.767,1.352-8.998c-7.173-21.308-12.332-42.507-15.534-63.6
						c7.681,2.406,21.803,8.518,31.166,22.655c10.449,15.773,12.405,37.215,5.816,63.729c-0.393,1.585,0.572,3.189,2.157,3.583
						c0.24,0.059,0.479,0.087,0.716,0.087c1.325,0,2.532-0.898,2.867-2.243C656.323,428.931,654.076,405.885,642.633,388.665z"/>
					<g>
						<g>
							<path style="fill:#EBF2FB;" d="M586.439,230.516H468.361c-2.857,0-5.174-2.317-5.174-5.174c0-2.857,2.317-5.174,5.174-5.174
								h118.078c2.857,0,5.174,2.317,5.174,5.174C591.613,228.199,589.296,230.516,586.439,230.516z"/>
						</g>
						<g>
							<path style="fill:#EBF2FB;" d="M576.091,277.082H458.013c-2.857,0-5.174-2.317-5.174-5.174c0-2.857,2.317-5.174,5.174-5.174
								h118.078c2.857,0,5.174,2.317,5.174,5.174C581.265,274.764,578.948,277.082,576.091,277.082z"/>
						</g>
						<g>
							<path style="fill:#EBF2FB;" d="M576.091,323.647H458.013c-2.857,0-5.174-2.317-5.174-5.174c0-2.857,2.317-5.174,5.174-5.174
								h118.078c2.857,0,5.174,2.317,5.174,5.174C581.265,321.33,578.948,323.647,576.091,323.647z"/>
						</g>
						<g>
							<path style="fill:#EBF2FB;" d="M579.047,370.213H460.97c-2.857,0-5.174-2.317-5.174-5.174c0-2.857,2.317-5.174,5.174-5.174
								h118.078c2.857,0,5.174,2.317,5.174,5.174C584.221,367.896,581.904,370.213,579.047,370.213z"/>
						</g>
						<g>
							<path style="fill:#EBF2FB;" d="M586.439,416.779H468.361c-2.857,0-5.174-2.317-5.174-5.174c0-2.857,2.317-5.174,5.174-5.174
								h118.078c2.857,0,5.174,2.317,5.174,5.174C591.613,414.462,589.296,416.779,586.439,416.779z"/>
						</g>
					</g>
				</g>
				<g>
					<g>
						<path style="fill:#ACC4E3;" d="M410.017,466.593l-0.577,1.168c-0.724,1.463-2.498,2.055-3.962,1.33
							c-1.464-0.739-2.055-2.513-1.33-3.977l0.576-1.153c1.774-3.563,0.325-7.894-3.237-9.668c-3.563-1.774-7.894-0.31-9.668,3.237
							l-37.075,74.431l-2.439,4.908c-0.724,1.464-2.498,2.055-3.962,1.33c-1.464-0.724-2.055-2.498-1.33-3.962l2.365-4.745
							l37.149-74.594c3.223-6.475,11.117-9.121,17.592-5.898C410.593,452.224,413.24,460.118,410.017,466.593z"/>
					</g>
					<path style="fill:#FFFFFF;" d="M354.744,531.963l-2.439,4.908c-0.724,1.464-2.498,2.055-3.962,1.33
						c-1.464-0.724-2.055-2.498-1.33-3.962l2.365-4.745L354.744,531.963z"/>
				</g>
				<g>
					<path style="fill:#93ACCC;" d="M498.314,333.703c1.607-3.15,4.314-5.694,7.389-7.296c3.077-1.636,6.511-2.423,9.944-2.453
						c3.431-0.004,6.906,0.767,9.992,2.435c3.096,1.63,5.719,4.229,7.333,7.271c0.768,1.447,0.217,3.242-1.229,4.01
						c-1.258,0.667-2.778,0.339-3.659-0.708l-0.085-0.101c-1.542-1.833-3.413-3.205-5.514-4.142c-2.106-0.919-4.45-1.394-6.81-1.374
						c-4.734,0.008-9.438,1.903-12.334,5.473l-0.083,0.103c-1.032,1.272-2.899,1.467-4.171,0.435
						C497.98,336.455,497.691,334.923,498.314,333.703z"/>
					<g>
						<path style="fill:#ACC4E3;" d="M615.134,272.155h-0.725V260.22c0-3.635-1.831-6.842-4.621-8.75
							c-1.7-1.163-3.757-1.843-5.972-1.843h-59.534c-2.925,0-5.573,1.186-7.49,3.103c-1.917,1.917-3.103,4.565-3.103,7.49v19.146
							c-8.956-4.305-17.803-2.864-24.576,0.238V260.22c0-3.635-1.831-6.842-4.621-8.75c-1.7-1.163-3.757-1.843-5.972-1.843h-59.534
							c-2.925,0-5.573,1.186-7.49,3.103c-1.917,1.917-3.103,4.565-3.103,7.49v35.316c0,13.457,8.262,24.984,19.991,29.785
							c3.757,1.538,7.869,2.386,12.18,2.386h16.379c8.896,0,16.95-3.611,22.773-9.448c5.807-5.82,9.397-13.852,9.397-22.723v-5.795
							c4.71-3.176,14.439-7.671,24.576-0.011v5.807c0,13.457,8.262,24.984,19.991,29.785c3.757,1.538,7.869,2.386,12.18,2.386
							h16.379c8.897,0,16.95-3.611,22.773-9.448c5.807-5.82,9.397-13.852,9.397-22.723v-8.352h0.725c4.15,0,7.514-3.364,7.514-7.515
							C622.649,275.52,619.284,272.155,615.134,272.155z"/>
						<g>
							<g>
								<path style="fill:#93ACCC;" d="M501.035,260.225v35.316c0,6.416-2.498,12.462-7.037,17.015
									c-4.553,4.553-10.614,7.066-17.059,7.066h-16.498c-2.04-0.015-4.051-0.266-5.987-0.769c-1.02-0.266-2.025-0.606-3.001-1.005
									c-1.168-0.473-2.291-1.035-3.341-1.685c-4.553-2.72-7.998-6.844-9.919-11.678c-1.124-2.779-1.715-5.81-1.715-8.944v-35.316
									c0-0.917,0.458-1.508,0.724-1.774c0.281-0.281,0.872-0.739,1.789-0.739h59.53c0.517,0,0.99,0.148,1.404,0.429
									c0.296,0.192,0.931,0.739,1.079,1.685C501.02,259.959,501.035,260.092,501.035,260.225z"/>
								<path style="fill:#93ACCC;" d="M606.332,260.225v35.316c0,6.416-2.498,12.462-7.037,17.015
									c-4.553,4.553-10.614,7.066-17.059,7.066h-16.379c-2.735,0-5.41-0.444-7.953-1.331c-0.399-0.133-0.784-0.281-1.168-0.444
									c-1.271-0.517-2.469-1.138-3.607-1.863c-1.922-1.168-3.637-2.602-5.115-4.243c-3.947-4.346-6.238-10.067-6.238-16.202
									v-35.316c0-0.917,0.458-1.508,0.724-1.774c0.281-0.281,0.872-0.739,1.774-0.739h59.545c0.518,0,0.991,0.148,1.404,0.429
									c0.015,0.015,0.03,0.03,0.059,0.044C605.623,258.437,606.332,259.087,606.332,260.225z"/>
							</g>
							<g>
								<path style="fill:#FFFFFF;" d="M475.061,257.712l-36.868,46.773c1.922,4.834,5.366,8.958,9.919,11.678l46.078-58.451
									H475.061z"/>
								<path style="fill:#FFFFFF;" d="M454.454,318.854c1.936,0.503,3.947,0.754,5.987,0.769l40.594-51.489v-7.909
									c0-0.133-0.015-0.266-0.03-0.399L454.454,318.854z"/>
								<path style="fill:#FFFFFF;" d="M571.46,257.712l-29.684,37.667v0.163c0,6.135,2.291,11.856,6.238,16.202l42.589-54.031
									H571.46z"/>
								<path style="fill:#FFFFFF;" d="M605.224,258.141c-0.414-0.281-0.887-0.429-1.404-0.429h-4.745l-45.945,58.274
									c1.138,0.724,2.336,1.345,3.607,1.863c0.384,0.163,0.769,0.311,1.168,0.444l47.379-60.107
									C605.253,258.171,605.238,258.156,605.224,258.141z"/>
							</g>
						</g>
					</g>
				</g>
				<g>
					<path style="fill:#ACC4E3;" d="M580.226,185.188c-4.287,9.771-12.092,17.665-21.819,22.056
						c-5.425,2.439-11.442,3.814-17.784,3.814h-13.541c-9.52,0-18.316-3.075-25.456-8.278c-6.15-4.479-11.058-10.54-14.147-17.592
						c7.82-0.724,15.581-1.286,23.298-1.67c0.089,0,0.177-0.015,0.266-0.015v-16.867c0-1.124,0.104-2.232,0.296-3.311
						c1.552-9.121,9.505-16.084,19.099-16.084h6.844c9.579,0,17.532,6.963,19.114,16.084c0.177,1.079,0.281,2.188,0.281,3.311
						v16.793c0.562,0.03,1.138,0.059,1.7,0.089C565.709,183.887,573.012,184.434,580.226,185.188z"/>
					<path style="fill:#FFFFFF;" d="M558.377,183.518c-15.235,4.75-31.076,4.947-47.601,0c0.089,0,0.177-0.015,0.266-0.015v-16.424
						c15.208,3.115,30.42,3.114,45.635,0v16.35C557.239,183.458,557.815,183.488,558.377,183.518z"/>
				</g>
			</g>
		</g>
		<g>
			<g>
				<path style="fill:#ACC4E3;" d="M365.944,768.186v-37.098H290.49v-30.937l79.981-117.079h29.679v116.954h22.887v31.062H400.15
					v37.098H365.944z M365.944,700.026v-63.003l-42.381,63.003H365.944z"/>
				<path style="fill:#ACC4E3;" d="M499.623,583.072c17.857,0,31.816,6.373,41.877,19.116
					c11.987,15.089,17.982,40.115,17.982,75.076c0,34.877-6.036,59.944-18.109,75.202c-9.977,12.576-23.893,18.864-41.75,18.864
					c-17.943,0-32.404-6.894-43.386-20.687c-10.984-13.789-16.474-38.376-16.474-73.756c0-34.709,6.036-59.691,18.108-74.951
					C467.848,589.361,481.766,583.072,499.623,583.072z M499.623,612.373c-4.276,0-8.091,1.365-11.444,4.088
					c-3.353,2.726-5.954,7.609-7.797,14.651c-2.432,9.139-3.647,24.522-3.647,46.153c0,21.629,1.089,36.491,3.271,44.581
					c2.178,8.091,4.924,13.477,8.236,16.159c3.312,2.685,7.106,4.025,11.382,4.025s8.089-1.361,11.444-4.088
					c3.351-2.723,5.951-7.607,7.797-14.651c2.429-9.055,3.647-24.397,3.647-46.026c0-21.631-1.091-36.489-3.271-44.581
					c-2.182-8.091-4.926-13.497-8.236-16.223C507.691,613.738,503.899,612.373,499.623,612.373z"/>
				<path style="fill:#ACC4E3;" d="M652.418,768.186v-37.098h-75.454v-30.937l79.981-117.079h29.679v116.954h22.887v31.062h-22.887
					v37.098H652.418z M652.418,700.026v-63.003l-42.381,63.003H652.418z"/>
			</g>
			<g>
				<path style="fill:#93ACCC;" d="M357.523,852.159v-35.19h4.776l18.483,27.629v-27.629h4.464v35.19h-4.776l-18.483-27.652v27.652
					H357.523z"/>
				<path style="fill:#93ACCC;" d="M391.657,835.02c0-5.841,1.568-10.414,4.705-13.719c3.136-3.305,7.185-4.956,12.147-4.956
					c3.248,0,6.176,0.776,8.785,2.329c2.608,1.552,4.596,3.715,5.964,6.493c1.37,2.776,2.054,5.924,2.054,9.444
					c0,3.57-0.721,6.762-2.161,9.578c-1.441,2.818-3.482,4.95-6.121,6.398c-2.641,1.448-5.491,2.172-8.547,2.172
					c-3.312,0-6.273-0.801-8.88-2.401c-2.609-1.6-4.585-3.784-5.929-6.553C392.329,841.038,391.657,838.108,391.657,835.02z
					 M396.458,835.092c0,4.241,1.139,7.583,3.42,10.022c2.281,2.441,5.142,3.66,8.582,3.66c3.505,0,6.39-1.231,8.654-3.695
					c2.264-2.464,3.397-5.961,3.397-10.49c0-2.865-0.484-5.365-1.453-7.501c-0.968-2.137-2.384-3.794-4.247-4.97
					c-1.865-1.176-3.957-1.763-6.278-1.763c-3.297,0-6.133,1.131-8.509,3.397C397.646,826.015,396.458,829.795,396.458,835.092z"/>
				<path style="fill:#93ACCC;" d="M440.265,852.159v-31.037h-11.593v-4.153h27.893v4.153h-11.642v31.037H440.265z"/>
				<path style="fill:#93ACCC;" d="M474.35,852.159v-35.19h23.742v4.153h-19.084v10.897h16.515v4.154h-16.515v15.986H474.35z"/>
				<path style="fill:#93ACCC;" d="M502.725,835.02c0-5.841,1.568-10.414,4.705-13.719c3.136-3.305,7.185-4.956,12.145-4.956
					c3.248,0,6.178,0.776,8.785,2.329c2.609,1.552,4.598,3.715,5.966,6.493c1.368,2.776,2.052,5.924,2.052,9.444
					c0,3.57-0.721,6.762-2.16,9.578c-1.44,2.818-3.48,4.95-6.121,6.398c-2.641,1.448-5.489,2.172-8.545,2.172
					c-3.313,0-6.273-0.801-8.882-2.401c-2.607-1.6-4.585-3.784-5.929-6.553C503.397,841.038,502.725,838.108,502.725,835.02z
					 M507.525,835.092c0,4.241,1.141,7.583,3.422,10.022c2.281,2.441,5.14,3.66,8.582,3.66c3.503,0,6.388-1.231,8.652-3.695
					c2.266-2.464,3.397-5.961,3.397-10.49c0-2.865-0.484-5.365-1.451-7.501c-0.969-2.137-2.384-3.794-4.249-4.97
					c-1.863-1.176-3.957-1.763-6.276-1.763c-3.297,0-6.135,1.131-8.51,3.397C508.714,826.015,507.525,829.795,507.525,835.092z"/>
				<path style="fill:#93ACCC;" d="M565.472,816.969h4.656v20.332c0,3.537-0.4,6.345-1.2,8.425c-0.801,2.08-2.245,3.774-4.334,5.077
					c-2.087,1.305-4.828,1.957-8.221,1.957c-3.297,0-5.993-0.569-8.088-1.705c-2.097-1.136-3.594-2.779-4.489-4.932
					s-1.345-5.093-1.345-8.822v-20.332h4.658v20.307c0,3.058,0.284,5.31,0.851,6.758c0.569,1.448,1.545,2.564,2.93,3.348
					c1.383,0.784,3.076,1.176,5.077,1.176c3.423,0,5.864-0.776,7.321-2.329c1.456-1.552,2.186-4.536,2.186-8.954V816.969z"/>
				<path style="fill:#93ACCC;" d="M577.835,852.159v-35.19h4.776l18.483,27.629v-27.629h4.464v35.19h-4.776l-18.483-27.652v27.652
					H577.835z"/>
				<path style="fill:#93ACCC;" d="M613.385,852.159v-35.19h12.122c2.736,0,4.825,0.169,6.264,0.504
					c2.017,0.464,3.737,1.305,5.162,2.521c1.855,1.568,3.243,3.573,4.164,6.013c0.919,2.441,1.38,5.23,1.38,8.367
					c0,2.673-0.312,5.04-0.936,7.104c-0.624,2.065-1.425,3.774-2.401,5.125c-0.976,1.353-2.044,2.417-3.205,3.193
					c-1.159,0.776-2.559,1.365-4.201,1.765c-1.64,0.399-3.523,0.599-5.652,0.599H613.385z M618.041,848.006h7.513
					c2.321,0,4.141-0.215,5.462-0.647c1.32-0.432,2.372-1.041,3.156-1.825c1.104-1.104,1.964-2.588,2.581-4.453
					c0.616-1.863,0.924-4.124,0.924-6.782c0-3.68-0.606-6.508-1.814-8.485c-1.208-1.975-2.676-3.3-4.404-3.972
					c-1.248-0.481-3.257-0.721-6.024-0.721h-7.394V848.006z"/>
			</g>
		</g>
	</g>
</g>
</svg>
