<?xml version="1.0" encoding="utf-8"?>
<!-- Generator: Adobe Illustrator 25.3.0, SVG Export Plug-In . SVG Version: 6.00 Build 0)  -->
<svg version="1.1" id="castillo" xmlns="http://www.w3.org/2000/svg" xmlns:xlink="http://www.w3.org/1999/xlink" x="0px" y="0px"
	 viewBox="0 0 383.57 329.43" style="enable-background:new 0 0 383.57 329.43;" xml:space="preserve">
<style type="text/css">
	.st0{fill:#B6CD69;}
	.st1{fill:#FFD97D;}
	.st2{fill:none;stroke:#338968;stroke-width:2;stroke-miterlimit:10;}
	.st3{fill:none;stroke:#A59E3E;stroke-miterlimit:10;}
	.st4{fill:#FEE095;}
	.st5{fill:#442614;}
	.st6{fill:#8D4E20;}
	.st7{fill:#DF6A4E;}
	.st8{fill:#97B6E0;}
	.st9{fill:#B29A6E;}
	.st10{fill:#B85443;}
	.st11{fill:#7694C1;}
	.st12{fill:#6C5737;}
	.st13{fill:#5B2C25;}
	.st14{fill:#20110C;}
	.st15{fill:none;stroke:#F5A156;stroke-linecap:round;stroke-miterlimit:10;}
	.st16{fill:none;stroke:#F5A156;stroke-width:2;stroke-linecap:round;stroke-miterlimit:10;}
	.st17{fill:none;stroke:#020203;stroke-miterlimit:10;}
	.st18{fill:none;stroke:#020203;stroke-width:0.75;stroke-miterlimit:10;}
	.st19{fill:none;stroke:#020203;stroke-width:0.5;stroke-miterlimit:10;}
	.st20{fill:none;stroke:#020203;stroke-linecap:round;stroke-miterlimit:10;}
	.st21{fill:#A0B83A;}
	.st22{fill:none;stroke:#7C93AD;stroke-width:2;stroke-miterlimit:10;}
	.st23{fill:#A7BBCD;}
	.st24{fill:#1F6157;}
	.st25{fill:none;stroke:#6DBE9B;stroke-miterlimit:10;}
	.st26{fill:none;stroke:#6DBE9B;stroke-width:0.75;stroke-miterlimit:10;}
</style>
<g id="mountain">
	<g id="color_4_">
		<path class="st0" d="M370.12,315.54c0,0-15.84-23.1-27.12-151.45l-130.89-24.93c0,0-5.56-12.31-43.7,77.27
			c0,0-33.09,80.06-149.32,99.1H370.12z"/>
	</g>
	<g id="camin">
		<path class="st1" d="M201.18,315.54c0,0-3.26-5.5-2.1-14.54c1.16-9.04,7.75-28.72,40.61-37.8l12.89-3.04l13.2-2.12l7.46-1.77
			l8.37-3.41l6.1-4.85l2.86-4.49l0.67-3.54c0,0-0.41-8.17-9.84-14.46s-22.02-10.08-22.02-10.08l-9.52-4.21l-10.1-6.08
			c0,0-12.27-10.06-0.72-15.5l14.28-4.68l19.33-6.73l11.19-4.81l2.9-2.02l0.35-0.73l-20.36-1.08l-0.58,1.82l-7.68,3.4l-19.64,5.13
			c0,0-10.34,3.67-10.78,4.61c0,0-18.56,8.77-3.94,22.18l7.24,5.2l8.11,4.13l11.81,4.91l6.8,3.94l3.16,2.38l2.72,2.92l1.26,3.11
			l-0.49,3.55l-2.04,2.82l-4.75,3.74l-12.9,5.3l-9.41,1.07l-12.22,1.58l-11.77,3.39c0,0-34.84,8.81-40.93,60.77"/>
	</g>
	<g id="contorno_7_">
		<path class="st2" d="M370.12,315.54c0,0-16.07-31.56-26.19-149.57c-0.11-1.27-1.05-2.33-2.31-2.57l-129.14-25.11
			c-10.09-0.35-38.55,65.95-38.55,65.95c-40.3,99.39-154.84,111.31-154.84,111.31H370.12"/>
		<path class="st3" d="M201.6,315.54c-2.11,2.62-18.07-46.27,58.94-56.65c6.27-0.84,15.85-2.82,21.23-6.15
			c7.83-4.83,14.83-12.93,3.58-24.04c-4.06-4.01-9.34-6.25-14.55-8.61c-9.28-4.2-34.22-11.9-36.66-22.43
			c-0.79-3.41,1.33-6.83,4.65-7.95c10.71-3.61,48.28-15.12,48.28-19.04"/>
		<path class="st3" d="M170.7,315.54c0,0,0.75-63.59,67.81-65.88c2.64-0.09,5.25-0.52,7.77-1.31c11.61-3.67,39.13-15.17-5.74-31.67
			c0,0-42.98-17.78-9.36-33.72c4.39-2.08,9.03-3.59,13.78-4.62c8.32-1.81,23-5.49,21.67-8.73"/>
		<path class="st2" d="M305.85,230.45"/>
		<path class="st2" d="M295.48,201.64"/>
	</g>
</g>
<g id="castle">
	<g id="color_3_">
		<g id="fachada">
			<path class="st4" d="M257.39,97.47l-0.52,0.66v11.64h2.46v-3.5l9.33,0.17l-0.14,3.33h2.63V67.4c0,0-7.16-1.18-6.06-6l-0.16-10.88
				h7.65v5.96h5.7l0.03-3.46l8.65-0.04v3.5h6.19v-5.96h5.29l-0.01,10.88c0,0-0.48,5.66-4.89,5.34l-0.39,39.54h4.53v3.5h6.18v-1.37
				c0,0-6.2-2.2-5.9-8.88V88.91l7.37,0.06l-0.03,5.9h6.04l-0.05-3.3l9.24-0.19v3.5h6.18l0.06-5.83l6.8-0.13v10.63
				c0,0,0.06,8.1-9.07,8.55v17.17l4.15,0.02v5.96h5.7v-3.41l8.68-0.09v3.5h6.09l-0.05-6.03l5.49,0.05v10.69
				c0,0-0.52,9.39-15.29,8.68v23.78l-12.57,0.1l-0.13,11.11h-30.84l-0.26-11.11l-37.32-0.1l0.01,3.17h-29.04l-0.03-10.27l1.11-2.75
				l-17.88,0.19l-0.31-26.03c0,0-7.03,0.45-7.32-7.66v-11.47l8.23,0.03v5.96l5.64-0.03l0.13-3.37l8.89-0.16v3.3l5.56,0.26v-5.99
				l5.77-0.19V97.46"/>
			<path class="st4" d="M237.34,97.46c0,0-4.28-0.87-4.28-4.66c0-3.79,0-10.5,0-10.5h4.91v5.96l5.85-0.23v-3.27l8.92,0.26
				l-0.01,3.24h5.99V82.3h4.32v10.5c0,0-0.05,4.94-7.24,4.68"/>
			<polygon class="st4" points="267.59,168.47 267.56,169.76 271.9,169.76 271.83,168.27 			"/>
			<polygon class="st4" points="285.28,168.47 285.28,169.6 288.87,169.41 288.87,168.27 			"/>
		</g>
		<g id="puertas">
			<polygon class="st5" points="218.58,137.82 224.15,137.82 224.08,149.61 218.58,149.61 			"/>
			<polygon class="st5" points="244.95,151.7 250.91,151.62 250.97,139.75 245.14,139.75 			"/>
			<polygon class="st5" points="250.94,133.23 250.94,121.54 245.47,121.62 244.95,133.23 			"/>
			<polygon class="st5" points="251.1,116.31 251.04,104.91 245.14,104.78 245.14,116.31 			"/>
			<polygon class="st5" points="279.48,74.13 285.31,74.05 285.31,86.01 279.28,86.01 			"/>
			<path class="st5" d="M286.8,109.77l0.22-13.97c0.02-1.24-0.98-2.25-2.22-2.25h-6.71c-0.98,0-1.77,0.81-1.75,1.79l0.16,8.15
				l5.96,0.39l-0.02,5.9H286.8z"/>
			<path class="st5" d="M285.05,169.6l0.23-29.47c0.02-2.31-1.78-4.18-4.01-4.18h-6.22c-1.53,0-2.77,1.27-2.8,2.85l-0.41,30.6
				L285.05,169.6z"/>
			<polygon class="st5" points="311.74,156.51 317.64,156.51 317.25,146.83 311.74,146.83 			"/>
			<polygon class="st5" points="317.64,142.84 317.44,130.89 311.74,130.89 311.61,142.87 			"/>
			<polygon class="st5" points="317.32,113.59 317.32,125.06 311.61,125.06 311.61,113.25 			"/>
			<polygon class="st6" points="334.03,160.5 334.1,148.51 328.26,148.45 328.2,160.24 			"/>
		</g>
		<g id="techo">
			<polygon class="st7" points="330.73,88.91 317.22,74.4 301.44,88.91 305.33,88.97 305.3,94.87 311.34,94.87 311.29,91.56 
				320.53,91.37 320.53,94.87 326.71,94.87 326.77,89.04 			"/>
			<polygon class="st7" points="292.68,119.23 278.77,110.14 263.99,119.23 268.72,119.23 268.66,125.19 274.36,125.19 
				274.55,121.75 283.04,121.69 283.04,125.19 288.87,125.19 288.87,119.58 			"/>
			<polygon class="st7" points="352.33,125.28 339.54,108.08 326.48,125.54 328.65,125.54 328.65,131.24 334.35,131.24 
				334.35,127.83 343.04,127.74 343.04,130.89 348.87,131.24 349.08,125.2 			"/>
			<polygon class="st7" points="233.16,119.58 233.16,113.59 236.78,113.59 222.92,98.62 208.37,113.59 212.94,113.62 
				212.94,119.58 218.58,119.55 218.71,116.18 227.39,116.05 227.32,119.58 			"/>
			<polygon class="st7" points="248.85,69.91 261.24,82.3 258.52,82.3 258.52,88.26 252.53,88.26 252.54,85.02 243.62,84.76 
				243.62,88.03 237.77,88.26 237.77,82.3 235,82.3 			"/>
			<polyline class="st7" points="296.06,50.51 283.08,36.13 268.72,50.51 272.58,50.51 272.58,56.47 278.28,56.47 278.31,53.01 
				286.96,52.97 286.96,56.47 293.15,56.47 292.79,50.51 296.06,50.51 			"/>
		</g>
		<g id="bandera">
			<path class="st8" d="M248.15,54.69l0.42-13.4c0,0-10.91,6.35-19.76,2.46c0,0-12.47-6.95-23.49,3.65c0,0,11.98,0.22,23.71,7.29
				C229.03,54.69,241.55,61.16,248.15,54.69z"/>
			<path class="st8" d="M222.21,82.04l0.26-11.79c0,0-6.33,3.25-17.52-1.65c0,0-12.63-5.45-24.28,1.31c0,0,14.13-2.46,21.32,6.2
				C201.99,76.1,209.44,83.01,222.21,82.04z"/>
			<path class="st8" d="M315.5,75.69c-6.8-3.5-17.06-2.23-17.06-2.23c12.87-6.77,24.11-1.4,24.11-1.4
				c10.16,5.05,17.77,2.24,17.77,2.24l-1.41,11.34c-5.89,0.49-10.73-0.89-14.45-2.77l-6.6-7.62L315.5,75.69z"/>
			<path class="st8" d="M316.57,60.54c0,0,0.17-11.42,0.65-11.55c0,0-8.32,2.76-18.24-2.15c0,0-12.09-4.85-23.07,1.57
				c0,0,13.21-1.57,19.37,5.08C295.29,53.49,301.25,60.69,316.57,60.54z"/>
			<path class="st8" d="M282.11,31.01c0,0,0.45-10.52,1.31-10.91c0,0-9.32,3.08-27.43-1.73c0,0-19.16-7.31-34.08,0.93
				c0,0,19.66,3.02,31.31,8.71C253.22,28.01,267.08,36.09,282.11,31.01z"/>
		</g>
	</g>
	<g id="s_claras">
		<polygon class="st9" points="324.51,170.05 324.51,179.19 326.31,179.44 326.82,178.31 326.58,169.76 		"/>
		<path class="st9" d="M324.73,163.8c0,0,0.93,2.41,0.24,6.25l1.61-0.29l-0.19-4.57L324.73,163.8z"/>
		<polygon class="st9" points="322.84,163.8 322.84,108.08 324.73,108.1 324.51,163.35 		"/>
		<path class="st9" d="M332.28,99.37"/>
		<polygon class="st9" points="332.09,99.56 332.09,88.91 333.42,89.18 333.77,99.56 		"/>
		<rect x="291.16" y="66.77" class="st9" width="1.99" height="39.51"/>
		<polygon class="st9" points="296.84,61.39 296.84,55.26 298.27,55.95 298.27,61.65 		"/>
		<path class="st9" d="M258.16,161.21l-0.49-4.31l-0.5-0.79l-1.39,0.05c0,0,1.14,3.11,0.25,5.05"/>
		<polyline class="st9" points="255.38,161.21 255.38,171.58 257.82,171.47 258.42,170.64 258.16,161.21 		"/>
		<polygon class="st9" points="255.05,155.9 255.05,97.47 256.87,97.46 256.71,155.38 		"/>
		<polygon class="st9" points="261.24,92.6 261.24,82.59 262.91,82.57 263.02,84.34 263.02,92.79 		"/>
		<polygon class="st9" points="251.77,84.98 251.77,88.61 253.08,88.61 252.94,84.98 		"/>
		<path class="st9" d="M237.03,82.3v5.96c0,0,0.12,0.43,0.53,0.36c0.41-0.07,0.39-6.04,0.39-6.04L237.03,82.3z"/>
		<path class="st9" d="M290.16,135.43v-3.67c0,0-0.09-0.92-1.58-1.17l0.19,5.02L290.16,135.43z"/>
		<path class="st9" d="M337.66,168.27v-23.62l1.62-0.03l0.26,22.9C339.54,167.53,338.58,168.87,337.66,168.27z"/>
		<rect x="351.39" y="125.45" class="st9" width="3.17" height="10.33"/>
		<polygon class="st9" points="342.08,128.04 342.08,131.68 342.78,131.68 342.92,127.91 		"/>
		<polygon class="st9" points="319.41,91.7 319.41,95.22 320.43,95.22 320.53,91.53 		"/>
		<polygon class="st9" points="303.6,88.96 303.6,95.05 305.3,95.05 305.33,88.97 		"/>
		<polygon class="st9" points="298.44,100.82 333.12,100.82 333.12,99.58 297.96,99.53 		"/>
		<path class="st9" d="M331.03,99.69c0,0-3.31,6.24-9.76,8.33c0,0,8.52,0.54,10.5-2.92c0,0,2.61-4.67,1.53-5.54
			C332.21,98.69,331.03,99.69,331.03,99.69z"/>
		<path class="st9" d="M286.28,66.75"/>
		<polygon class="st9" points="265.16,62.18 298.66,62.18 298.43,61.39 265.1,61.39 		"/>
		<polygon class="st9" points="285.84,53.26 285.84,56.59 286.96,56.59 286.96,53.17 		"/>
		<polyline class="st9" points="271.02,50.64 271.02,56.76 272.58,56.76 272.58,50.64 271.15,50.64 		"/>
		<rect x="233.32" y="92.79" class="st9" width="29.55" height="1.21"/>
		<polygon class="st9" points="204.77,126.68 239.12,126.68 239.12,125.06 204.96,125.06 		"/>
		<polygon class="st9" points="237.49,113.93 237.49,125.06 239.12,125.06 238.91,113.59 		"/>
		<polygon class="st9" points="226.29,116.31 226.29,119.58 227.32,119.58 227.32,116.08 		"/>
		<rect x="212.03" y="113.88" class="st9" width="0.91" height="5.7"/>
		<polygon class="st9" points="236.25,132.72 236.25,155.9 239.12,155.9 238.92,132.93 		"/>
		<polyline class="st9" points="304.42,163.8 304.83,108.08 305.85,108.1 305.59,163.84 304.7,163.84 		"/>
		<polygon class="st9" points="295.53,170.67 326.79,170.67 326.79,169.76 295.48,169.76 		"/>
		<path class="st9" d="M229.4,161.7"/>
		<polygon class="st9" points="229.4,162.38 258.42,162.38 258.16,161.21 229.14,161.21 		"/>
		<path class="st9" d="M288.58,134.94"/>
		<path class="st9" d="M288.58,134.94l0.19,0.68c0,0,6.64-0.02,7.32-4.38v-11.3l-1.26-0.62v11.91c0,0,0.19,2.83-6.25,3.34"/>
		<polygon class="st9" points="282.91,125.35 281.94,125.35 281.94,121.88 283.33,121.88 		"/>
		<polygon class="st9" points="267.56,119.23 267.56,125.19 268.5,125.19 268.5,119.52 		"/>
		<polygon class="st9" points="296.55,106.64 296.55,110.14 297.77,110.14 297.77,106.45 		"/>
		<polygon class="st9" points="282.31,109.9 280.98,109.9 280.98,103.94 282.85,103.94 		"/>
		<polygon class="st9" points="267.56,106.54 267.56,109.9 268.39,109.9 268.39,106.45 		"/>
		<path class="st10" d="M249.49,70.54c0,0,6.78,11.88,6.2,17.72l2.83,0l0.2-5.96h2.7L249.49,70.54z"/>
		<path class="st10" d="M230.03,119.58c0,0,0.62-8.65-6.98-20.29l13.74,14.3h-3.74l0.11,5.99H230.03z"/>
		<path class="st10" d="M291.27,45.2l-8.1-8.82c0,0,1.39,4.36,2.33,8.9"/>
		<path class="st10" d="M286.1,48.71c0.22,1.62,0.31,3.11,0.18,4.26l0.68,0.2v3.02h6.17l-0.28-4.72"/>
		<path class="st10" d="M344.46,131.24c0,0-0.52-15.62-4.92-22.43l12.8,16l-3.26,0.65l-0.2,5.79H344.46z"/>
		<path class="st10" d="M286.67,125.06"/>
		<path class="st10" d="M278.77,110.4c0,0,7.84,10.05,6.28,14.94l3.82-0.16v-5.6l4.28-0.36L278.77,110.4z"/>
		<path class="st9" d="M254.13,97.47c0,0,4.47-0.79,6.25-4.87l2.64,0.19C263.02,92.79,264.26,97.25,254.13,97.47z"/>
		<polygon class="st9" points="212.03,132.72 212.05,134.05 239.12,134.05 239.12,132.88 		"/>
		<polygon class="st9" points="236.78,132.72 236.78,125.06 239.12,125.06 239.12,132.88 		"/>
		<path class="st9" d="M290.69,66.77c0,0,3.99-1.54,4.22-5.12h3.37c0,0-0.44,4.81-3.21,4.79L290.69,66.77z"/>
		<polygon class="st9" points="271.15,67.04 271.15,67.78 293.18,67.78 293.18,66.77 		"/>
		<polygon class="st9" points="306.01,108.29 306.01,109.15 324.57,109.15 324.73,108.29 		"/>
		<polygon class="st9" points="354.57,135.94 354.52,136.87 324.51,136.87 324.51,135.96 		"/>
		<path class="st9" d="M342.84,144.66c0,0,4.52-2.79,4.48-8.69l7.25-0.02c0,0,1.55,5.02-9.03,8.68L342.84,144.66z"/>
		<path class="st10" d="M316.88,75.43c0,0,9.02,11.82,5.42,19.43c-3.6,7.61,0,0,0,0h2.72l1.69-0.2l0.06-5.64l4.34-0.23L316.88,75.43
			z"/>
		<path class="st11" d="M222.34,75.88"/>
		<path class="st11" d="M222.33,76.37"/>
		<path class="st11" d="M221.96,78.02c0,0-9.55,0.97-18.59-5.27c-4.95-3.42-10.97-5.02-16.91-4.03c-1.54,0.26-3.16,0.64-4.83,1.19
			c0,0,12.02-1.43,18.28,4.39c0,0,8.59,9.46,22.56,7.52L221.96,78.02z"/>
		<path class="st11" d="M248.3,50.51c0,0-9.12,5.22-23.04-2.32c-3.15-1.71-6.65-2.73-10.23-2.84c-2.97-0.09-6.32,0.34-9.05,2.09
			c0,0,7.63-1.09,28.57,9.69c0,0,11.62,1.94,14.02-3.01L248.3,50.51z"/>
		<path class="st11" d="M282.39,25.74c0,0-18.26,3.47-33.55-4.12c-3.03-1.5-6.24-2.64-9.59-3.13c-4.37-0.64-10.41-0.82-16.91,1.06
			c0,0,21.19,3.33,35.28,10.45c0,0,13.18,6.02,24.52,0.45L282.39,25.74z"/>
		<path class="st11" d="M316.64,57.5c0,0-11.11-1.23-16.36-4.4c-2.61-1.58-5.36-2.89-8.3-3.7c-4.88-1.34-11.39-2.6-14.9-1.09
			c0,0,12.96-1.39,18.98,5.96c0,0,12.85,9.23,20.19,5.6L316.64,57.5z"/>
		<path class="st11" d="M339.22,80.88c0,0-11.02,0.25-17.56-4.35c0,0-8.55-6.59-21.57-3.03c0,0,9.59-1.7,15.29,2.71l1.51-0.77
			l2.77,1.89l7.38,7.31c0,0,10.27,1.36,11.87,1L339.22,80.88z"/>
	</g>
	<g id="s_oscuras">
		<path class="st12" d="M273.49,51.94c0,0,9.43-3.17,19.31,0.71l0.06-1.19C292.85,51.47,285.47,45.53,273.49,51.94z"/>
		<path class="st12" d="M262.87,168.48v-33.66c0,0-1.94-1.74-2.04-3.42c-0.1-1.68,0-12.24,0-12.24l2.04,0.07v-12.8l-3.54-0.15v3.5
			h-2.46l-0.16,46.12c0,0,1.85,2.15,1.46,5.31l0.01,7.19L262.87,168.48z"/>
		<polygon class="st12" points="326.88,168.4 327.07,144.66 324.51,144.62 324.51,163.8 325.79,164.56 326.23,167.19 326.07,168.4 
					"/>
		<polygon class="st9" points="339.52,145.85 327.07,145.85 327.07,144.66 339.54,144.87 		"/>
		<path class="st12" d="M262.18,154.93c0,0,2.53,1.04,2.72,5.96v7.6h-2.03"/>
		<polygon class="st12" points="335.99,144.62 335.99,127.85 334.32,127.84 334.42,131.24 328.75,131.24 328.65,125.28 
			324.51,125.25 324.51,144.62 335.39,144.62 		"/>
		<path class="st12" d="M335.59,168.48l-0.19-23.86h-10.88v19.18c0,0,2.47-0.58,2.08,4.6l9.4,0.08"/>
		<path class="st12" d="M291.98,105.95"/>
		<polygon class="st12" points="292.76,168.43 292.76,135.29 289.04,135.49 289.04,168.48 		"/>
		<path class="st13" d="M336.47,127.74c0,0-0.61-4.34,0.75-8.08c0,0,2.75-7.18,2.06-11.1l-0.77,0.24l-11.8,16.25l1.94,0.23l0.1,5.95
			h5.67l-0.1-3.39L336.47,127.74z"/>
		<polygon class="st14" points="327.99,160.5 334.28,160.38 334.03,148.62 328.35,148.62 		"/>
	</g>
	<g id="luz_2_">
		<line class="st15" x1="246.15" y1="116.18" x2="246.15" y2="105.88"/>
		<line class="st15" x1="312.59" y1="125.17" x2="312.59" y2="114.87"/>
		<line class="st15" x1="312.59" y1="143.07" x2="312.59" y2="132.78"/>
		<line class="st15" x1="312.59" y1="156.29" x2="312.59" y2="148.71"/>
		<line class="st16" x1="273.84" y1="169.6" x2="273.84" y2="140.52"/>
		<line class="st15" x1="280.74" y1="86.5" x2="280.74" y2="76.21"/>
		<line class="st15" x1="277.99" y1="103.69" x2="277.99" y2="97.07"/>
		<line class="st15" x1="246.15" y1="133.32" x2="246.15" y2="123.03"/>
		<line class="st15" x1="246.15" y1="151.7" x2="246.15" y2="141.4"/>
		<line class="st15" x1="219.48" y1="149.46" x2="219.48" y2="139.16"/>
	</g>
	<g id="contorno_6_">
		<path class="st17" d="M255.05,168.4"/>
		<path class="st17" d="M230.04,158.75h-17.29c-0.4,0-0.72-0.32-0.72-0.72V132.7h26.89v23.19"/>
		<rect x="238.92" y="97.46" class="st17" width="17.95" height="58.44"/>
		<path class="st17" d="M270.08,64.8"/>
		<rect x="305.85" y="108.1" class="st17" width="18.66" height="55.7"/>
		<line class="st18" x1="295.48" y1="169.76" x2="326.58" y2="169.76"/>
		<path class="st17" d="M326.58,168.4v10.48c0,0.4-0.33,0.73-0.73,0.73h-29.64c-0.4,0-0.73-0.33-0.73-0.73V168.4"/>
		<path class="st17" d="M229.14,161.21v9.65c0,0.39,0.32,0.71,0.71,0.71h27.6c0.39,0,0.71-0.32,0.71-0.71v-9.65"/>
		<line class="st18" x1="258.16" y1="161.21" x2="229.14" y2="161.21"/>
		<path class="st17" d="M324.51,163.8v-19.18h14.77v23.06c0,0.39-0.32,0.71-0.71,0.71h-11.98"/>
		<path class="st17" d="M270.08,99.53"/>
		<polyline class="st17" points="293.15,106.28 293.15,66.75 271.15,66.75 271.15,109.78 		"/>
		<path class="st17" d="M267.56,168.47v-36.64c0-0.41,0.32-0.74,0.72-0.75l19.88-0.19c0.4,0,0.72,0.33,0.72,0.74v37.93l-21.32,0.2
			V168.47"/>
		<path class="st17" d="M233.04,92.79v-9.77c0-0.4,0.32-0.72,0.72-0.72h4.61"/>
		<line class="st18" x1="263.02" y1="92.79" x2="233.04" y2="92.79"/>
		<path class="st17" d="M258.29,82.3h4.02c0.4,0,0.72,0.32,0.72,0.72v9.78"/>
		<polyline class="st17" points="324.51,135.94 324.51,125.25 329.07,125.25 		"/>
		<line class="st19" x1="354.57" y1="135.94" x2="324.51" y2="135.94"/>
		<path class="st17" d="M348.45,125.25h5.41c0.4,0,0.72,0.32,0.72,0.72v9.97"/>
		<path class="st17" d="M297.96,99.53v-9.9c0-0.4,0.33-0.73,0.73-0.73h7.01"/>
		<line class="st18" x1="333.58" y1="99.53" x2="297.96" y2="99.53"/>
		<path class="st17" d="M326.29,88.91h6.57c0.39,0,0.71,0.32,0.71,0.71v9.91"/>
		<path class="st17" d="M264.93,61.39V51.22c0-0.39,0.32-0.71,0.71-0.71h6.93"/>
		<line class="st18" x1="298.43" y1="61.39" x2="264.93" y2="61.39"/>
		<line class="st17" x1="298.43" y1="56.19" x2="298.43" y2="61.39"/>
		<path class="st17" d="M288.46,119.23h6.92c0.39,0,0.71,0.32,0.71,0.71v10.95"/>
		<path class="st17" d="M260.72,130.89v-10.95c0-0.4,0.32-0.72,0.72-0.72h7.64"/>
		<path class="st17" d="M204.71,125.06V114.3c0-0.39,0.32-0.71,0.71-0.71h7.94"/>
		<line class="st18" x1="238.92" y1="125.06" x2="204.71" y2="125.06"/>
		<polyline class="st17" points="232.73,113.58 238.92,113.59 238.92,125.06 		"/>
		<path class="st17" d="M282.44,109.78h4.54V95.95c0-1.33-1.08-2.4-2.4-2.4h-5.8c-1.32,0-2.39,1.07-2.39,2.39v7.88"/>
		<path class="st17" d="M224.15,149.64h-5.83v-11.11c0-0.47,0.38-0.85,0.85-0.85h4.13c0.47,0,0.86,0.38,0.86,0.86V149.64z"/>
		<path class="st17" d="M250.97,116.6h-5.83v-11.09c0-0.47,0.38-0.86,0.86-0.86h4.11c0.47,0,0.86,0.38,0.86,0.86V116.6z"/>
		<path class="st17" d="M250.97,133.5h-5.83v-11.11c0-0.46,0.38-0.84,0.84-0.84h4.14c0.47,0,0.86,0.38,0.86,0.86V133.5z"/>
		<path class="st17" d="M250.94,151.7h-5.83v-11.1c0-0.47,0.38-0.86,0.86-0.86h4.12c0.47,0,0.86,0.38,0.86,0.86V151.7z"/>
		<path class="st17" d="M285.18,86.01h-5.83V74.9c0-0.47,0.38-0.85,0.85-0.85h4.13c0.47,0,0.85,0.38,0.85,0.85V86.01z"/>
		<path class="st17" d="M317.32,125.2h-5.83v-11.1c0-0.47,0.38-0.85,0.85-0.85h4.13c0.47,0,0.86,0.38,0.86,0.86V125.2z"/>
		<path class="st17" d="M334.03,160.38h-5.83v-11.1c0-0.47,0.38-0.85,0.85-0.85h4.14c0.46,0,0.84,0.38,0.84,0.84V160.38z"/>
		<path class="st17" d="M317.32,142.84h-5.83v-11.1c0-0.47,0.38-0.85,0.85-0.85h4.14c0.46,0,0.84,0.38,0.84,0.84V142.84z"/>
		<path class="st17" d="M317.32,156.51h-5.83v-8.86c0-0.47,0.38-0.86,0.86-0.86h4.13c0.47,0,0.85,0.38,0.85,0.85V156.51z"/>
		<path class="st17" d="M208.37,113.59l13.49-13.88c0.57-0.59,1.52-0.58,2.08,0.02l12.84,13.86"/>
		<path class="st17" d="M261.42,82.3l-11.43-11.43c-0.54-0.54-1.4-0.56-1.97-0.05L235.18,82.3"/>
		<path class="st17" d="M330.95,88.91l-13.1-13.07c-0.54-0.54-1.4-0.56-1.97-0.05l-14.44,13.12"/>
		<path class="st17" d="M291.27,45.2l-7.54-8.35c-0.56-0.62-1.54-0.63-2.12-0.02l-12.89,13.68"/>
		<path class="st17" d="M301.44,88.91"/>
		<path class="st17" d="M315.32,75.98"/>
		<path class="st17" d="M325.79,83.6"/>
		<path class="st17" d="M330.73,88.91"/>
		<path class="st17" d="M352.33,125.06l-11.88-15.91c-0.58-0.78-1.76-0.77-2.33,0.02l-11.42,15.89"/>
		<path class="st17" d="M292.68,119.23l-13.15-8.59c-0.47-0.3-1.07-0.31-1.54-0.02l-14,8.61"/>
		<path class="st17" d="M338.76,144.62c0,0,15.81,1.04,15.81-8.68"/>
		<path class="st17" d="M322.95,108.08c0,0,10.63,0.83,10.63-8.55"/>
		<path class="st17" d="M305.85,108.08c0,0-7.89,0.83-7.89-8.55"/>
		<polyline class="st17" points="305.3,88.91 305.3,94.87 311.34,94.87 311.34,91.37 320.53,91.37 320.53,94.87 326.71,94.87 
			326.71,88.91 		"/>
		<path class="st17" d="M303.86,103.82"/>
		<g>
			<polyline class="st17" points="282.03,109.78 288.48,109.78 288.48,106.28 297.68,106.28 297.68,109.78 303.86,109.78 
				303.86,107.96 			"/>
			<polyline class="st17" points="276.39,103.82 282.44,103.82 282.44,109.78 			"/>
		</g>
		<polyline class="st17" points="256.87,109.78 259.33,109.78 259.33,106.28 268.52,106.28 268.52,109.78 274.7,109.78 
			274.7,103.82 276.39,103.82 		"/>
		<polyline class="st17" points="328.65,125.28 328.65,131.24 334.35,131.24 334.35,127.74 343.04,127.74 343.04,131.24 
			348.87,131.24 348.87,125.28 		"/>
		<polyline class="st17" points="268.66,119.23 268.66,125.19 274.36,125.19 274.36,121.69 283.04,121.69 283.04,125.19 
			288.87,125.19 288.87,119.23 		"/>
		<polyline class="st17" points="272.58,50.51 272.58,56.47 278.28,56.47 278.28,52.97 286.96,52.97 286.96,56.47 292.79,56.47 
			292.79,51.28 		"/>
		<polyline class="st17" points="212.94,113.62 212.94,119.58 218.64,119.58 218.64,116.08 227.32,116.08 227.32,119.58 
			233.16,119.58 233.16,113.62 		"/>
		<polyline class="st17" points="237.95,82.3 237.95,88.26 243.8,88.26 243.8,84.76 252.71,84.76 252.71,88.26 258.7,88.26 
			258.7,82.3 		"/>
		<path class="st17" d="M302.59,103.82"/>
		<path class="st17" d="M293.15,106.28"/>
		<path class="st17" d="M212.03,132.7c0,0-7.32,0.79-7.32-7.65"/>
		<path class="st17" d="M239.46,97.46c0,0-6.41,0.32-6.41-4.66"/>
		<path class="st17" d="M255.26,97.46c0,0,7.76,0.53,7.76-4.66"/>
		<path class="st17" d="M271.9,169.76V139.4c0-1.91,1.61-3.46,3.6-3.46h5.96c1.99,0,3.6,1.55,3.6,3.46v30.36"/>
		<path class="st17" d="M271.9,169.76"/>
		<polyline class="st17" points="258.18,168.4 267.56,168.4 267.56,169.76 		"/>
		<path class="st17" d="M238.92,155.9c0,0-9.78,0-9.78,5.31"/>
		<path class="st17" d="M258.16,161.21c0,0,0.23-3.3-1.3-5.31"/>
		<path class="st17" d="M298.43,61.39c0,0,0.45,5.35-5.28,5.35"/>
		<path class="st17" d="M271.15,66.75c0,0-6.22,0.65-6.22-5.35"/>
		<path class="st17" d="M296.1,130.89c0,0,0,4.73-6.84,4.73"/>
		<path class="st20" d="M222.9,99c0,0-1.67-24.21,0.15-33.54"/>
		<path class="st17" d="M252.15,66.75"/>
		<path class="st17" d="M221.82,82.04c0,0-14.06,1.3-21.7-7.52c0,0-5.18-6.61-19.95-4.28c0,0,10.95-8.16,27.71-0.44
			c0,0,8.58,3.16,14.6,0.44"/>
		<path class="st20" d="M248.88,70.09c0,0-1.65-24.03,0.17-33.36"/>
		<path class="st20" d="M282.62,36.13c0,0-2.22-11.02,2.15-19.9"/>
		<path class="st20" d="M316.67,75.43c-0.48-7.98-1.1-22.26,1.36-28.62"/>
		<path class="st17" d="M316.57,60.54c0,0-14.06,1.3-21.7-7.52c0,0-5.18-6.61-19.95-4.28c0,0,10.95-8.16,27.71-0.44
			c0,0,8.58,3.16,14.6,0.44"/>
		<path class="st20" d="M339.38,108.47c0,0-2.18-28.23,1.78-36.86"/>
		<path class="st17" d="M315.53,76.11c-2.81-1.74-8.3-3.79-17.57-2.33c0,0,10.95-8.16,27.71-0.44c0,0,8.62,3.43,14.64,0.71"/>
		<path class="st17" d="M338.91,85.64c0,0-6.72,0.64-13.27-2.03"/>
		<path class="st17" d="M248.51,40.99c0,0-9.21,7.78-22.23,1.7c0,0-10.2-5.01-20.89,4.71c0,0,9.77-0.68,25.8,8.11
			c0,0,10.58,5.3,17.02-0.83"/>
		<path class="st17" d="M283.42,19.93c-10.63,3.43-30.39-2.33-30.39-2.33s-17.62-5.96-31.42,1.88c0,0,16.89,1.71,33.73,9.49
			c0,0,11.62,6.73,26.77,2.05"/>
		<path class="st17" d="M260.72,130.6c0,0,0,5.26,6.84,5.26"/>
		<path class="st17" d="M326.58,168.4c0,0,0.23-4.6-2.07-4.6"/>
		<path class="st17" d="M288.87,168.48l6.61-0.08c0-4.6,10.37-4.6,10.37-4.6"/>
	</g>
</g>
<g id="trees">
	<g id="shadow">
		<path class="st21" d="M315.64,181.32c12.02,0.7,22.99,10.96,22.99,23.71c0,12.75-11.67,21.43-23.71,21.43
			c-2.82,0-5.67-0.47-8.39-1.37"/>
		<path class="st21" d="M310.13,232.51c0,0,5.08-0.49,6.44-2.43v-3.98l-5.91-1.77L310.13,232.51z"/>
		<path class="st21" d="M261.03,254.16c12.02,0.7,22.99,10.96,22.99,23.71c0,12.75-11.67,21.43-23.71,21.43
			c-1.85,0-3.71-0.2-5.54-0.6"/>
		<path class="st21" d="M255.96,306.18c0,0,5.08-0.49,6.44-2.43v-5.09l-5.91-0.66L255.96,306.18z"/>
		<path class="st21" d="M229.34,224.88c0,12.75-11.67,21.43-23.71,21.43s-24.75-8.68-24.75-21.43c0-12.75,12.05-24.49,25.47-23.71
			C218.36,201.86,229.34,212.12,229.34,224.88z"/>
		<path class="st21" d="M201.01,253.71c0,0,5.08-0.49,6.44-2.43v-5.37l-5.91-0.39L201.01,253.71z"/>
		<path class="st21" d="M116.13,252.58c12.02,0.7,22.99,10.96,22.99,23.71c0,12.75-11.67,21.43-23.71,21.43
			c-3.16,0-6.36-0.6-9.37-1.71"/>
		<path class="st21" d="M111.84,304.25c0,0,5.08-0.49,6.44-2.43v-4.5l-5.91-1.25L111.84,304.25z"/>
	</g>
	<g id="tronco">
		<g id="contorno_5_">
			<path class="st22" d="M201.02,243.16l0.27,9.79c0,0-7.85,2.53-10.76,0l0.52-11.08C191.04,241.87,199.97,243.18,201.02,243.16"/>
			<path class="st22" d="M257.34,295.63l0.27,9.79c0,0-7.85,2.53-10.76,0l0.52-11.08C247.37,294.35,256.29,295.65,257.34,295.63"/>
			<path class="st22" d="M113.51,293.33l0.27,9.79c0,0-7.85,2.53-10.76,0l0.52-11.08C103.54,292.05,112.46,293.35,113.51,293.33"/>
			<path class="st22" d="M309.86,222.07l0.27,9.79c0,0-7.85,2.53-10.76,0l0.52-11.08C299.89,220.79,308.81,222.09,309.86,222.07"/>
		</g>
		<g id="coloor">
			<path class="st23" d="M201.29,252.95l-0.27-9.79l-9.98-1.58l-0.52,11.37C190.52,252.95,193.58,255.19,201.29,252.95z"/>
			<path class="st23" d="M257.61,305.43l-0.27-9.79l-9.98-1.58l-0.52,11.37C246.85,305.43,249.91,307.66,257.61,305.43z"/>
			<path class="st23" d="M113.78,303.12l-0.27-9.79l-9.98-1.58l-0.52,11.37C103.02,303.12,106.08,305.36,113.78,303.12z"/>
			<path class="st23" d="M310.13,231.87l-0.27-9.79l-9.98-1.58l-0.52,11.37C299.37,231.87,302.43,234.1,310.13,231.87z"/>
		</g>
	</g>
	<g id="hojas_1_">
		<g id="color_2_">
			<path class="st24" d="M182.91,236.11c1.37,1.5,2.99,2.75,4.8,3.68c2.38,1.22,5.51,2.71,6.29,2.52
				c1.3-0.32,18.14,5.32,28.01-11.13c6.84-11.41,0.32-20.57-3.8-25.35c-1.67-1.94-4.77-4.28-7.12-5.28l-3.97-1.58
				c-2.01-0.86-4.39-0.7-6.58-0.74l-1.48-0.03c-3.15-0.05-6.26,0.77-8.97,2.38l-4.06,2.42c-2.81,1.67-5.08,4.12-6.53,7.05
				l-1.87,3.78c-0.52,1.05-0.93,2.16-1.23,3.29l-0.09,0.33c-0.55,2.13-0.68,4.36-0.38,6.54l0,0c0.46,3.4,1.95,6.58,4.26,9.12
				L182.91,236.11z"/>
			<path class="st24" d="M239.23,288.59c1.37,1.5,2.99,2.75,4.8,3.68c2.38,1.22,5.51,2.71,6.29,2.52
				c1.3-0.32,18.14,5.32,28.01-11.13c6.84-11.41,0.32-20.57-3.8-25.35c-1.67-1.94-4.77-4.28-7.12-5.28l-3.97-1.58
				c-2.01-0.86-4.39-0.7-6.58-0.74l-1.48-0.03c-3.15-0.05-6.26,0.77-8.97,2.38l-4.06,2.42c-2.81,1.67-5.08,4.12-6.53,7.05
				l-1.87,3.78c-0.52,1.05-0.93,2.16-1.23,3.29l-0.09,0.33c-0.55,2.13-0.68,4.36-0.38,6.54l0,0c0.46,3.4,1.95,6.58,4.26,9.12
				L239.23,288.59z"/>
			<path class="st24" d="M95.4,286.29c1.37,1.5,2.99,2.75,4.8,3.68c2.38,1.22,5.51,2.71,6.29,2.52c1.3-0.32,18.14,5.32,28.01-11.13
				c6.84-11.41,0.32-20.57-3.8-25.35c-1.67-1.94-4.77-4.28-7.12-5.28l-3.97-1.58c-2.01-0.86-4.39-0.7-6.58-0.74l-1.48-0.03
				c-3.15-0.05-6.26,0.77-8.97,2.38l-4.06,2.42c-2.81,1.67-5.08,4.12-6.53,7.05l-1.87,3.78c-0.52,1.05-0.93,2.16-1.23,3.29
				l-0.09,0.33c-0.55,2.13-0.68,4.36-0.38,6.54l0,0c0.46,3.4,1.95,6.58,4.26,9.12L95.4,286.29z"/>
			<path class="st24" d="M291.75,215.03c1.37,1.5,2.99,2.75,4.8,3.68c2.38,1.22,5.51,2.71,6.29,2.52
				c1.3-0.32,18.14,5.32,28.01-11.13c6.84-11.41,0.32-20.57-3.8-25.35c-1.67-1.94-4.77-4.28-7.12-5.28l-3.97-1.58
				c-2.01-0.86-4.39-0.7-6.58-0.74l-1.48-0.03c-3.15-0.05-6.26,0.77-8.97,2.38l-4.06,2.42c-2.81,1.67-5.08,4.12-6.53,7.05
				l-1.87,3.78c-0.52,1.05-0.93,2.16-1.23,3.29l-0.09,0.33c-0.55,2.13-0.68,4.36-0.38,6.54v0c0.46,3.4,1.95,6.58,4.26,9.12
				L291.75,215.03z"/>
		</g>
		<g id="contorno_4_">
			<path class="st25" d="M202.25,217.61"/>
			<path class="st25" d="M190.07,242.85"/>
			<path class="st25" d="M194.15,243.78"/>
			<path class="st25" d="M194.15,214.72"/>
			<path class="st25" d="M219.03,212.39"/>
			<path class="st25" d="M202.57,245.28"/>
			<path class="st25" d="M208.98,244.07"/>
			<path class="st25" d="M224.28,229.1"/>
			<path class="st25" d="M199.17,206.87"/>
			<path class="st25" d="M196.97,244.76"/>
			<path class="st26" d="M204.27,242.23c0,0-1.52-31.19,15.39-34.54"/>
			<path class="st26" d="M223.78,227.82c-18.78-6.69-19.52,15.12-19.52,15.12"/>
			<path class="st26" d="M219.66,207.69c0,0-7.71,14.81-5.64,19.26"/>
			<path class="st26" d="M210.16,214.44c-5.57,2.88-16.98,24.25-15.36,27.95"/>
			<path class="st26" d="M206.73,199.26c0,0-6.16,16.76-4.69,24.46"/>
			<path class="st26" d="M192.23,241.65c0,0,6.19-21.43-14.22-28.31"/>
			<path class="st26" d="M196.97,233.77c-0.47-18.38-12.95-29.01-12.95-29.01"/>
			<path class="st26" d="M197.34,198.2c0,0-4.97,12.76,5.07,16.83"/>
			<path class="st26" d="M184.65,237.63c0,0,0.05-22.99-6.65-24.29"/>
			<path class="st25" d="M191.04,224.96"/>
			<path class="st25" d="M188.06,201.73"/>
			<path class="st25" d="M258.57,270.09"/>
			<path class="st25" d="M246.39,295.33"/>
			<path class="st25" d="M250.47,296.25"/>
			<path class="st25" d="M250.47,267.2"/>
			<path class="st25" d="M275.35,264.86"/>
			<path class="st25" d="M258.89,297.75"/>
			<path class="st25" d="M265.3,296.55"/>
			<path class="st25" d="M280.6,281.58"/>
			<path class="st25" d="M255.49,259.35"/>
			<path class="st25" d="M253.29,297.24"/>
			<path class="st26" d="M260.59,294.71c0,0-1.52-31.19,15.39-34.54"/>
			<path class="st26" d="M280.11,280.3c-18.78-6.69-19.52,15.12-19.52,15.12"/>
			<path class="st26" d="M275.99,260.17c0,0-7.71,14.81-5.64,19.26"/>
			<path class="st26" d="M266.48,266.92c-5.57,2.88-16.98,24.25-15.36,27.95"/>
			<path class="st26" d="M263.05,251.74c0,0-6.16,16.76-4.69,24.46"/>
			<path class="st26" d="M248.55,294.13c0,0,6.19-21.43-14.22-28.31"/>
			<path class="st26" d="M253.29,286.24c-0.47-18.38-12.95-29.01-12.95-29.01"/>
			<path class="st26" d="M253.66,250.68c0,0-4.97,12.76,5.07,16.83"/>
			<path class="st26" d="M240.97,290.11c0,0,0.05-22.99-6.65-24.29"/>
			<path class="st25" d="M247.37,277.44"/>
			<path class="st25" d="M244.38,254.21"/>
			<path class="st25" d="M114.74,267.78"/>
			<path class="st25" d="M102.56,293.03"/>
			<path class="st25" d="M106.64,293.95"/>
			<path class="st25" d="M106.64,264.89"/>
			<path class="st25" d="M131.52,262.56"/>
			<path class="st25" d="M115.06,295.45"/>
			<path class="st25" d="M121.47,294.24"/>
			<path class="st25" d="M136.77,279.28"/>
			<path class="st25" d="M111.66,257.05"/>
			<path class="st25" d="M109.46,294.94"/>
			<path class="st26" d="M116.76,292.41c0,0-1.52-31.19,15.39-34.54"/>
			<path class="st26" d="M136.28,277.99c-18.78-6.69-19.52,15.12-19.52,15.12"/>
			<path class="st26" d="M132.16,257.87c0,0-7.71,14.81-5.64,19.26"/>
			<path class="st26" d="M122.65,264.62c-5.57,2.88-16.98,24.25-15.36,27.95"/>
			<path class="st26" d="M119.22,249.43c0,0-6.16,16.76-4.69,24.46"/>
			<path class="st26" d="M104.72,291.83c0,0,6.19-21.43-14.22-28.31"/>
			<path class="st26" d="M109.46,283.94c-0.47-18.38-12.95-29.01-12.95-29.01"/>
			<path class="st26" d="M109.83,248.38c0,0-4.97,12.76,5.07,16.83"/>
			<path class="st26" d="M97.14,287.8c0,0,0.05-22.99-6.65-24.29"/>
			<path class="st25" d="M103.54,275.14"/>
			<path class="st25" d="M100.55,251.91"/>
			<path class="st25" d="M311.09,196.53"/>
			<path class="st25" d="M298.91,221.77"/>
			<path class="st25" d="M302.99,222.69"/>
			<path class="st25" d="M302.99,193.63"/>
			<path class="st25" d="M327.87,191.3"/>
			<path class="st25" d="M311.41,224.19"/>
			<path class="st25" d="M317.82,222.98"/>
			<path class="st25" d="M333.12,208.02"/>
			<path class="st25" d="M308.01,185.79"/>
			<path class="st25" d="M305.81,223.68"/>
			<path class="st26" d="M313.11,221.15c0,0-1.52-31.19,15.39-34.54"/>
			<path class="st26" d="M332.63,206.74c-18.78-6.69-19.52,15.12-19.52,15.12"/>
			<path class="st26" d="M328.51,186.61c0,0-7.71,14.81-5.64,19.26"/>
			<path class="st26" d="M319,193.36c-5.57,2.88-16.98,24.25-15.36,27.95"/>
			<path class="st26" d="M315.57,178.17c0,0-6.16,16.76-4.69,24.46"/>
			<path class="st26" d="M301.07,220.57c0,0,6.19-21.43-14.22-28.31"/>
			<path class="st26" d="M305.81,212.68c-0.47-18.38-12.95-29.01-12.95-29.01"/>
			<path class="st26" d="M306.18,177.12c0,0-4.97,12.76,5.07,16.83"/>
			<path class="st26" d="M293.49,216.54c0,0,0.05-22.99-6.65-24.29"/>
			<path class="st25" d="M299.89,203.88"/>
			<path class="st25" d="M296.9,180.65"/>
			<path class="st17" d="M137.23,271.9c0,12.75-11.67,21.43-23.71,21.43s-24.75-8.68-24.75-21.43c0-12.75,12.05-24.49,25.47-23.71
				C126.26,248.88,137.23,259.14,137.23,271.9z"/>
			<path class="st17" d="M224.73,221.72c0,12.75-11.67,21.43-23.71,21.43s-24.75-8.68-24.75-21.43c0-12.75,12.05-24.49,25.47-23.71
				C213.76,198.71,224.73,208.97,224.73,221.72z"/>
			<path class="st17" d="M333.58,200.64c0,12.75-11.67,21.43-23.71,21.43c-12.04,0-24.75-8.68-24.75-21.43
				c0-12.75,12.05-24.49,25.47-23.71C322.61,177.62,333.58,187.88,333.58,200.64z"/>
			<path class="st17" d="M281.06,274.2c0,12.75-11.67,21.43-23.71,21.43c-12.04,0-24.75-8.68-24.75-21.43
				c0-12.75,12.05-24.49,25.47-23.71C270.09,251.18,281.06,261.45,281.06,274.2z"/>
		</g>
	</g>
</g>
</svg>
