<svg id="hoja" xmlns="http://www.w3.org/2000/svg" viewBox="0 0 684.5 954.3"><defs><style>.cls-1{fill:#a05c18;}.cls-2{fill:#e8dba6;}.cls-3{fill:#c95;}</style>
</defs>
<path class="cls-1" d="M688.09,26.36l-1.42-.06-1.07-.05c-24.38-1-219.94-9.44-235.19-10.58l-3.1-.15C263.21.93,152.94,2.64,92.85,6.65c-34.63,2.31-56.66,5.61-69,8C18,15.74,7.52,18,4.49,19.58A9.81,9.81,0,0,0,3.6,20s0-.07,0,0c0,.47,0,1,0,1.45l7,919.12a.05.05,0,0,0,0,0,4.14,4.14,0,0,0,.7,2.1,7.35,7.35,0,0,0,.57.69c4.22,4.4,25.79,14.71,134.06,14.71,54.07,0,129.76-2.57,235.7-9.74l304.77-6.19,1-.06h0c0-.22,0-.45-.07-.67s0-.49,0-.74v-.35a.18.18,0,0,1,0,0s0,0,0,0a1.3,1.3,0,0,0,0-.13h0l-.53-5.24c-.73-2.38-1.22-22.2-1.54-54.94-1.5-154.73,1-598.06,2.94-852.67Zm-4.69,453c-1.82,415.88.31,452.35,1.47,456.32l.34,4.56-303.73,6.18c-150.43,10.16-258,12.44-319.86,6.75-47.67-4.38-49-12.09-49-12.17h0l-7-919.22v-.59l1-.32C12.37,18.93,36,12.25,96.25,8.43c59.87-3.8,169.34-5.31,350.94,9.08l186.65,8.42h0l52.19,2.34C686,44.62,684.35,263,683.4,479.36Z" transform="translate(-3.59 -3.84)"/>
<path class="cls-2" d="M684.87,935.68l.34,4.56-303.73,6.18c-150.43,10.16-258,12.44-319.86,6.75-47.67-4.38-49-12.09-49-12.17h0l-7-919.22v-.59l1-.32C12.37,18.93,36,12.25,96.25,8.43c59.87-3.8,169.34-5.31,350.94,9.08l186.65,8.42h0l52.19,2.34C686,44.62,684.35,263,683.4,479.36,681.58,895.24,683.71,931.71,684.87,935.68Z" transform="translate(-3.59 -3.84)"/>
<path class="cls-3" d="M647.14,921c-1.13-7.89,1-11.87,3.08-13.83,3-2.86,8-3.66,14.79-2.35l.16,0H667L666.39,58h-2v.07h0l-.86.2-1.74.3-1.74.17c-.58,0-1.16.06-1.73,0a9.56,9.56,0,0,1-6.12-2.26,10.6,10.6,0,0,1-3.07-5.85,19.12,19.12,0,0,1-.4-3.48c0-.59,0-1.18,0-1.77,0-.31,0-.6,0-.9,2.33,0,4.66.06,7,0l5-.08,2.5-.08a14.84,14.84,0,0,0,2.49-.19l0-.61c-13.18-1.11-26.44-1.24-39.66-1.62l-39.69-1.08L507,38.61l-79.38-2.37-19.84-.6-9.92-.3c-1.64,0-3.29-.19-4.94-.31l-4.94-.4L378,33.84l-9.91-.69c-6.6-.48-13.21-.86-19.82-1.24q-39.66-2.27-79.4-2.78c-26.48-.34-53-.22-79.44.52s-52.94,1.9-79.37,3.64q-19.81,1.29-39.61,3-9.9.86-19.78,1.85A136.37,136.37,0,0,0,31.05,41.1l.06.48a175,175,0,0,0,18.48-1.3c1.27,5.28.67,9.63-1.77,13-4.52,6.14-13.71,6.82-13.72,6.82l-1,0,1.83,854.5h2v-.08c3,0,7.12,0,9.69,2.72,1.93,2.06,2.74,5.47,2.41,10.14-4.7-.11-9.42-.12-14.17.05l0,.32c6.48,1.64,13.12,1.93,19.71,2.17s13.2.31,19.79.36c13.19.12,26.38.06,39.56-.06,26.37-.27,52.73-.81,79.08-1.46,52.71-1.3,105.42-3.16,158.08-5.07,26.33-.7,52.69-.94,79-1.13s52.71-.18,79.07-.16l79.07.3,39.53.27c13.18,0,26.36.56,39.55-.44v-.37C660.56,921.4,653.85,921.15,647.14,921Zm-19.4-.21-39.54-.37L509.12,920c-26.36-.09-52.72-.15-79.09,0s-52.72.26-79.1,1c-52.7,2-105.36,3.9-158.06,5.25q-39.52,1-79,1.55c-13.18.14-26.35.21-39.52.11q-9.87-.06-19.74-.34c-1.19-.05-2.39-.09-3.58-.12.35-5.21-.64-9.1-3-11.57-3.15-3.36-7.92-3.37-11.15-3.35L35.06,62c2.65-.36,9.75-1.81,13.95-7,3.11-3.85,4-8.85,2.59-14.9q9.52-1,19.06-1.81,19.77-1.75,39.57-3.06,39.6-2.66,79.29-3.73c52.9-1.44,105.86-1,158.71,1.88,6.6.36,13.21.73,19.81,1.2l9.9.66,9.9.77,5,.38c1.65.12,3.3.29,5,.31l9.93.32,19.84.64,79.38,2.54,79.37,2.53L626,43.91c6.61.18,13.22.44,19.84.54l1.4,0c-.05.27-.06.55-.09.82,0,.63-.09,1.26-.09,1.89a20.39,20.39,0,0,0,.3,3.81,12.14,12.14,0,0,0,3.52,6.94,11.44,11.44,0,0,0,7.31,2.8c.65.06,1.29,0,1.94,0s1.27-.11,1.9-.18,1.25-.19,1.87-.31l.51-.11L665,902.82c-7.31-1.33-12.75-.33-16.18,2.94-2.35,2.26-4.86,6.73-3.71,15.25C639.33,920.93,633.53,920.93,627.74,920.83Z" transform="translate(-3.59 -3.84)"/>
</svg>
