<?xml version="1.0" encoding="utf-8"?>
<!-- Generator: Adobe Illustrator 25.3.0, SVG Export Plug-In . SVG Version: 6.00 Build 0)  -->
<svg version="1.1" id="sheila" xmlns="http://www.w3.org/2000/svg" xmlns:xlink="http://www.w3.org/1999/xlink" x="0px" y="0px"
	 viewBox="0 0 312.14 314.72" style="enable-background:new 0 0 312.14 314.72;" xml:space="preserve">
<style type="text/css">
	.st0{fill:#4A2C21;}
	.st1{fill:#311711;}
	.st2{fill:#1E1E1C;}
	.st3{fill:#E5C6CD;}
	.st4{fill:#B9989F;}
	.st5{fill:none;stroke:#1E1E1C;stroke-width:2;stroke-miterlimit:10;}
	.st6{fill:#3C7DC0;}
	.st7{fill:#1D69AA;}
	.st8{fill:#CCB1B7;}
	.st9{fill:#D3BAC1;}
	.st10{fill:none;stroke:#1E1E1C;stroke-miterlimit:10;}
	.st11{fill:#F8EFF1;}
	.st12{fill:#8F3E4B;}
	.st13{fill:#A64F63;}
	.st14{fill:none;}
	.st15{fill:#D7EDFC;}
	.st16{fill:#F7C85A;stroke:#1E1E1C;stroke-width:3;stroke-miterlimit:10;}
	.st17{fill:#C4DCEB;}
	.st18{fill:#030304;}
	.st19{fill:none;stroke:#020203;stroke-miterlimit:10;}
	.st20{fill:#FFFFFF;}
	.st21{fill:#E4E9EE;}
</style>
<g id="Capa_1_1_">
	<g id="cuerpo_1_">
		<g id="pelo_de_atras_1_">
			<path class="st0" d="M210.3,170.58c0,0-13.52-26.73-13.52-46.05l-0.69,0.62c0,0-3.55,17.57-8.35,22.87
				c-4.67,5.17-8.35,15.7-14.15,22c0,0-0.5,32.16,31.28,39.26c0,0,3.99,1.43,7.29,0.75"/>
			<path class="st1" d="M200.51,204.35c0,0-14.58-14.64-15.77-21.94C184.68,182.42,184.56,192.89,200.51,204.35z"/>
			<path class="st1" d="M194.03,177.93c0,0-6.42-29.35-4.11-33.53l1-2.06C190.85,142.35,191.16,161.17,194.03,177.93z"/>
			<g>
				<path class="st2" d="M197.21,194.82c-1-4.36-1.87-8.79-2.74-13.21c-0.81-4.42-1.56-8.85-2.18-13.34
					c-0.62-4.49-1.18-8.91-1.43-13.46c-0.25-4.49-0.44-9.04,0.19-13.52l0.62,0.06c-0.69,4.42-0.56,8.91-0.31,13.4
					s0.69,8.97,1.31,13.4c0.56,4.49,1.25,8.91,2.06,13.34C195.46,185.97,196.27,190.39,197.21,194.82z"/>
			</g>
			<g>
				<path class="st2" d="M203.82,206.54c-2.68-1.5-5.17-3.3-7.6-5.3c-2.37-1.99-4.55-4.18-6.54-6.61c-0.93-1.25-1.81-2.49-2.56-3.86
					c-0.75-1.37-1.43-2.8-1.87-4.3c-0.44-1.5-0.75-3.05-0.75-4.61c0-1.56,0.25-3.12,0.69-4.55c-0.69,2.99-0.5,6.17,0.5,9.04
					c0.93,2.87,2.62,5.55,4.49,7.91c1.87,2.43,4.05,4.61,6.36,6.61c1.12,1,2.31,1.99,3.55,2.93
					C201.32,204.79,202.57,205.73,203.82,206.54z"/>
			</g>
			<path class="st1" d="M119.12,162.48c0,0,1.25-4.8-0.37-6.73c0,0-14.02-19.94-14.71-21.13c-1-1.68-0.62,16.95,7.17,43.62
				c0,0,6.23-5.42,6.42-12.71L119.12,162.48z"/>
		</g>
		<g id="hombros_1_">
			<g id="color_28_">
				<path class="st3" d="M62.48,224.48c0,0-3.86-26.8,19.57-33.65l5.61-1.56c0,0,27.3,2.24,32.34-31.85c0,0,52.66,8.6,60.2,3.37
					l1.62,11.22c0,0-0.37,5.67,22.31,7.73c0,0-17.82,39.82-20.32,50.91c0,0-4.61-2.37-7.6,3.49c0,0-4.99-3.18-7.42,1.74l-0.69,0.75
					c0,0-25.49-9.78-51.35-5.17C116.69,231.4,85.66,233.27,62.48,224.48z"/>
				<path class="st3" d="M127.29,277.21c0,0-5.42-19.94-5.23-21.69c0,0-29.91,14.21-48.86,14.58c0,0,5.3,25.36,10.34,27.79
					C83.54,297.9,110.84,273.4,127.29,277.21z"/>
				<path class="st4" d="M229.62,196.19c0,0,2.37,1.31,2.74,6.54l-6.48,3.99L229.62,196.19z"/>
				<polygon class="st4" points="232.05,234.08 237.9,233.77 239.21,244.49 				"/>
			</g>
			<g id="sombra_7_">
				<path class="st4" d="M105.85,281.79c0,0,23.03-18.6,15.67-26.02c0,0-43.89,14.45-47.88,14.64c0,0,4.3,23.12,9.72,26.98
					c5.42,3.86,0,0,0,0L105.85,281.79z"/>
				<path class="st4" d="M185.62,185.47"/>
				<path class="st4" d="M141.16,230.44c-8.55-5.78-14.84-35.96-14.17-63.54c0.12-0.31,9.02,11.15,8.83,10.9l-14.64-18.82
					c-0.37-0.5-1.12-0.69-1.12,0l-2.24,8.79c0,0.06-6.29,10.47-6.29,10.53l-10.53,51.41c-0.12,0.56,0.31,1.06,0.81,1.06
					c5.3,0,29.35-0.06,35.21-0.37C137.57,230.34,141.35,230.94,141.16,230.44z"/>
				<path class="st4" d="M186.49,176.97c0,0,1.28,3.58,3.66,7.11c0,0-4.07-4.17-6.06-8.34L186.49,176.97z"/>
			</g>
			<g id="contorno_29_">
				<path class="st5" d="M73.19,270.04c0,0,3.49,18.51,10.16,27.79"/>
				<path class="st5" d="M203.69,179.74c0,0-12.84,0.06-20.88-5.55"/>
				<g>
					<path class="st2" d="M166.55,200.18c-0.87,1.31-2.18,2.37-3.61,3.12s-3.05,1.18-4.61,1.37c-1.62,0.12-3.24,0-4.8-0.31
						c-0.81-0.12-1.56-0.44-2.31-0.69c-0.75-0.31-1.43-0.62-2.12-1c0.81,0.12,1.56,0.31,2.31,0.44l1.12,0.19
						c0.37,0.06,0.75,0.12,1.12,0.12c0.75,0.06,1.5,0.19,2.24,0.12c0.75,0.06,1.5,0,2.24-0.06c1.5-0.12,2.93-0.5,4.36-1
						C163.93,201.86,165.3,201.11,166.55,200.18z"/>
				</g>
				<path class="st5" d="M127.29,277.21c0,0-2.74-9.41-5.3-22.06"/>
				<path class="st5" d="M119.93,156.68c0,0-0.93,28.48-28.6,31.91s-29.79,26.3-29.23,35.83"/>
				<g>
					<path class="st2" d="M117.57,231.03c-0.12-1.93-0.25-3.8-0.25-5.73c0-0.93,0-1.93,0-2.87s0-1.93,0.19-2.87
						c0.25,0.93,0.25,1.87,0.37,2.87c0.06,0.93,0.19,1.87,0.31,2.8c0.19,1.87,0.44,3.74,0.69,5.67L117.57,231.03z"/>
				</g>
				<g>
					<path class="st2" d="M190.23,184.16c-2.06-1.43-3.93-3.24-5.42-5.3c-1.5-2.06-2.68-4.36-3.49-6.79l-0.56-1.87l-0.44-1.87
						l-0.31-1.87c-0.06-0.62-0.12-1.25-0.19-1.87c-0.12-2.56,0-5.05,0.44-7.54c0.12,2.49,0.25,4.99,0.56,7.48
						c0.31,2.43,0.81,4.86,1.62,7.17c0.75,2.31,1.81,4.55,3.12,6.67C186.93,180.36,188.49,182.29,190.23,184.16z"/>
				</g>
				<path class="st5" d="M232.92,202.98c0,0-1.06-6.29-3.05-6.98"/>
				<path class="st5" d="M238.15,233.64c0,0,1.43,9.66,1.5,12.15"/>
			</g>
		</g>
		<g id="ropa_1_">
			<g id="color_13_">
				<path class="st6" d="M127.85,276.71c0,0-5.36-18.32-5.11-21.19c0,0,19.88-11.65,46.68-12.46c0,0,1,3.55,6.42,1.74l-43,47.8
					c0,0-1-11.09-0.56-12.53C132.27,280.07,131.96,278.08,127.85,276.71z"/>
				<path class="st6" d="M231.67,233.89l-22.68,0.93l-7.98,5.86l-4.67,15.14l-16.89,45.43l49.17-0.19
					C228.56,301.01,269.5,278.14,231.67,233.89z"/>
			</g>
			<g id="soombras">
				<path class="st7" d="M129.09,251.86c0,0,8.38,29.3,14.48,28.65l-10.74,12.09l-0.56-12.53c0,0-0.23-3.63-4.73-4.42
					c0,0-4.83-17.91-4.73-18.88C122.82,256.76,129.3,253.12,129.09,251.86z"/>
				<path class="st7" d="M245.77,280.32c0,0-12.58,16.3-44.58,19.18l-0.51,1.77l26.71-0.25
					C227.39,301.01,245.65,292.57,245.77,280.32z"/>
				<path class="st7" d="M200.68,297.06c-5.79,2.02-11.99,2.36-20.26,3.1l-0.32,1.11l21.29-0.2"/>
				<path class="st7" d="M233.81,238.11c0,0-29.57-0.54-32.61,5.69l0.55-3.65l7-5.57l22.55-0.46L233.81,238.11z"/>
				<path class="st7" d="M175.83,245.8c-2.51,2.3-7.48,0.37-7.48,0.37s-20.64,2.72-45.13,12.78l-0.53-3.4
					c0,0,21.12-12.08,46.72-12.49c0,0,4.55,2.21,6.86,1.18L175.83,245.8z"/>
			</g>
			<g id="contorno_12_">
				<path class="st5" d="M200.76,301.01c0,0,2.43-36.52-4.24-45.8"/>
				<path class="st5" d="M227.63,301.08c0,0,20.18-15.46,20.18-28.61c0-13.15-4.55-23.24-16.7-38.58"/>
			</g>
		</g>
		<path class="st4" d="M149.1,202.67c0,0,9.57,0.98,17.45-2.49C166.55,200.18,159.43,206.67,149.1,202.67z"/>
	</g>
	<g id="cabeza_1_">
		<g id="cara_2_">
			<g id="color_24_">
				<g id="color_25_">
					<path class="st3" d="M110.46,83.7l-0.19-12.21c4.11-22.06,13.02-29.85,13.02-29.85c13.34-13.27,20.94-2.68,20.94-2.68
						c4.74-2.31,6.04-1.12,6.04-1.12c0.44-1.68,4.67-3.55,4.67-3.55c13.46-2.56,25.11,11.47,25.11,11.47
						c2.56,1.99,7.42,16.76,7.42,16.76c2.37,4.99,8.54,30.79,8.54,30.79c1.5,6.79,0.62,23.12,0.62,23.12
						c0.31,13.9-3.68,20.94-3.68,20.94c-2.06,8.79-15.58,27.55-15.58,27.55c-4.36,5.3-5.3,8.72-5.3,8.72
						c-6.54,10.47-19.07,10.78-19.07,10.78c-10.03,1.43-17.39-7.1-17.39-7.1l-19.44-25.3c-3.8-4.42-12.21-17.76-12.21-17.76
						c-0.93-4.99,1.12-12.53,1.12-12.53c2.49-5.61,3.12-11.34,3.12-11.34c1.06-1.74,2.24-22.25,2.24-22.25V83.7z"/>
					<path class="st8" d="M196.84,124.4c0,0,3.43-3.74,0.81-7.79c0,0,6.61-16.45-1.31-19.26c0,0,0.75,20.75-0.12,26.73
						c-0.87,5.92,0,0.25,0,0.25L196.84,124.4z"/>
				</g>
				<g id="sombra_6_">
					<path class="st9" d="M123.05,161.48c0,0-13.9-19.76-13.65-58.39l-2.74,14.58l-1.56,3.55c0,0-2.49,10.72-1.06,12.96
						C105.54,136.43,123.05,161.48,123.05,161.48z"/>
					<path class="st4" d="M154.46,101.53c0,0,2.99-9.85,15.39-12.96C169.85,88.57,156.52,90.12,154.46,101.53z"/>
					<path class="st4" d="M139.44,133.56c0,0-1.93-4.36-1-6.67c0,0-0.19,4.61,2.68,6.92L139.44,133.56z"/>
					<path class="st9" d="M143.99,39.33c0,0-18.2,0.75-28.6,22.43c0,0-5.98,17.51-4.92,22.25s0,0.31,0,0.31l-0.37-11.84
						c0,0,2.24-17.14,11.59-29.41C121.62,43.01,134.33,28.37,143.99,39.33z"/>
					<path class="st9" d="M149.91,38.02c0,0,9.1-3.93,17.08-2.06C166.99,35.97,155.21,30.11,149.91,38.02z"/>
					<path class="st4" d="M122.74,91.43c0,0,9.72,2.56,13.09,5.61C135.83,97.04,129.53,90.31,122.74,91.43z"/>
				</g>
			</g>
			<g id="contorno_26_">
				<g>
					<path class="st2" d="M153.77,109.26c-0.06-3.37,0.06-6.73,0.93-10.03c0.25-0.81,0.56-1.62,1-2.37
						c0.19-0.37,0.44-0.75,0.69-1.06c0.25-0.31,0.5-0.69,0.75-1c1.12-1.31,2.43-2.43,3.86-3.37c1.43-0.93,2.99-1.62,4.61-2.18
						c0.81-0.25,1.62-0.5,2.49-0.62c0.44-0.06,0.81-0.19,1.25-0.25l1.25-0.12c3.37-0.31,6.79,0.25,9.91,1.56
						c-1.62-0.5-3.24-0.93-4.86-1.06c-0.81-0.12-1.68-0.12-2.49-0.19c-0.44,0-0.81,0.06-1.25,0.06c-0.44,0-0.81,0-1.25,0.12
						c-1.62,0.19-3.24,0.56-4.86,1.06c-1.56,0.56-3.05,1.25-4.42,2.18c-1.37,0.93-2.68,1.93-3.74,3.18c-0.25,0.31-0.5,0.62-0.75,1
						c-0.25,0.31-0.44,0.69-0.69,1.06c-0.44,0.69-0.75,1.43-1,2.24c-0.5,1.56-0.81,3.24-1,4.86
						C153.96,105.95,153.9,107.57,153.77,109.26z"/>
				</g>
				<path class="st10" d="M196.09,124.9c0,0,4.42-2.87,1.43-8.41c0,0,6.67-15.64-1.06-19.38"/>
				<path class="st10" d="M103.61,133.44c0.62,4.18,26.24,36.96,31.35,43.37c0.69,0.87,1.37,1.68,2.18,2.37
					c6.67,5.98,13.46,5.42,13.46,5.42c14.58-0.19,20.13-8.6,21.87-12.34c0.62-1.37,1.37-2.68,2.31-3.86
					c5.11-6.86,20.75-28.98,21.31-43.56c0,0,0.31-7.04,0.62-13.96c0.44-8.97-0.56-17.95-2.93-26.61
					c-3.55-12.96-8.97-31.1-13.46-37.7"/>
				<path class="st10" d="M135.89,90.87"/>
				<path class="st10" d="M160.94,121.66"/>
				<g>
					<path class="st2" d="M137.76,99.28c-0.62-0.75-1.31-1.43-1.99-2.12c-0.69-0.69-1.43-1.31-2.18-1.87
						c-1.56-1.12-3.18-2.18-4.99-2.8c-1.81-0.69-3.68-1.06-5.61-1.06c-0.93,0-1.93,0.06-2.87,0.25c-0.93,0.12-1.87,0.44-2.8,0.69
						c1.74-0.81,3.68-1.37,5.67-1.43c1.99-0.12,3.99,0.25,5.86,1c1.87,0.69,3.55,1.74,5.05,3.05
						C135.33,96.23,136.7,97.66,137.76,99.28z"/>
				</g>
				<path class="st10" d="M162.44,121.41"/>
			</g>
		</g>
		<g id="ojos_2_">
			<g id="izquierdo_1_">
				<g id="color_23_">
					<path class="st11" d="M125.79,102.52l8.97-1.12c0,0-4.05-5.3-8.48-6.54l-0.37,0.25c0,0,3.61,3.68-0.62,7.23L125.79,102.52z"/>
					<path class="st11" d="M118.81,102.4c0,0-3.68-4.42,0.5-7.85c0,0-5.17,1.56-7.98,5.42C111.33,99.97,113.83,101.9,118.81,102.4z"
						/>
					<path class="st1" d="M125.73,94.61c0,0-4.67-1.18-6.23,0.19c-1.62,1.37-3.37,3.37-0.5,7.6l6.04,0.25
						C125.04,102.65,129.59,99.04,125.73,94.61z"/>
					<circle class="st2" cx="122.24" cy="98.1" r="2.24"/>
					<circle class="st11" cx="123.92" cy="96.17" r="0.75"/>
				</g>
				<g id="contorno_25_">
					<path class="st10" d="M111.27,99.72c12.96-13.52,23.56,1.68,23.56,1.68s-16.95,3.61-23.99-1.62"/>
					<path class="st10" d="M119,102.4c-0.37-0.31-0.56-0.5-0.81-0.93c-1.56-2.18-1.06-5.42,1.25-7.04"/>
					<path class="st10" d="M125.29,94.49c0.44,0.31,0.87,0.69,1.18,1.18c1.56,2.18,0.93,5.3-1.31,6.92"/>
				</g>
			</g>
			<g id="derecho_1_">
				<g id="color_22_">
					<path class="st11" d="M167.61,99.91c0,0-4.18-3.61-0.62-7.79c0,0-3.8,1.25-7.98,7.29C159.01,99.41,163.18,100.16,167.61,99.91z
						"/>
					<path class="st11" d="M174.53,98.97c0,0,3.24-4.18-0.69-7.73c0,0,4.42,1,7.85,3.74C181.69,94.98,179.2,97.66,174.53,98.97z"/>
					<path class="st1" d="M167.86,99.91c0,0-4.86-3.8-0.37-7.67c0,0,2.99-1.74,6.42-0.81c0,0,3.99,2.87,0.62,7.42L167.86,99.91z"/>
					<circle class="st2" cx="170.72" cy="95.11" r="2.24"/>
					<circle class="st11" cx="172.34" cy="93.05" r="0.75"/>
				</g>
				<g id="contorno_24_">
					<path class="st10" d="M181.82,95.05c0,0-12.34-11.4-22.87,4.42C158.95,99.47,174.96,102.15,181.82,95.05z"/>
					<path class="st10" d="M173.47,91.18c0.56,0.31,1.06,0.81,1.5,1.37c1.43,1.99,1.12,4.67-0.56,6.42"/>
					<path class="st10" d="M167.86,99.91c-0.56-0.31-1.06-0.81-1.43-1.37c-1.43-1.99-1.12-4.8,0.69-6.54"/>
				</g>
			</g>
		</g>
		<g id="cejas_1_">
			<g id="derecha_1_">
				<g id="color_21_">
					<path class="st0" d="M186.93,81.96c0,0-14.02-9.78-29.04,5.05l0.31,1.25C158.2,88.19,172.28,81.4,186.93,81.96z"/>
				</g>
				<g id="contorno_23_">
					<g>
						<path class="st2" d="M188.42,83.08c-2.24-1.43-4.67-2.68-7.29-3.37c-2.62-0.69-5.3-0.87-7.98-0.5
							c-0.69,0.06-1.31,0.25-1.99,0.37c-0.62,0.19-1.31,0.31-1.93,0.56c-1.31,0.37-2.49,1-3.74,1.56c-2.37,1.25-4.55,2.87-6.61,4.67
							l-0.75,0.69c-0.19,0.06-0.12,0.37,0,0.62c0.06,0.12,0.12,0.25,0.19,0.31c0.06,0.06,0.06,0.06,0.06,0.06l0,0l0.12-0.06
							l0.93-0.37l3.8-1.56c2.56-1,5.11-1.93,7.79-2.62c2.62-0.69,5.36-1.18,8.04-1.43c0.69-0.06,1.37-0.12,2.06-0.12l1-0.06h1
							c1.37-0.06,2.74,0,4.11,0.19v0.31c-1.37,0.06-2.68,0-4.05,0h-1l-1,0.06c-0.69,0.06-1.37,0.06-1.99,0.12
							c-2.68,0.25-5.36,0.75-7.98,1.43c-2.62,0.69-5.17,1.56-7.73,2.56l-3.8,1.56l-0.93,0.37l-0.12,0.06
							c-0.06,0-0.19,0.06-0.25,0.06c-0.19,0-0.31-0.12-0.37-0.19c-0.19-0.19-0.25-0.31-0.37-0.5c-0.06-0.19-0.12-0.37-0.12-0.56
							c0-0.12,0-0.25,0.06-0.37c0.06-0.12,0.19-0.25,0.25-0.31l0.75-0.69c2.06-1.81,4.24-3.49,6.67-4.74
							c1.25-0.62,2.49-1.18,3.8-1.62c0.62-0.25,1.31-0.37,1.99-0.56c0.69-0.12,1.37-0.31,2.06-0.37c2.74-0.37,5.55-0.19,8.23,0.56
							c1.31,0.37,2.62,0.81,3.86,1.43s2.43,1.31,3.43,2.31L188.42,83.08z"/>
					</g>
				</g>
			</g>
			<g id="izquierda_1_">
				<g id="color_20_">
					<path class="st0" d="M104.67,88.75c0,0,11.59-12.59,29.48-1.37l-0.06,1.31C134.08,88.75,118.87,85.08,104.67,88.75z"/>
				</g>
				<g id="contorno_22_">
					<g>
						<path class="st2" d="M103.29,90.12c0.75-1.18,1.74-2.12,2.87-2.99c1.06-0.87,2.24-1.62,3.49-2.24
							c2.43-1.31,5.11-2.06,7.91-2.31c0.69-0.06,1.37-0.06,2.06-0.06c0.69,0.06,1.37,0.06,2.06,0.12c1.37,0.12,2.74,0.44,4.05,0.75
							c2.68,0.75,5.17,1.87,7.54,3.18l0.87,0.5c0.06,0,0.25,0.12,0.31,0.25c0.06,0.12,0.12,0.25,0.12,0.31c0.06,0.19,0,0.44,0,0.62
							c-0.06,0.19-0.06,0.37-0.25,0.56c-0.06,0.12-0.19,0.19-0.31,0.25c-0.06,0-0.19,0-0.25,0h-0.12l-1-0.19l-4.11-0.62
							c-2.68-0.44-5.36-0.75-8.1-0.87c-2.68-0.12-5.42,0-8.1,0.31c-0.69,0.06-1.31,0.19-1.99,0.31l-1,0.19l-1,0.19
							c-1.31,0.25-2.62,0.62-3.99,0.87l-0.06-0.31c1.31-0.5,2.62-0.81,3.93-1.06l1-0.19l1-0.19c0.69-0.12,1.37-0.25,2.06-0.31
							c2.74-0.31,5.48-0.44,8.16-0.31c2.74,0.12,5.42,0.44,8.16,0.87l4.05,0.69l1,0.19h0.12c0.06,0,0,0,0,0s0,0,0.06-0.06
							c0.06-0.06,0.12-0.25,0.12-0.37c0.06-0.31,0-0.62-0.12-0.62l-0.87-0.5c-2.37-1.31-4.86-2.43-7.42-3.12
							c-1.31-0.31-2.62-0.62-3.99-0.75c-0.69-0.06-1.37-0.06-1.99-0.12c-0.69,0-1.37,0-1.99,0.06c-2.68,0.19-5.3,1-7.67,2.24
							c-2.37,1.25-4.49,2.99-6.36,4.86L103.29,90.12z"/>
					</g>
				</g>
			</g>
		</g>
		<g id="boca_1_">
			<g id="color_19_">
				<path class="st12" d="M124.11,141.35l2.31,1.43c0,0,10.59,17.32,23.12,17.95c0,0,13.65,1.62,23.06-17.64l1.99-4.36l-4.55,2.12
					c0,0-9.22,15.46-20.13,15.21c0,0-8.72,1.12-18.13-11.53C131.84,144.53,124.73,142.1,124.11,141.35z"/>
				<path class="st13" d="M176.15,137.92c0,0-12.65,2.18-14.58,1.81c0,0-5.73,0.69-11.28,3.93c0,0-10.97-2.18-13.15-1.81l-1.74,0.31
					c0,0-10.41-0.31-10.97-1c0,0,2.12,2.37,12.9,4.24c0,0,13.71,2.37,16.02,1c0,0,14.15-4.11,22.87-8.29"/>
				<path class="st11" d="M132.21,144.65c0,0,8.91,13.27,19.01,11.09c0,0,9.85,0.12,18.51-14.71c0,0-17.64,6.54-19.76,6.23
					L132.21,144.65z"/>
				<g>
					<path class="st14" d="M165.93,144.22"/>
				</g>
				<g>
					<path class="st14" d="M135.2,146.58"/>
				</g>
			</g>
			<g id="contorno_21_">
				<path class="st10" d="M126.23,142.47c4.05,6.36,13.4,18.57,24.87,18.32c15.46-0.31,23.56-22.06,23.56-22.06"/>
				<path class="st10" d="M176.96,137.61c0,0-21.56,9.66-27.55,9.35c-6.04-0.31-23.31-2.99-25.68-5.98"/>
				<path class="st10" d="M150.03,143.72c0,0,6.79-3.86,13.46-4.11s13.4-1.99,13.4-1.99"/>
				<path class="st10" d="M150.22,143.66c0,0-11.4-2.49-13.9-1.68c-2.49,0.81-12.4-0.87-12.4-0.87"/>
				<path class="st10" d="M131.53,144.15c5.48,7.35,21.38,24.24,38.58-3.68"/>
			</g>
		</g>
		<g id="nariz_1_">
			<g>
				<path class="st2" d="M139.56,107.51c0.12,1.56-0.12,3.18-0.44,4.67c-0.31,1.56-0.75,3.05-1.25,4.55
					c-0.5,1.5-1.06,2.99-1.68,4.42c-0.62,1.43-1.31,2.87-1.99,4.3v-0.06c-0.31,1-0.31,2.12,0,3.12c0.31,1,0.87,1.87,1.68,2.62
					c0.75,0.75,1.74,1.25,2.68,1.74c0.5,0.19,1,0.37,1.5,0.56l1.56,0.44h0.06l0.06,0.06l0,0c0.5,0.44,1,0.81,1.56,1.18
					s1.12,0.69,1.74,0.93c0.62,0.25,1.25,0.44,1.87,0.5c0.62,0.06,1.25,0,1.87-0.25h0.06h0.06l0,0c0.93-0.06,1.87-0.25,2.74-0.44
					c0.87-0.25,1.81-0.5,2.62-0.93c0.81-0.37,1.62-0.87,2.31-1.5c0.69-0.62,1.18-1.37,1.56-2.24l0.31,0.12
					c-0.37,0.87-0.93,1.74-1.62,2.43c-0.69,0.69-1.5,1.18-2.37,1.68c-0.87,0.44-1.74,0.75-2.68,1.06c-0.93,0.25-1.87,0.44-2.87,0.56
					l0,0h0.12c-0.69,0.25-1.43,0.37-2.12,0.31c-0.69-0.06-1.37-0.25-2.06-0.56c-0.62-0.25-1.25-0.62-1.81-1s-1.12-0.81-1.62-1.25
					l0,0l0.12,0.06l-1.62-0.44c-0.56-0.19-1.06-0.37-1.56-0.62c-1-0.5-1.99-1-2.8-1.87c-0.81-0.81-1.5-1.81-1.81-2.87
					c-0.31-1.12-0.31-2.31,0.06-3.43l0,0l0,0c0.75-1.37,1.43-2.8,2.06-4.24c0.62-1.43,1.25-2.87,1.74-4.36
					c0.56-1.5,1.06-2.93,1.37-4.49C139.32,110.63,139.56,109.07,139.56,107.51z"/>
			</g>
			<g>
				<path class="st2" d="M141.37,134.43c-0.62-0.5-1.18-1.12-1.62-1.81c-0.44-0.69-0.81-1.37-1.06-2.12
					c-0.25-0.75-0.44-1.5-0.5-2.31c-0.06-0.81,0-1.56,0.06-2.37h0.25c-0.06,0.75-0.06,1.5,0,2.31c0.06,0.75,0.31,1.5,0.56,2.18
					c0.25,0.69,0.62,1.37,1.06,1.99c0.44,0.62,1,1.18,1.56,1.56L141.37,134.43z"/>
			</g>
		</g>
		<g id="muecas_1_">
			<g id="sombras_2_">
				<path class="st4" d="M178.33,141.1c0,0,0.06-3.55,0.93-5.36c0.12-0.31,0.06-0.69-0.19-0.87c-2.06-1.5-9.53-7.1-11.16-10.47
					c0,0,7.42,7.1,12.53,9.85l0.37,0.56L178.33,141.1z"/>
				<path class="st4" d="M122.43,147.52c0,0-2.93-6.48-3.49-8.23c-0.06-0.25,0-0.5,0.19-0.62c1.31-1,6.92-5.42,8.91-9.22
					c0,0-4.18,5.17-10.16,8.48c-0.06,0.06-0.12,0.12-0.19,0.19l-0.37,0.62L122.43,147.52z"/>
			</g>
			<g id="contorno_20_">
				<g>
					<path class="st2" d="M176.89,146.21c0.5-2.62,1.18-5.17,2.06-7.67c0.19-0.62,0.44-1.25,0.69-1.87
						c0.12-0.31,0.25-0.62,0.44-0.93c0.06-0.12,0.19-0.31,0.25-0.44l0.12-0.25c0.06-0.06,0.06-0.06,0.06-0.12
						c0-0.06,0-0.19-0.06-0.31c0-0.06-0.06-0.06-0.06-0.12c0,0-0.06,0-0.06-0.06l-0.12-0.06l-0.81-0.5
						c-0.56-0.37-1.12-0.75-1.68-1.06c-2.18-1.5-4.3-3.12-6.29-4.86c-1-0.87-1.93-1.81-2.87-2.74c-0.87-1-1.74-1.99-2.49-3.12
						c1.68,2.06,3.61,3.8,5.67,5.48c2.06,1.68,4.18,3.24,6.36,4.67c0.56,0.37,1.06,0.75,1.62,1.12l0.81,0.56l0.12,0.06
						c0.06,0,0.12,0.06,0.12,0.12c0.06,0.06,0.19,0.19,0.19,0.25c0.12,0.19,0.12,0.44,0.06,0.69c0,0.12-0.06,0.25-0.12,0.31
						l-0.12,0.19c-0.06,0.12-0.19,0.25-0.25,0.44c-0.12,0.31-0.31,0.56-0.44,0.87c-0.25,0.62-0.5,1.18-0.75,1.81
						c-0.5,1.25-0.87,2.49-1.31,3.74C177.64,143.66,177.27,144.96,176.89,146.21z"/>
				</g>
				<g>
					<path class="st2" d="M123.17,149.01l-2.12-3.55l-2.06-3.55l-1.06-1.74l-0.56-0.87l-0.12-0.19c-0.06-0.06-0.12-0.19-0.12-0.31
						c-0.06-0.25,0-0.56,0.19-0.75c0.12-0.12,0.25-0.12,0.31-0.19l0.25-0.12l0.44-0.25c0.31-0.19,0.62-0.31,0.87-0.5
						c0.56-0.37,1.12-0.75,1.68-1.12c1.12-0.81,2.18-1.68,3.18-2.56c1-0.93,1.99-1.93,2.93-2.93c1.87-1.99,3.55-4.18,5.17-6.42
						c-0.37,0.56-0.75,1.18-1.06,1.74l-1.18,1.74l-1.25,1.68c-0.44,0.56-0.87,1.06-1.31,1.62c-1.81,2.12-3.86,3.99-6.11,5.67
						c-0.56,0.37-1.12,0.81-1.74,1.12c-0.31,0.19-0.62,0.37-0.93,0.5l-0.5,0.25c-0.12,0.06-0.37,0.19-0.37,0.19
						c-0.06,0.06-0.06,0.12-0.06,0.19c0,0,0,0.06,0.06,0.12l0.12,0.25l0.5,0.87c0.37,0.62,0.69,1.18,1,1.81
						C120.74,144.09,121.99,146.52,123.17,149.01z"/>
				</g>
			</g>
		</g>
		<g id="pelo_2_">
			<g id="color_16_">
				<g id="color_18_">
					<path class="st0" d="M199.33,86.45l-1.31,11.97l-1.56-1.06c-4.99-27.86-15.46-49.73-15.46-49.73
						c-15.39-17.2-25.49-13.21-27.48-12.59c-1.99,0.62-3.61,3.05-3.61,3.05c-2.06,0-2.99,1.12-3.8,0.93
						c-0.81-0.12-2.12,0.37-2.12,0.37c-10.03-11.16-22.68,4.55-22.68,4.55c-8.6,10.28-11.16,27.92-11.16,27.92
						c0.37,15.7-0.56,26.11-1.31,33.22c-0.75,7.1-2.8,13.83-2.8,13.83l-1.43,3.99l-1.06,8.48l0.56,10.84l4.67,26.49l5.42,20.57
						c16.58,63.38-15.27,89.61-15.27,89.61l-3.18,2.49l-5.05,5.23c-3.38,3.76-6.43,8.93-9.12,14.64H50.42
						c0.04-0.31,0.07-0.63,0.11-0.95c-0.09,0.26-0.17,0.52-0.26,0.76l-27.55-0.09c9.41-33.96,12.28-41.85,12.28-41.85
						c0.31-7.98,8.97-32.16,7.91-36.15c-1.06-3.99,19.94-70.17,19.94-70.17l13.09-46.8c0,0,0.25-11.4,7.17-40.51
						c6.98-29.1,24.74-42.56,24.74-42.56C123.8,9.48,136.51,9.73,136.51,9.73c15.83-7.17,22.87-2.12,22.87-2.12
						c16.27,1.18,24.06,19.51,24.06,19.51C197.4,40.7,199.02,64.7,199.02,64.7C199.89,69.68,199.33,86.45,199.33,86.45z"/>
				</g>
				<g id="sombra_5_">
					<path class="st1" d="M125.85,30.05c0,0,13.83-9.29,19.63,6.29C145.48,36.28,141.18,17.83,125.85,30.05z"/>
					<path class="st1" d="M146.42,30.05c0,0-6.11-16.83-23.62-0.25C122.8,29.8,139.44,9.73,146.42,30.05z"/>
					<path class="st1" d="M148.73,34.47c0,0,2.24-14.83-8.48-17.57C140.25,16.9,153.27,17.15,148.73,34.47z"/>
					<path class="st1" d="M152.53,32.98c0,0,4.61-13.02-7.23-19.82C145.3,13.16,160.01,17.15,152.53,32.98z"/>
					<path class="st1" d="M103.17,91.37c0,0-1.68,13.9-3.43,19.88C99.74,111.25,103.42,107.64,103.17,91.37z"/>
					<path class="st1" d="M96.81,151.88c0,0,0.12-22.81,0.12-26.11C96.94,125.71,94.88,135.8,96.81,151.88z"/>
					<path class="st1" d="M88.28,119.16c0,0,3.99-25.86,5.42-40.69C93.7,78.47,87.96,106.64,88.28,119.16z"/>
					<path class="st1" d="M102.67,212.33c0,0-9.04,48.86-15.21,61.38C87.4,273.78,101.36,259.69,102.67,212.33z"/>
					<path class="st1" d="M53.19,229.03c0,0-15.02,47.99-19.38,60.7C33.81,289.73,49.64,256.7,53.19,229.03z"/>
					<path class="st14" d="M66.62,301.26c-0.36,3.47-0.7,6.94-1.03,10.41c-0.09,1.02-0.17,2.03-0.26,3.05
						c0.1-4.75,0.29-9.24,0.54-13.45H66.62z"/>
					<path class="st1" d="M73.77,252c-1.62,6.45-4.65,31.92-6.62,49.26h-1.27c1.44-23.81,5-39.2,6.99-46.23
						C73.23,253.74,73.54,252.73,73.77,252z"/>
					<path class="st1" d="M74.25,250.61c-0.03,0.09-0.21,0.55-0.47,1.39C73.95,251.31,74.1,250.83,74.25,250.61z"/>
					<path class="st1" d="M57.74,247.48c0,0-10.22,29.29-11.9,44.93c0,0,2.62-9.78,7.6-13.02L57.74,247.48z"/>
					<path class="st1" d="M90.02,165.22c0,0-1.18,44.12-8.04,56.4C81.98,221.62,93.64,208.34,90.02,165.22z"/>
					<path class="st1" d="M72.63,180.74c0,0-6.61,34.21-9.53,43C63.1,223.8,71.82,209.84,72.63,180.74z"/>
					<path class="st1" d="M157.2,6.62c0,0-4.24-0.87-9.91,1.81c0,0,6.54-1.5,11.03-1.18L157.2,6.62z"/>
					<path class="st1" d="M186.99,36.03c0,0,0.37-3.49-1.81-7.6l-1.12-0.75L186.99,36.03z"/>
					<path class="st1" d="M185.74,53.42c0,0-1.68-1.68-2.93-2.49l-0.75-1.43l0.81,0.19L185.74,53.42z"/>
				</g>
				<g id="luz_4_">
				</g>
			</g>
			<g id="contorno_18_">
				<g>
					<path class="st2" d="M117.5,20.76c-2.56,2.06-4.99,4.3-7.17,6.73c-2.24,2.37-4.3,4.99-6.23,7.6c-3.8,5.36-6.98,11.09-9.6,17.14
						c-2.74,5.98-4.74,12.21-6.48,18.57c-0.44,1.56-0.87,3.18-1.25,4.74l-1.06,4.8c-0.19,0.81-0.37,1.62-0.5,2.43l-0.44,2.43
						l-0.87,4.86c0.87-6.48,1.87-13.02,3.55-19.38c0.19-0.81,0.37-1.62,0.62-2.37l0.69-2.37l0.69-2.37l0.37-1.18
						c0.12-0.37,0.25-0.75,0.44-1.18l1.68-4.67l1.87-4.55c2.68-5.98,5.92-11.84,9.78-17.14C107.66,29.55,112.21,24.63,117.5,20.76z"
						/>
				</g>
				<g>
					<path class="st2" d="M98.62,165.53c-1.5-7.6-2.37-15.33-2.74-23.06c-0.06-1.93-0.12-3.86-0.12-5.8c0-1.93,0.06-3.86,0.12-5.8
						c0-1,0.12-1.93,0.19-2.93c0.12-0.93,0.12-1.93,0.25-2.87c0.25-1.93,0.5-3.86,0.93-5.73l0.31-1.43l0.12-0.69l0.19-0.69l0.81-2.8
						c0.25-0.93,0.62-1.87,1.06-2.74c0.37-0.87,0.87-1.74,1.18-2.62c0.62-1.81,0.93-3.68,1.18-5.61c0.25-1.93,0.44-3.8,0.56-5.73
						c0.25-3.86,0.31-7.73,0.25-11.59c0-3.86-0.12-7.73-0.25-11.59c0.5,7.73,0.81,15.46,0.44,23.18c-0.06,1.93-0.25,3.86-0.5,5.8
						c-0.25,1.93-0.56,3.86-1.18,5.73c-0.37,0.93-0.81,1.74-1.25,2.68c-0.37,0.87-0.75,1.74-1,2.68l-0.81,2.8l-0.19,0.69l-0.12,0.69
						l-0.31,1.43c-1.56,7.54-1.74,15.33-1.56,23.06c0.12,3.86,0.37,7.73,0.75,11.59C97.5,157.93,98,161.73,98.62,165.53z"/>
				</g>
				<g>
					<path class="st2" d="M87.28,129.14c0.25-5.48,0.69-11.03,1.12-16.51c0.5-5.48,1.12-10.97,1.81-16.45
						c0.75-5.48,1.56-10.91,2.68-16.33c1.12-5.42,2.31-10.78,4.36-15.95L96,67.81l-1,3.99l-0.87,4.05c-0.31,1.37-0.5,2.68-0.75,4.05
						c-1,5.42-1.81,10.84-2.49,16.33c-0.75,5.48-1.37,10.91-1.93,16.39c-0.31,2.74-0.56,5.48-0.81,8.23
						C87.78,123.65,87.53,126.39,87.28,129.14z"/>
				</g>
				<g>
					<path class="st2" d="M187.74,38.9c-0.69-2.37-1.43-4.67-2.37-6.92c-0.93-2.24-1.93-4.42-3.12-6.54
						c-2.37-4.24-5.3-8.16-8.91-11.28c-1.81-1.56-3.8-2.93-5.98-3.93c-2.18-1-4.42-1.81-6.79-2.18c-0.56-0.12-1.18-0.19-1.81-0.25
						c-0.62-0.06-1.18-0.19-1.81-0.12l-1.81-0.06c-0.62,0-1.18,0.06-1.81,0.06c-1.25,0-2.43,0.25-3.61,0.37
						c-0.62,0.06-1.18,0.25-1.81,0.31l-1.81,0.37c4.61-1.56,9.66-2.37,14.58-1.62c4.92,0.69,9.66,2.87,13.46,6.11
						c3.8,3.24,6.73,7.35,8.97,11.78C185.31,29.42,186.86,34.1,187.74,38.9z"/>
				</g>
				<g>
					<path class="st2" d="M146.11,38.77c-0.31-1.25-0.69-2.49-1.12-3.74c-0.44-1.18-1-2.37-1.62-3.49
						c-0.69-1.12-1.37-2.18-2.31-3.05s-1.99-1.62-3.18-1.99c-1.18-0.44-2.43-0.5-3.74-0.37c-1.25,0.19-2.49,0.56-3.68,1.12
						c-0.56,0.25-1.18,0.56-1.74,0.87s-1.12,0.69-1.62,1c-0.56,0.37-1.06,0.75-1.62,1.12c-0.5,0.37-1,0.81-1.56,1.18
						c1.87-1.81,3.93-3.43,6.29-4.61c1.18-0.62,2.43-1,3.8-1.25c1.31-0.19,2.68-0.12,3.99,0.31s2.43,1.25,3.37,2.18
						c0.93,0.93,1.74,2.06,2.31,3.24C144.99,33.66,145.73,36.22,146.11,38.77z"/>
				</g>
				<g>
					<path class="st2" d="M147.23,33.23c-0.37-1.81-1-3.61-1.74-5.3c-0.75-1.68-1.74-3.3-3.12-4.55c-1.31-1.25-3.05-2.06-4.86-2.12
						c-1.81-0.06-3.61,0.5-5.23,1.31c-3.3,1.68-6.11,4.18-8.72,6.79c-1.31,1.31-2.56,2.68-3.8,4.11c-1.25,1.37-2.37,2.87-3.61,4.3
						c2.18-3.05,4.49-5.98,7.04-8.72c2.56-2.74,5.42-5.23,8.79-7.04c1.68-0.81,3.61-1.43,5.55-1.37c1.93,0.12,3.8,1,5.17,2.37
						s2.31,3.05,3.05,4.74C146.42,29.55,146.92,31.36,147.23,33.23z"/>
				</g>
				<path class="st10" d="M153.4,28.86"/>
				<g>
					<path class="st2" d="M147.73,37.65c0.44-1.31,0.81-2.68,1.06-3.99c0.31-1.37,0.5-2.68,0.56-4.05c0.19-2.68,0-5.55-1.37-7.91
						c-1.25-2.37-3.8-3.86-6.42-4.36c-2.68-0.56-5.48-0.44-8.23-0.12c0.69-0.12,1.37-0.25,2.06-0.37c0.69-0.06,1.37-0.12,2.06-0.19
						c0.69,0,1.37-0.06,2.12,0c0.69,0.06,1.37,0.06,2.06,0.25c2.74,0.37,5.48,1.99,6.92,4.49c0.69,1.25,1.06,2.62,1.25,4.05
						c0.19,1.37,0.19,2.8,0,4.18C149.54,32.42,148.79,35.1,147.73,37.65z"/>
				</g>
				<path class="st10" d="M139.94,12.6"/>
				<path class="st10" d="M158.57,29.99"/>
				<path class="st10" d="M152.96,31.17"/>
				<path class="st10" d="M151.03,9.86"/>
				<g>
					<path class="st2" d="M183.37,25.75c2.43,2.18,4.36,4.74,6.11,7.48c0.93,1.31,1.62,2.74,2.37,4.18
						c0.75,1.43,1.37,2.87,2.06,4.36c2.49,5.92,3.99,12.15,4.99,18.45c1.06,6.29,1.18,12.71,1.18,19.07
						c-0.06,1.62-0.19,3.18-0.25,4.8c-0.12,1.56-0.19,3.18-0.31,4.74l-1.12,9.47l-0.69-0.12l1.06-9.47
						c0.12-1.56,0.19-3.18,0.25-4.74s0.19-3.18,0.25-4.74c0-6.29-0.19-12.65-1.25-18.94c-1-6.23-2.49-12.4-4.99-18.26
						c-0.69-1.43-1.31-2.87-1.99-4.3c-0.75-1.37-1.5-2.8-2.37-4.11c-1.68-2.62-3.61-5.17-5.92-7.23L183.37,25.75z"/>
				</g>
				<g>
					<path class="st2" d="M149.91,37.84c0.69-1.18,1.37-2.43,1.93-3.74c0.56-1.25,1.06-2.56,1.5-3.93c0.81-2.68,1.25-5.48,0.69-8.16
						c-0.25-1.37-0.81-2.62-1.56-3.74c-0.81-1.12-1.81-2.06-2.93-2.8l-0.87-0.56c-0.31-0.19-0.62-0.31-0.93-0.5
						c-0.62-0.37-1.25-0.56-1.93-0.81c-0.62-0.25-1.31-0.44-1.99-0.69l-2.06-0.56c2.8,0.37,5.55,1.18,7.98,2.68
						c1.18,0.75,2.31,1.74,3.18,2.93c0.87,1.18,1.43,2.56,1.74,3.93c0.56,2.87,0.06,5.8-0.81,8.48
						C152.9,33.04,151.59,35.59,149.91,37.84z"/>
				</g>
				<path class="st10" d="M22.63,301.08c0,0,12.67-45.56,14.17-46.31"/>
				<g>
					<path class="st2" d="M72.76,182.11c-0.37,7.04-1.12,14.08-2.37,21.06c-0.62,3.49-1.43,6.92-2.43,10.34
						c-0.5,1.68-1.06,3.37-1.68,5.05c-0.31,0.81-0.62,1.68-1,2.49l-1.06,2.43c-0.69,1.62-1.31,3.24-1.81,4.92
						c-0.5,1.68-0.87,3.37-1.31,5.11c-0.44,1.68-0.75,3.43-1.12,5.17c-0.37,1.68-0.69,3.43-1,5.17
						c-2.62,13.83-4.42,27.79-6.23,41.82c-0.65,5.18-1.26,10.37-1.86,15.58h-0.65c0.51-5.3,1.07-10.58,1.64-15.89l0.56-5.23
						l0.62-5.23c0.44-3.49,0.93-6.98,1.37-10.47c1-6.98,1.99-13.96,3.3-20.94c0.31-1.74,0.62-3.49,1.06-5.17
						c0.37-1.74,0.75-3.49,1.18-5.17c0.44-1.68,0.87-3.43,1.37-5.11c0.5-1.68,1.18-3.37,1.87-4.99c3.05-6.36,4.8-13.15,6.23-20
						c1.37-6.92,2.18-13.9,2.68-20.94c0.56-7.04,0.69-14.08,0.69-21.13C73.13,168.02,73.13,175.06,72.76,182.11z"/>
				</g>
				<g>
					<path class="st2" d="M120,226.66c-0.37,9.66-2.12,19.32-5.55,28.42c-0.87,2.24-1.87,4.49-2.93,6.67
						c-1.12,2.18-2.24,4.3-3.55,6.36c-1.31,2.06-2.68,4.05-4.24,5.92s-3.12,3.68-4.99,5.36c-2.56,1.68-4.8,3.8-6.79,6.11
						c-1.99,2.31-3.8,4.86-5.42,7.48c-0.69,1.18-3.65,6.82-4.34,8c-0.44,0.37-0.21,0-0.71,0c0.87-1.68,3.49-6.63,4.43-8.25
						c1.62-2.68,3.43-5.23,5.42-7.67c1.99-2.37,4.3-4.61,6.92-6.36c1.74-1.56,3.24-3.3,4.74-5.17c1.5-1.87,2.8-3.86,4.11-5.86
						c1.31-1.99,2.43-4.11,3.49-6.29c1-2.18,1.99-4.36,2.87-6.61c3.37-8.97,5.05-18.51,5.42-28.11c0.12-4.8-0.06-9.6-0.56-14.33
						l-0.44-3.55c-0.06-0.62-0.12-1.18-0.25-1.81l-0.31-1.74l-0.62-3.55l-0.75-3.49l-0.37-1.74l-1.31-5.23
						c-0.62-2.31-1.37-4.61-1.99-6.92c-1.31-4.67-2.49-9.35-3.55-14.02c-2.18-9.41-4.05-18.88-4.99-28.54
						c-0.25-2.43-0.44-4.8-0.5-7.23c-0.06-2.43,0-4.86,0.25-7.29l0.37-2.8c0.06-0.31,0.12-0.62,0.19-0.87l0.19-0.87
						c0.06-0.31,0.19-0.56,0.31-0.87c0.19-0.62,0.44-1.18,0.62-1.68c0.44-1.12,0.81-2.24,1.12-3.37c0.31-1.12,0.56-2.31,0.81-3.49
						c1-4.67,1.62-9.47,2.06-14.27c0.44-4.8,0.69-9.6,0.75-14.4c0.06-4.8,0.06-9.6-0.19-14.46c-0.06-2.43-0.25-4.8-0.37-7.23
						c-0.06-1.18-0.19-2.43-0.25-3.61c-0.12-1.18-0.19-2.43-0.12-3.61c0.25,1.18,0.31,2.37,0.44,3.61c0.12,1.18,0.25,2.43,0.31,3.61
						c0.12,2.43,0.31,4.8,0.44,7.23c0.25,4.8,0.31,9.66,0.31,14.46s-0.25,9.66-0.62,14.46c-0.37,4.8-1,9.6-1.93,14.33
						c-0.25,1.18-0.5,2.37-0.81,3.55c-0.31,1.18-0.69,2.37-1.12,3.49c-0.25,0.56-0.44,1.12-0.62,1.68
						c-0.06,0.25-0.19,0.56-0.25,0.81l-0.25,0.87c-0.06,0.31-0.12,0.56-0.19,0.87l-0.12,0.87l-0.12,0.87l-0.06,0.87
						c-0.25,2.37-0.25,4.74-0.19,7.17c0.06,2.37,0.25,4.8,0.5,7.17c1,9.53,2.93,19.01,5.11,28.36c1.12,4.67,2.31,9.35,3.61,13.96
						c0.69,2.31,1.43,4.61,2.06,6.92l0.87,3.49l0.44,1.74l0.37,1.74l0.75,3.55l0.62,3.55l0.31,1.81c0.06,0.62,0.12,1.18,0.25,1.81
						l0.44,3.61C119.93,216.94,120.12,221.8,120,226.66z"/>
				</g>
				<g>
					<path class="st2" d="M67.43,301.26"/>
					<path class="st2" d="M67.15,301.26h-0.53c0.45-4.44,0.94-8.89,1.46-13.34c0.93-7.91,1.99-15.83,3.24-23.68
						c0.49-3.07,1-6.14,1.54-9.22c0.84-4.77,1.76-9.53,2.82-14.28c0.87-3.86,1.87-7.79,3.05-11.59c0.56-1.93,1.25-3.8,1.93-5.67
						c0.37-0.93,0.75-1.87,1.18-2.8c0.44-0.93,0.87-1.81,1.31-2.68c1.74-3.55,3.3-7.23,4.42-10.97c0.56-1.87,0.93-3.8,1.18-5.8
						c0.31-1.93,0.56-3.93,0.75-5.92c0.87-7.91,1.06-15.83,0.69-23.81c-0.12-3.99-0.5-7.91-0.93-11.9l-0.37-2.99l-0.44-2.93
						c-0.25-1.99-0.62-3.93-0.93-5.92c1.68,7.79,2.8,15.7,3.3,23.68c0.5,7.98,0.37,15.95-0.37,23.93c-0.19,1.99-0.44,3.99-0.69,5.98
						c-0.25,1.99-0.62,3.99-1.18,5.92c-1.12,3.86-2.68,7.6-4.42,11.16c-0.87,1.81-1.68,3.55-2.37,5.42
						c-0.69,1.87-1.31,3.74-1.87,5.61c-1.12,3.8-2.12,7.67-2.99,11.53c-3.49,15.52-5.73,31.28-7.85,47.05
						c-0.59,4.42-1.14,8.81-1.65,13.21"/>
				</g>
				<g>
					<path class="st2" d="M28.64,299.89c1.62-3.3,3.24-6.61,4.74-9.97c0.75-1.68,1.5-3.37,2.18-5.05l2.12-5.05
						c2.74-6.79,5.3-13.71,7.54-20.69c2.31-6.98,4.18-14.08,5.8-21.19l1.12-5.36c0.37-1.81,0.62-3.61,0.93-5.42l0.5-2.74
						c0.12-0.93,0.25-1.81,0.37-2.74c0.19-1.81,0.44-3.61,0.69-5.48c-0.12,1.81-0.25,3.68-0.37,5.48c-0.06,0.93-0.12,1.81-0.19,2.74
						l-0.31,2.74c-0.25,1.81-0.44,3.68-0.75,5.48l-1,5.42c-1.43,7.23-3.24,14.4-5.55,21.38c-2.31,6.98-4.86,13.9-7.79,20.63
						C35.62,286.99,32.38,293.6,28.64,299.89z"/>
				</g>
				<g>
					<path class="st2" d="M53.38,279.39c-0.69,0.56-1.31,1.31-1.87,2.06l-0.81,1.12l-0.75,1.18c-0.25,0.37-0.44,0.81-0.69,1.25
						c-0.19,0.44-0.44,0.81-0.62,1.25c-0.37,0.87-0.81,1.74-1.06,2.62c-1.25,3.55-2.12,7.29-2.56,11.09l-0.17,1.31h-1.21l0.01-0.12
						l0.19-1.43c0.37-3.86,1.25-7.73,2.62-11.34c0.31-0.93,0.75-1.81,1.18-2.68c0.19-0.44,0.44-0.87,0.69-1.31
						c0.25-0.44,0.44-0.87,0.75-1.25l0.81-1.25l0.93-1.18c0.69-0.75,1.31-1.5,2.18-2.06L53.38,279.39z"/>
				</g>
				<g>
					<path class="st2" d="M81.05,286.74c1.43-3.8,3.12-7.48,4.99-11.09c0.93-1.81,1.99-3.55,3.24-5.23
						c0.31-0.44,0.69-0.81,0.93-1.18c0.25-0.37,0.56-0.75,0.81-1.25c0.25-0.44,0.5-0.87,0.75-1.31l0.62-1.37
						c3.24-7.35,5.23-15.27,6.73-23.18c1.56-7.91,2.43-15.95,2.93-24.06l0.12-1.5l0.06-1.5l0.12-3.05c0.06-1,0.06-1.99,0.12-3.05
						v-3.05c0.12-4.05-0.06-8.1-0.12-12.15c0.31,4.05,0.62,8.1,0.69,12.15l0.06,3.05c0,1,0,2.06,0,3.05v3.05v1.5l-0.06,1.5
						c-0.31,8.1-1.18,16.2-2.68,24.24c-0.44,1.99-0.81,3.99-1.31,5.98l-0.75,2.99l-0.81,2.93c-1.18,3.93-2.43,7.79-4.24,11.47
						l-0.69,1.37c-0.25,0.44-0.5,0.87-0.81,1.31c-0.25,0.44-0.56,0.87-0.87,1.31c-0.31,0.44-0.62,0.81-0.93,1.18
						c-1.25,1.56-2.31,3.3-3.3,5.05C84.54,279.39,82.73,283.06,81.05,286.74z"/>
				</g>
				<g>
					<path class="st2" d="M158.63,7.11c-2.24-0.5-4.55-0.62-6.79-0.56c-2.31,0.06-4.55,0.37-6.79,0.87c-4.42,1-8.72,2.68-12.65,5.05
						c-3.93,2.31-7.54,5.17-10.84,8.29c-0.87,0.75-1.62,1.62-2.43,2.43c-0.81,0.81-1.56,1.68-2.31,2.56l-2.24,2.62
						c-0.69,0.93-1.43,1.81-2.18,2.68c0.62-1,1.25-1.93,1.93-2.87l2.06-2.8c0.75-0.87,1.43-1.81,2.24-2.68
						c0.81-0.87,1.56-1.74,2.37-2.56c3.24-3.37,6.86-6.36,10.91-8.72c3.99-2.37,8.41-4.18,13.02-4.99c4.61-0.81,9.41-0.93,13.9,0.44
						L158.63,7.11z"/>
				</g>
				<g>
					<path class="st2" d="M135.51,9.73c-5.05,0.81-9.97,2.43-14.52,4.67c-4.61,2.24-8.85,5.17-12.65,8.54
						c-7.67,6.73-13.65,15.27-18.26,24.37c-1.12,2.31-2.18,4.61-3.18,6.98c-0.5,1.18-0.93,2.37-1.37,3.55
						c-0.19,0.62-0.44,1.18-0.62,1.81l-0.25,0.87l-0.19,0.93c-1.12,4.99-2.18,10.03-3.18,15.02c-1.99,10.03-3.8,20.13-4.86,30.29
						v0.06v0.06c-1.93,7.17-3.86,14.33-5.86,21.5c-1.99,7.17-4.11,14.27-6.17,21.38c-2.12,7.1-4.24,14.21-6.48,21.31
						c-2.18,7.1-4.49,14.15-6.79,21.19v-0.06c-3.3,13.83-6.42,27.67-9.41,41.57c-1.5,6.92-2.93,13.9-4.24,20.88
						c-0.69,3.49-1.31,6.98-1.87,10.47c-0.31,1.74-0.56,3.49-0.75,5.23c-0.19,1.74-0.44,3.55-0.31,5.3
						c-0.31-1.74-0.25-3.55-0.19-5.36c0.06-1.81,0.31-3.55,0.5-5.3c0.37-3.55,0.93-7.04,1.56-10.53c1.25-6.98,2.62-13.96,4.11-20.94
						c2.99-13.9,6.23-27.73,9.6-41.5l0,0l0,0c2.24-7.04,4.55-14.15,6.67-21.19c2.18-7.1,4.3-14.21,6.42-21.31
						c2.12-7.1,4.18-14.27,6.17-21.38c2.06-7.1,4.05-14.27,5.98-21.44v0.06c1.18-10.22,3.05-20.32,5.05-30.41
						c1-5.05,2.12-10.03,3.24-15.02l0.25-0.93l0.31-0.93c0.19-0.62,0.44-1.25,0.62-1.81c0.44-1.18,0.93-2.43,1.37-3.61
						c1-2.37,2.06-4.74,3.24-7.04c4.67-9.16,10.78-17.7,18.57-24.43c3.86-3.37,8.23-6.29,12.84-8.48c4.67-2.24,9.6-3.74,14.71-4.55
						L135.51,9.73z"/>
				</g>
				<g>
					<path class="st2" d="M153.59,34.85c1.5-0.81,3.18-1.12,4.92-1.18c0.44-0.06,0.87,0,1.25,0c0.44,0,0.87,0,1.31,0.06l1.25,0.19
						l0.62,0.12c0.19,0.06,0.44,0.12,0.62,0.19c3.3,0.87,6.42,2.43,9.1,4.49c0.31,0.25,0.69,0.5,1.06,0.75l1,0.81
						c0.62,0.56,1.31,1.12,1.93,1.68l1.74,1.81c0.56,0.62,1.18,1.18,1.74,1.87c1.06,1.31,2.18,2.62,3.12,3.99
						c0.93,1.37,1.87,2.8,2.8,4.18c-1.12-1.25-2.18-2.56-3.24-3.8l-0.37-0.5L182,49.06l-0.87-0.93l-1.68-1.81
						c-1.12-1.18-2.37-2.31-3.55-3.49l-1.93-1.56l-0.93-0.81c-0.31-0.25-0.69-0.5-1-0.69c-0.69-0.5-1.31-0.93-1.99-1.43l-2.12-1.25
						c-1.43-0.75-2.93-1.43-4.49-1.93c-0.19-0.06-0.37-0.12-0.56-0.19l-0.62-0.12l-1.18-0.25c-0.37-0.06-0.81-0.12-1.18-0.19
						c-0.44-0.06-0.81-0.12-1.25-0.12C156.83,34.16,155.14,34.29,153.59,34.85z"/>
				</g>
				<g>
					<path class="st2" d="M110.09,72.74c0.12-2.43,0.5-4.86,1-7.29c0.56-2.37,1.25-4.74,2.06-7.04c1.68-4.61,3.93-9.04,6.54-13.21
						c2.68-4.18,6.54-7.73,11.22-9.47c2.31-0.87,4.92-1.25,7.35-0.62c2.43,0.69,4.55,2.24,5.86,4.3c-1.5-1.93-3.61-3.3-5.98-3.8
						c-2.37-0.5-4.8-0.06-6.98,0.87c-4.42,1.81-8.16,5.23-10.72,9.29c-2.62,4.11-4.86,8.41-6.67,12.9
						c-0.93,2.24-1.68,4.55-2.31,6.92C110.9,67.94,110.4,70.31,110.09,72.74z"/>
				</g>
				<g>
					<path class="st2" d="M217.84,186.59c-2.62-4.86-4.99-9.85-7.35-14.83c-2.31-4.99-4.49-10.1-6.48-15.21
						c-1.99-5.17-3.74-10.41-5.17-15.7c-0.69-2.68-1.31-5.36-1.74-8.1c-0.44-2.74-0.69-5.48-0.62-8.29h0.56
						c-0.12,2.74,0.19,5.48,0.62,8.16c0.44,2.68,1.06,5.36,1.74,8.04c1.43,5.3,3.18,10.53,5.17,15.64s4.18,10.22,6.48,15.21
						c2.31,4.99,4.74,9.97,7.35,14.77L217.84,186.59z"/>
				</g>
			</g>
		</g>
	</g>
	<g id="fular_1_">
		<g id="color_27_">
			<path class="st15" d="M169.42,243.05c0,0-2.06-4.55-1-6.42l-9.78-3.12c0,0-20.32-4.05-25.68-3.05c-5.36,1-48.23,0.56-50.35-0.75
				c-2.12-1.31-4.61,0.62-20.13-5.11c0,0,4.49-10.1,4.55-11.4c0.06-1.5-17.45-1.43-20.88-0.31c-3.43,1.06-7.98,3.93-7.98,3.93
				l-2.12,3.61l-0.19,1.74c0,0-14.71,1.5-15.39,10.66c-0.69,9.16,10.84,15.89,12.34,16.64l-0.12,1.99c0,0,1.56,14.4,20.63,18.07
				c0,0,22.25,4.74,53.59-7.29c0,0,11.16-4.8,20.44-9.53C127.29,252.59,147.92,243.8,169.42,243.05z"/>
			<path class="st16" d="M177.27,242.87c0,0,0.87-6.54-1-8.04c0,0-0.31-4.86,7.48-4.3l-1.81,6.48L177.27,242.87z"/>
			<path class="st15" d="M208.99,234.83l31.66-1.62l-4.48-31.91l-10.91,6.17C225.25,207.41,217.46,226.54,208.99,234.83z"/>
			<path class="st15" d="M261.77,213.58l5.61,11.16c0,0,16.89-10.16,9.6-23.81c0,0,7.42-10.91,3.55-18.32l-22.19,17.26l0.37,7.6
				L261.77,213.58z"/>
		</g>
		<g id="sombra_2_">
			<path class="st17" d="M32.31,222.83c0,0-1.49,15.28,43.44,19.41c0,0-37.36-4.28-40.07-20.04L32.31,222.83z"/>
			<path class="st17" d="M88.53,254.33c0,0-48.52,14.15-54.21,2.04l-1.94-6.76C32.38,249.61,57.49,260.51,88.53,254.33z"/>
			<path class="st17" d="M55.03,219.62c0,0,2.28,2.4,10.01-1l-2.46,5.56C62.58,224.17,58.8,223.66,55.03,219.62z"/>
			<path class="st17" d="M116.19,246.17c0,0,36.95-9.2,51.43-5.63l0.14-1.36C167.77,239.18,139.79,234.07,116.19,246.17z"/>
			<path class="st17" d="M232.36,221.31c0,0-9.67,3.19-15.1,3.43l0.96-2.34C218.22,222.39,226.49,222.61,232.36,221.31z"/>
			<path class="st17" d="M268.18,224.04c0,0,15.02-8.64,9.07-22.58c0,0-11.92,10.49-14.43,11.24L268.18,224.04z"/>
			<path class="st17" d="M232.36,221.31c-9.62,2.09-14.15,1.02-14.14,1.09c0.55,2.08-0.96,1.16-8.56,12.04l31.64-1l-1.25-14.59
				L232.36,221.31z"/>
		</g>
		<g id="contorno_28_">
			<g>
				<path class="st2" d="M75.75,242.24c-1.99-0.12-4.05-0.37-6.04-0.62c-1-0.12-1.99-0.31-2.99-0.44c-1-0.12-1.99-0.44-2.99-0.69
					c-3.93-0.93-7.85-2.06-11.65-3.49c-3.8-1.43-7.54-3.12-10.91-5.48c-1.68-1.25-3.24-2.62-4.42-4.42
					c-0.56-0.87-1.06-1.87-1.31-2.93c-0.25-1.06-0.31-2.18-0.19-3.24v0.06c0-0.44,0.06-0.75,0.19-1.12c0.12-0.37,0.19-0.69,0.37-1
					c0.31-0.62,0.69-1.25,1.06-1.81c0.87-1.12,1.93-1.99,3.12-2.68c2.37-1.37,4.92-2.12,7.54-2.62c5.23-0.93,14.58-0.06,19.76,0.37
					l-0.31,1c-2.56-0.19-9.04-0.87-11.59-0.87c-2.56,0.06-5.17,0.25-7.67,0.69c-2.49,0.44-4.99,1.18-7.1,2.43
					c-1.06,0.62-2.06,1.43-2.8,2.37c-0.37,0.5-0.69,1-0.93,1.56c-0.12,0.25-0.19,0.56-0.31,0.81c-0.06,0.25-0.12,0.62-0.12,0.81
					v0.06l0,0c-0.25,1.87,0.25,3.74,1.25,5.36c1.06,1.62,2.49,2.93,4.05,4.11c3.18,2.31,6.86,3.93,10.59,5.36
					c3.74,1.37,7.6,2.49,11.53,3.43c1,0.25,1.99,0.44,2.93,0.69c1,0.25,1.93,0.56,2.93,0.81C71.82,241.31,73.76,241.81,75.75,242.24
					z"/>
			</g>
			<g>
				<path class="st2" d="M88.53,254.33c-1.99,0.5-4.05,0.87-6.11,1.25c-2.06,0.31-4.11,0.62-6.17,0.87
					c-4.11,0.31-8.29,0.44-12.4,0.37c-8.29-0.19-16.64-1.12-24.55-3.86c-3.93-1.37-7.73-3.24-11.09-5.86
					c-1.68-1.31-3.24-2.74-4.55-4.36c-0.31-0.44-0.69-0.81-1-1.25c-0.31-0.44-0.62-0.87-0.87-1.31c-0.31-0.44-0.56-0.87-0.81-1.37
					c-0.25-0.44-0.5-0.93-0.75-1.5c-0.37-1.06-0.62-2.12-0.56-3.24c0-0.56,0.06-1.12,0.19-1.68c0.12-0.5,0.25-1.06,0.44-1.56
					c0.62-2.06,1.93-3.99,3.68-5.3c1.68-1.37,3.68-2.24,5.67-2.93c1.99-0.62,4.11-1,6.17-1.25l0.12,1.18
					c-1.99,0.25-4.05,0.62-5.92,1.25c-1.93,0.62-3.74,1.43-5.3,2.68c-1.5,1.25-2.68,2.87-3.24,4.74c-0.12,0.44-0.25,0.93-0.37,1.43
					c-0.12,0.5-0.19,0.93-0.19,1.43c0,0.93,0.19,1.93,0.5,2.8c0.19,0.44,0.37,0.87,0.62,1.31c0.25,0.44,0.5,0.87,0.81,1.31
					c0.25,0.44,0.56,0.81,0.87,1.25c0.31,0.44,0.62,0.81,0.93,1.18c1.31,1.56,2.74,2.93,4.36,4.18c3.18,2.49,6.92,4.3,10.72,5.61
					c7.73,2.68,15.95,3.61,24.18,3.8c4.11,0.06,8.23-0.06,12.28-0.37C80.3,255.08,84.41,254.83,88.53,254.33z"/>
			</g>
			<path class="st5" d="M169.42,243.05c0,0-25.99,0.19-49.42,13.21c-23.43,12.96-83.51,27.11-87.68-7.17"/>
			<ellipse class="st16" cx="172.78" cy="238.88" rx="4.74" ry="5.92"/>
			<path class="st5" d="M176.27,233.89c0,0,2.24-4.92,7.48-3.24"/>
			<g>
				<path class="st2" d="M232.36,221.31c-2.37,0.56-4.74,1-7.1,1.37c-1.18,0.19-2.37,0.37-3.61,0.44c-0.62,0.06-1.25,0.06-1.87,0.06
					c-0.62,0-1.25-0.06-1.99-0.31l0.5-1.12c0.44,0.19,1,0.31,1.56,0.37c0.56,0.06,1.18,0.06,1.74,0.06c1.18,0,2.37-0.06,3.55-0.12
					C227.62,221.93,229.99,221.62,232.36,221.31z"/>
			</g>
			<path class="st5" d="M236.56,200.45c0,0-10.18,7.39-11.31,6.96"/>
			<path class="st5" d="M240.65,233.21c0,0-17.2,1.12-31.91,1.37"/>
			<g>
				<path class="st2" d="M167.8,236.82c-4.42-1.68-9.16-2.8-13.83-3.74c-4.74-0.87-9.47-1.5-14.27-1.81
					c-4.8-0.31-9.6-0.37-14.4-0.19c-4.86,0.19-9.66,0.31-14.52,0.37c-9.66,0.06-19.38-0.12-29.04-1.31c-4.8-0.62-9.6-1.5-14.27-2.93
					c-2.31-0.81-4.55-1.81-6.67-3.05c-2.12-1.25-4.11-2.74-5.67-4.55c3.55,3.3,8.16,5.11,12.71,6.36c4.55,1.43,9.29,2.31,14.08,2.93
					c9.53,1.18,19.19,1.43,28.85,1.31c4.8-0.06,9.66-0.19,14.46-0.37c4.86-0.19,9.72-0.12,14.58,0.19
					c4.86,0.31,9.66,0.93,14.46,1.81c4.8,0.93,9.47,2.06,14.08,3.8L167.8,236.82z"/>
			</g>
			<g>
				<path class="st2" d="M167.92,239.75c-4.3-0.69-8.72-1-13.09-1.06c-4.42-0.06-8.79,0.19-13.15,0.69c-2.18,0.19-4.36,0.62-6.54,1
					c-1.06,0.19-2.12,0.5-3.24,0.69l-1.62,0.37l-1.56,0.44l-3.18,0.93c-1.06,0.37-2.06,0.75-3.12,1.06c-0.5,0.19-1.06,0.31-1.56,0.5
					l-1.56,0.62c-1,0.37-2.06,0.81-3.12,1.18c1-0.5,1.93-1.06,2.93-1.56l1.5-0.75c0.5-0.25,1-0.44,1.56-0.62
					c1.06-0.44,2.06-0.81,3.12-1.18s2.12-0.69,3.18-1l1.62-0.5l1.62-0.37c1.06-0.25,2.18-0.56,3.24-0.75
					c2.18-0.37,4.36-0.87,6.61-1.12c4.42-0.62,8.85-0.87,13.34-0.81l3.37,0.06c1.12,0.06,2.24,0.12,3.3,0.19
					c2.24,0.19,4.42,0.44,6.67,0.81L167.92,239.75z"/>
			</g>
			<path class="st5" d="M267.26,224.55c0,0,17.08-8.35,9.97-23.99"/>
			<path class="st5" d="M261.59,213.33c0,0,24.3-11.34,19.44-30.72"/>
		</g>
	</g>
	<g id="manos_1_">
		<g id="color_26_">
			<g>
				<path class="st15" d="M229.14,300.99l17.39-0.29l-2.49-16.06c0.06,0-12.99,15.42-16.17,16.23L229.14,300.99z"/>
			</g>
			<g>
				<path class="st15" d="M298.69,300.97l-51.01-0.1l-2.62-17.64l2.61-4.74c4.93-15.02-4.92-30.66-4.92-30.66
					c1-5.17-7.54-57.21-7.54-57.21l0.42-0.78l2.82-2.46l7.6-4.05l14.9-3.92l2.24-1.81l1.43-0.44l4.86-3.42l0.75-2.62l-3.86-1.37
					l-11.72,0.18l-7.31-1.71l1.05-1.95l3.64-0.26l5.49-1.12l3.55-2.12l0.5-1.5l-1-1.37l-8.91,0.34l0.25-0.46l11.4-13.22
					c0,0,1.62-3.24,3.43-3.8s3.55,3.18,3.55,3.18l2.31-4.86l-0.93-4.74c-5.05-7.16-4.3-16.45-2.93-17.63
					c1.37-1.19,4.48,3.24,4.48,3.24s2.68-7.17,5.43-5.86c2.74,1.31,1.05,12.53,1.05,12.53s4.62,5.92,6.86,11.46
					c2.24,5.55,2.87,15.83,2.87,15.83l1.74-3.74l1.81-15.51c2.68-6.49,4.36-4.18,4.36-4.18c1.68,5.11,0.25,21.56,0.25,21.56
					c-3.93,12.9-12.03,24.81-12.03,24.81c-6.91,7.1-27.6,20.69-25.86,20.87c1.75,0.19,2.68,3.24,2.68,3.24l-2.24,3.99
					C278.52,241.54,298.69,300.97,298.69,300.97z"/>
			</g>
			<g>
				<path class="st15" d="M270.23,171.12l-0.75,2.62l-4.86,3.42l-1.43,0.44l-2.24,1.81l-14.9,3.92l-7.6,4.05l-2.82,2.46l-5.1,4.46
					l-5.29,13.27l-6.42,13.28c0,0-9.29,14.08-12.22,15.7c-2.92,1.56-4.42,3.37-4.42,3.37l-1.56,4.24l-20.85,56.82l-97.18-0.11l1.5-3
					l0.68-1.24c9.6-8.17,31.47-24.87,44.81-19.69l2.68,2.18l0.81,13.4l41.63-46.31l8.29-10.4c0,0,1.68-10.72,3.55-12.59
					s15.95-43.25,21-50.42l1.18-1.62l20.44-8.91l4.99-1.37l17.51-0.66l8.91-0.34l1,1.37l-0.5,1.5l-3.55,2.12l-5.49,1.12l-3.64,0.26
					l-5.77,0.42l0.32,0.5l4.4,1.03l7.31,1.71l11.72-0.18L270.23,171.12z"/>
			</g>
		</g>
		<g id="sombras_1_">
			<g>
				<path class="st17" d="M104.43,282.77c0,0,1.89,12.78,9.98,17.95l-32.23,0.25c0,0,0.73-1.6,1.51-2.93
					C84.36,296.9,102.21,282.42,104.43,282.77z"/>
			</g>
			<g>
				<path class="st17" d="M246.99,300.49"/>
			</g>
			<g>
				<path class="st17" d="M236.49,188.74c0,0,3.1-2.53,3.24-2.04c2.85,9.49,12.22,88.68,29.3,114.27h-21.98l-2.5-17.44
					c0,0,10.09-10.46-2.11-33.95c0,0-3.92-46.19-7.56-59.08"/>
			</g>
			<g>
				<path class="st17" d="M201.74,240.15c0,0-0.76,0.55-5.23,1.33c0,0-14.09,43.95-34.48,59.54l17.74-0.04
					C179.77,300.98,201.09,246.47,201.74,240.15z"/>
			</g>
			<g>
				<path class="st17" d="M222.31,183.96c0,0,12.37-5.41,21.19-8.85C243.5,175.11,233.65,181.96,222.31,183.96z"/>
			</g>
			<g>
				<path class="st17" d="M214.02,177.66c0,0,10.93-4.11,22.53-7.05C236.55,170.61,224.01,175.98,214.02,177.66z"/>
			</g>
			<g>
				<path class="st17" d="M245.55,167.8c0,0-2.76,1.99-9,2.8l16.2-0.62L245.55,167.8z"/>
			</g>
			<g>
				<path class="st17" d="M261.13,161.76c0,0-7.53,4.13-27.15,4.47C233.98,166.23,257.17,167.24,261.13,161.76z"/>
			</g>
			<g>
				<path class="st17" d="M263.23,177.02c0,0-5.78,1.75-13.46,3.15c-2.91,0.53-5.71,1.58-8.23,3.12
					c-4.5,2.75-10.98,7.29-11.81,11.13l7.61-6.01l7.04-4.64l6.97-1.5C251.34,182.28,262.56,180.13,263.23,177.02z"/>
			</g>
			<g>
				<path class="st17" d="M281.08,167.32c0,0,6.34-14.49,1.63-31.11c0,0,5.28,3.17,4.79,12.74l0.68,7.45L281.08,167.32z"/>
			</g>
			<g>
				<path class="st17" d="M272.41,123.55c0,0-0.1,0.1-0.22,0.33c-0.47,0.84-1.41,3.45,0.22,9.34c2.07,7.5,7.78,15.32,6.61,28.92
					c0,0,3.6-11.41,0.16-17.77c0,0-5.47-13.26-5.4-15.13C273.77,129.24,274.2,124.67,272.41,123.55z"/>
			</g>
			<g>
				<path class="st17" d="M273.62,121l0.91,1.7c0,0,2.32-1.46,4.73,3.76l-0.68,1.41l-2.5-2.93l-1.02-1l-1.68,0.99l-0.97-2.54
					L273.62,121z"/>
			</g>
			<g>
				<path class="st17" d="M235.31,194.07c0,0,8.32-6.89,11.74-7.94s14.31-0.27,19.15-6.22c0,0,10.79-7.6,4.64-8.99l-0.85,1.95
					c0,0-2.45,3.41-6.52,4.8c0,0-2.4,3.72-17.35,5.63l-11.39,7.35L235.31,194.07z"/>
			</g>
			<g>
				<path class="st17" d="M249.72,166.85c0,0,15.77-3.98,17.23-1.19c1.46,2.79-2.83,3.58-2.83,3.58l-9.96,1.1l-9.86-2.84v-0.59
					L249.72,166.85z"/>
			</g>
			<g>
				<path class="st17" d="M254.86,200.79c0,0,30.2-22.55,38.68-39.81l-7.21,17.46l-27.94,21.09"/>
			</g>
			<g>
				<path class="st17" d="M257.66,200.55c0,0,3.36,2.3-6.25,10.62c0,0,9.81-3.93,10.18-8.4c0,0-0.5-2.82-2.7-3.34L257.66,200.55z"/>
			</g>
		</g>
		<g id="contorno_27_">
			<g>
				<g>
					<path class="st2" d="M287.74,157.03c-0.25-3.12-0.56-6.29-1-9.41c-0.19-1.56-0.44-3.12-0.75-4.61
						c-0.06-0.37-0.19-0.75-0.25-1.12c-0.12-0.31-0.19-0.69-0.37-1c-0.31-0.69-0.69-1.37-1.06-2.06c-1.56-2.68-3.37-5.3-5.11-7.91
						l-2.68-3.93c-0.44-0.69-0.87-1.37-1.31-1.68c-0.12-0.06-0.19-0.12-0.19-0.12h0.12c-0.06,0-0.25,0.31-0.31,0.62
						c-0.19,0.62-0.31,1.37-0.31,2.12c-0.06,0.75-0.06,1.5,0,2.24c0,0.37,0.06,0.75,0.12,1.12c0,0.19,0.06,0.31,0.12,0.5l0.19,0.5
						c0.25,0.75,0.56,1.43,0.87,2.18c1.25,2.93,2.56,5.8,3.74,8.79l0.25,0.56c0.06,0.19,0.12,0.5,0.19,0.62l0.25,1.18
						c0.19,0.81,0.31,1.56,0.44,2.37c0.25,1.56,0.44,3.18,0.5,4.8s0,3.24-0.31,4.86c-0.31,1.62-0.87,3.18-1.87,4.49l0,0
						c0.44-1.56,0.69-3.05,0.75-4.61c0.12-1.56,0.12-3.12,0.06-4.61c-0.06-1.56-0.25-3.12-0.56-4.61c-0.12-0.75-0.31-1.56-0.44-2.31
						l-0.25-1.12c-0.06-0.25-0.06-0.31-0.12-0.5l-0.19-0.56c-1.18-2.87-2.56-5.8-3.8-8.66c-0.31-0.75-0.62-1.43-0.93-2.24
						l-0.25-0.62c-0.06-0.25-0.12-0.5-0.19-0.69c-0.06-0.44-0.12-0.87-0.19-1.25c-0.06-0.81-0.06-1.62-0.06-2.49
						c0.06-0.81,0.12-1.68,0.37-2.56c0.19-0.44,0.31-0.93,0.87-1.43c0.31-0.25,0.81-0.37,1.25-0.31c0.37,0.06,0.69,0.25,0.87,0.44
						c0.81,0.69,1.18,1.43,1.62,2.06l2.68,3.93c1.81,2.62,3.55,5.23,5.17,8.04c0.37,0.69,0.81,1.43,1.12,2.18
						c0.19,0.37,0.31,0.81,0.44,1.25c0.12,0.37,0.19,0.81,0.25,1.18c0.31,1.62,0.5,3.18,0.69,4.74c0.37,3.18,0.62,6.36,0.75,9.53
						L287.74,157.03z"/>
				</g>
			</g>
			<g>
				<g>
					<path class="st2" d="M271.73,156.85c0-2.06,0.06-4.11,0.12-6.11c0.06-2.06,0.06-4.05-0.12-6.04s-0.5-3.99-1-5.92
						c-0.25-0.93-0.62-1.87-1-2.8l-0.31-0.69l-0.37-0.62c-0.25-0.44-0.5-0.93-0.75-1.37c-1.93-3.74-2.74-8.16-1.93-12.4
						c0.12-0.56,0.25-1.06,0.5-1.68c0.12-0.31,0.31-0.56,0.62-0.87c0.31-0.25,0.81-0.44,1.25-0.37c0.87,0.12,1.31,0.56,1.74,0.93
						s0.75,0.81,1.12,1.25c1.25,1.74,2.24,3.55,2.93,5.61l-1.18,0.37c-0.31-0.93-0.75-1.81-1.25-2.68c-0.5-0.87-1-1.74-1.62-2.49
						c-0.31-0.37-0.62-0.75-0.93-1.06c-0.31-0.31-0.75-0.5-0.93-0.5c-0.06,0-0.12,0-0.19,0.06c-0.06,0.06-0.19,0.19-0.25,0.37
						c-0.19,0.37-0.31,0.81-0.37,1.31c-0.75,3.86,0.06,7.91,1.81,11.47c0.19,0.44,0.44,0.87,0.69,1.31l0.37,0.69l0.31,0.75
						c0.44,1,0.75,1.99,1,2.99c0.56,2.06,0.81,4.11,0.93,6.17C273.22,148.68,273.1,152.86,271.73,156.85z"/>
				</g>
			</g>
			<g>
				<path class="st2" d="M280.01,129.35l-1.99-0.21c0.01-0.07,0.79-7.44,0.26-10.5c-0.17-0.97-0.53-1.44-0.81-1.48
					c-0.56-0.06-2.15,1.02-4.15,5.63l-1.83-0.79c2.07-4.77,4.17-7.06,6.22-6.82c1.28,0.15,2.23,1.32,2.54,3.12
					C280.83,121.63,280.05,129.03,280.01,129.35z"/>
			</g>
			<g>
				<path class="st2" d="M258.48,160.71l-1.17-1.62c0.11-0.08,10.65-7.79,13.45-19.12l1.94,0.48
					C269.72,152.51,258.94,160.38,258.48,160.71z"/>
			</g>
			<g>
				<g>
					<path class="st2" d="M126.52,298.62c4.86-5.23,9.72-10.47,14.58-15.7c4.86-5.23,9.66-10.47,14.46-15.77
						c4.8-5.3,9.53-10.59,14.27-15.95c2.37-2.68,4.67-5.42,6.92-8.16c1.12-1.37,2.24-2.74,3.3-4.18c0.56-0.69,1.06-1.43,1.56-2.12
						c0.25-0.37,0.5-0.75,0.75-1.12c0.25-0.37,0.31-0.75,0.75-1.06l0.5,0.19c0.06,0.5-0.25,0.93-0.5,1.31
						c-0.25,0.37-0.5,0.81-0.75,1.12c-0.5,0.75-1.06,1.5-1.56,2.18c-1.06,1.43-2.18,2.8-3.3,4.24c-2.24,2.8-4.55,5.48-6.92,8.23
						c-4.67,5.42-9.41,10.78-14.15,16.08c-4.8,5.3-9.6,10.59-14.4,15.89c-4.86,5.23-9.66,10.47-14.58,15.7L126.52,298.62z"/>
				</g>
			</g>
			<g>
				<path class="st2" d="M180.44,301.63l-1.86-0.74c0.2-0.5,19.92-50.36,22.19-61.24l1.96,0.41
					C200.43,251.11,181.25,299.57,180.44,301.63z"/>
			</g>
			<g>
				<g>
					<path class="st2" d="M133.69,292.89h-1.25c-0.25-3.12-0.5-6.17-0.69-9.29c-0.06-0.75-0.06-1.56-0.06-2.37v-1.18
						c0-0.19,0.06-0.5,0.06-0.62c0-0.06-0.06-0.12-0.06-0.12c-0.31-0.5-0.87-0.93-1.5-1.31c-0.62-0.37-1.31-0.62-1.99-0.87
						c-2.87-0.81-5.98-0.62-8.91,0c-2.99,0.62-5.86,1.68-8.66,2.93c-2.8,1.25-5.48,2.74-8.16,4.36c-2.62,1.62-5.17,3.37-7.73,5.11
						c-1.25,0.87-2.49,1.87-3.74,2.74l-3.68,2.87l-3.63,2.91c0.37-0.69,0.71-1.47,1.14-2.15c0.5-0.44,1.43-1.01,1.93-1.45l3.61-2.93
						c1.25-0.93,2.43-1.93,3.74-2.8c5.05-3.68,10.28-7.1,16.02-9.72c2.87-1.31,5.8-2.37,8.91-3.05c1.56-0.31,3.12-0.56,4.74-0.56
						s3.24,0.12,4.8,0.56c0.75,0.25,1.56,0.56,2.24,1c0.37,0.19,0.69,0.44,1.06,0.75c0.31,0.31,0.62,0.56,0.87,1
						c0.06,0.12,0.12,0.19,0.19,0.37c0,0.06,0.06,0.12,0.06,0.25v0.31c0,0.25-0.06,0.31-0.06,0.56v1.12c0,0.75,0.06,1.56,0.06,2.31
						C133.19,286.72,133.44,289.77,133.69,292.89z"/>
				</g>
			</g>
			<g>
				<g>
					<path class="st2" d="M235.33,190.5c0.93,4.86,1.81,9.78,2.62,14.64c0.81,4.92,1.56,9.78,2.24,14.71
						c0.69,4.92,1.31,9.85,1.81,14.77l0.37,3.74l0.25,3.74c0.06,1.25,0.12,2.49,0.19,3.74s0.12,2.49-0.5,3.74l0,0
						c-0.31-0.62-0.37-1.25-0.44-1.87c-0.06-0.62,0-1.25-0.06-1.87c-0.06-1.25-0.12-2.49-0.19-3.68l-0.31-3.68l-0.37-3.68
						c-0.56-4.92-1.25-9.85-1.99-14.71c-0.69-4.92-1.5-9.78-2.31-14.71c-0.81-4.92-1.62-9.78-2.43-14.64L235.33,190.5z"/>
				</g>
			</g>
			<g>
				<g>
					<path class="st2" d="M196.51,241.48c1.25-0.25,2.37-0.75,3.49-1.25l0.81-0.37l0.81-0.44c0.56-0.31,1.06-0.56,1.56-0.93
						l1.5-1.06l1.43-1.18l0.69-0.56c0.25-0.19,0.44-0.44,0.69-0.62l1.31-1.31c3.43-3.55,6.17-7.73,8.72-11.97l1.81-3.24
						c0.62-1.06,1.18-2.18,1.74-3.3l1.62-3.37l0.81-1.68l0.75-1.74l1.43-3.43c0.5-1.12,1-2.31,1.37-3.49l2.62-6.98l0.06-0.12
						l0.06-0.06l0,0c3.49-3.74,7.35-7.04,11.78-9.53c0.56-0.31,1.12-0.62,1.68-0.87c0.56-0.25,1.18-0.56,1.74-0.75l0.87-0.37
						c0.31-0.12,0.62-0.19,0.93-0.25l0.93-0.25l0.93-0.19c2.43-0.56,4.86-1.12,7.42-1.56c1.18-0.19,2.37-0.5,3.43-1
						c1.06-0.5,2.18-1.12,2.93-1.87c0.37-0.37,0.56-0.81,0.5-1.18c0-0.12-0.06-0.19-0.06-0.31c-0.06-0.12-0.12-0.19-0.19-0.25
						c-0.12-0.12-0.31-0.25-0.56-0.37c-1-0.37-2.24-0.5-3.49-0.56c-2.43-0.06-4.92,0.06-7.42,0.31c-2.49,0.25-4.99,0.56-7.42,0.93
						l0,0l0.19-0.06c-3.49,1.62-7.04,3.18-10.59,4.55c-1.81,0.69-3.61,1.37-5.42,1.99c-0.93,0.31-1.87,0.56-2.8,0.81
						c-0.5,0.12-0.93,0.25-1.43,0.31c-0.5,0.06-1,0.12-1.43,0.06c0.5,0.06,0.93-0.06,1.43-0.19c0.44-0.12,0.93-0.25,1.37-0.44
						c0.93-0.31,1.81-0.69,2.68-1c1.81-0.75,3.55-1.5,5.3-2.31c1.74-0.81,3.49-1.62,5.23-2.43l5.17-2.49l0.06-0.06h0.06l0,0
						c2.49-0.37,4.99-0.75,7.48-1c2.49-0.25,5.05-0.44,7.6-0.31c1.31,0.06,2.56,0.12,3.93,0.69c0.31,0.19,0.69,0.31,1,0.69
						c0.19,0.19,0.25,0.37,0.37,0.56c0.06,0.19,0.19,0.37,0.19,0.62c0.06,0.44,0,0.87-0.12,1.25c-0.19,0.37-0.37,0.69-0.62,0.93
						c-1,1.06-2.12,1.68-3.37,2.18c-1.18,0.5-2.49,0.87-3.74,1.06c-2.43,0.44-4.86,1-7.29,1.56l-0.93,0.19l-0.87,0.25
						c-0.31,0.06-0.56,0.19-0.87,0.25l-0.87,0.31c-0.56,0.19-1.12,0.44-1.68,0.75c-0.56,0.25-1.12,0.56-1.62,0.87
						c-4.3,2.43-8.1,5.67-11.47,9.29l0,0l0.12-0.19l-2.56,7.04c-0.44,1.18-0.87,2.37-1.37,3.49l-1.43,3.49l-0.75,1.74l-0.81,1.68
						l-1.62,3.37c-0.5,1.12-1.18,2.24-1.74,3.3l-1.81,3.3c-2.68,4.24-5.55,8.41-9.1,12.03l-1.37,1.31
						c-0.25,0.19-0.44,0.44-0.69,0.62l-0.75,0.62l-1.5,1.18l-1.56,1.06c-0.5,0.37-1.06,0.69-1.68,0.93
						c-0.31,0.12-0.56,0.31-0.87,0.44l-0.87,0.37C199.13,241.41,197.82,241.73,196.51,241.48L196.51,241.48z"/>
				</g>
			</g>
			<g>
				<g>
					<path class="st2" d="M214.02,177.66c1.93-0.44,3.8-0.93,5.67-1.5c1.87-0.56,3.74-1.12,5.61-1.68c1.87-0.56,3.68-1.25,5.55-1.87
						l5.55-1.93l0.12-0.06h0.06c3.68-0.37,7.29-0.62,10.97-0.87c3.68-0.25,7.35-0.44,11.03-0.5c1.81-0.06,3.68-0.06,5.55,0
						c0.93,0.06,1.81,0.06,2.8,0.12c0.93,0.12,1.93,0.25,2.87,0.69c0.5,0.25,1.06,0.62,1.25,1.31c0.12,0.31,0.12,0.69,0.06,1
						c-0.06,0.12-0.06,0.31-0.12,0.44c-0.06,0.12-0.12,0.25-0.19,0.37c-0.56,0.93-1.31,1.56-2.06,2.18
						c-0.75,0.56-1.56,1.12-2.37,1.56c-0.44,0.25-0.87,0.44-1.31,0.62c-0.25,0.06-0.44,0.19-0.69,0.25
						c-0.25,0.06-0.5,0.12-0.93,0.12l0.19-1.25c0.06,0,0.25,0,0.44-0.06c0.19-0.06,0.37-0.12,0.56-0.19
						c0.37-0.19,0.81-0.37,1.18-0.56c0.75-0.44,1.5-0.87,2.24-1.43c0.69-0.56,1.31-1.12,1.74-1.81c0.37-0.69,0.25-1-0.44-1.37
						c-0.69-0.31-1.56-0.44-2.43-0.56c-0.87-0.06-1.81-0.06-2.68-0.12c-1.81-0.06-3.61-0.06-5.48,0c-3.68,0.06-7.29,0.25-10.97,0.5
						c-3.68,0.25-7.29,0.56-10.91,0.87l0,0l0.19-0.06c-0.93,0.37-1.81,0.75-2.74,1.12c-0.93,0.37-1.87,0.69-2.8,1
						c-1.87,0.62-3.74,1.25-5.67,1.74c-1.93,0.5-3.8,1-5.73,1.31C218.01,177.41,216.01,177.66,214.02,177.66z"/>
				</g>
			</g>
			<g>
				<g>
					<path class="st2" d="M214.27,172.86c3.3-1.25,6.61-2.31,9.91-3.43l4.99-1.56c0.81-0.25,1.62-0.56,2.43-0.87
						c0.44-0.19,0.75-0.31,1.25-0.5c0.5-0.19,0.93-0.25,1.37-0.31c1.81-0.25,3.61-0.12,5.36,0.06c1.74,0.19,3.49,0.44,5.23,0.75
						c3.43,0.62,6.86,1.43,10.22,2.31l-0.31,1.18c-3.37-0.87-6.73-1.68-10.1-2.31c-1.68-0.31-3.43-0.56-5.11-0.75
						c-1.68-0.19-3.43-0.25-5.05-0.06c-0.37,0.06-0.81,0.12-1.18,0.25c-0.31,0.12-0.81,0.31-1.18,0.5
						c-0.81,0.31-1.62,0.62-2.49,0.93c-1.68,0.56-3.3,1.12-4.99,1.56c-1.68,0.44-3.37,0.87-5.11,1.18l-2.56,0.5
						C216.01,172.55,215.14,172.74,214.27,172.86z"/>
				</g>
			</g>
			<g>
				<g>
					<path class="st2" d="M238.82,166.13c2.56-0.06,5.17-0.25,7.73-0.37c2.56-0.19,5.17-0.31,7.6-0.75
						c1.18-0.25,2.43-0.62,3.61-1.06c1.12-0.44,2.18-1.06,2.8-2.06c0.19-0.25,0.31-0.5,0.37-0.69c0.06-0.12,0.06-0.19,0.06-0.19
						c0-0.06,0-0.06-0.06-0.06l-0.06-0.06c0,0-0.06-0.06-0.12-0.06c-0.06-0.06-0.19-0.06-0.31-0.12c-0.12-0.06-0.25-0.06-0.44-0.06
						c-0.12,0-0.31-0.06-0.44-0.06c-1.18-0.06-2.49,0.06-3.74,0.19h-0.06h-0.06c-5.11-0.06-10.28,0-15.39,0.25
						c-1.25,0.06-2.56,0.12-3.8,0.25c-0.62,0.06-1.25,0.12-1.87,0.25c-0.62,0.12-1.25,0.25-1.81,0.37c-2.43,0.62-4.86,1.5-7.23,2.43
						c-4.74,1.87-9.41,4.11-13.96,6.42l-1.68,0.87c-0.62,0.31-1.06,0.5-1.37,0.93c-0.19,0.19-0.31,0.44-0.44,0.69l-0.37,0.87
						l-0.81,1.74l-3.18,7.04c-4.18,9.35-8.23,18.82-12.03,28.36c-1.87,4.8-3.68,9.6-5.3,14.4c-0.81,2.43-1.56,4.86-2.18,7.35
						c-0.31,1.25-0.62,2.49-0.87,3.74s-0.5,2.49-0.5,3.8c-0.06-0.31-0.19-0.62-0.25-0.93c-0.06-0.31-0.06-0.62-0.12-1
						c-0.06-0.69,0-1.31,0.06-1.99c0.12-1.31,0.37-2.56,0.69-3.86c0.62-2.49,1.31-4.99,2.12-7.48c1.56-4.92,3.37-9.72,5.23-14.52
						c3.74-9.6,7.85-19.01,12.03-28.42l3.18-7.04l0.81-1.74l0.44-0.87c0.12-0.31,0.37-0.69,0.62-0.93c0.25-0.31,0.56-0.56,0.87-0.75
						c0.37-0.19,0.62-0.31,0.87-0.5l1.74-0.87c4.61-2.31,9.29-4.55,14.08-6.48c2.43-0.93,4.86-1.81,7.35-2.49
						c0.62-0.12,1.31-0.31,1.93-0.37c0.69-0.06,1.31-0.19,1.99-0.25c1.31-0.12,2.56-0.19,3.86-0.25c5.17-0.25,10.28-0.31,15.46-0.25
						h-0.06c1.31-0.12,2.62-0.31,3.99-0.19c0.19,0,0.37,0.06,0.5,0.06c0.19,0,0.37,0.06,0.56,0.12c0.19,0.06,0.37,0.06,0.56,0.19
						c0.12,0.06,0.19,0.06,0.31,0.19c0.12,0.06,0.19,0.19,0.31,0.25c0.06,0.12,0.19,0.25,0.25,0.37c0.06,0.12,0.06,0.25,0.12,0.44
						c0,0.25,0,0.56-0.06,0.75c-0.12,0.44-0.31,0.75-0.56,1c-0.37,0.56-0.93,1.12-1.5,1.5s-1.18,0.69-1.81,0.93
						c-1.25,0.5-2.49,0.87-3.8,1.12c-2.62,0.44-5.17,0.62-7.79,0.81c-2.56,0.19-5.17,0.31-7.73,0.37L238.82,166.13z"/>
				</g>
			</g>
			<g>
				<g>
					<path class="st2" d="M297.39,300.97c-2.24-9.41-5.53-19.24-8.9-28.33c-3.37-9.1-7.1-18.07-10.97-26.98l-2.99-6.67
						c-1-2.24-2.06-4.42-3.05-6.61c-2.06-4.42-4.24-8.72-6.36-13.09c-1.06-2.18-2.18-4.3-3.3-6.48l-1.68-3.18l-0.81-1.62l-0.19-0.37
						l-0.12-0.19c0-0.06-0.12-0.19-0.12-0.31c-0.06-0.25-0.06-0.56,0-0.81c0.06-0.12,0.12-0.25,0.19-0.37
						c0.06-0.12,0.19-0.25,0.25-0.25c0.81-0.81,1.5-1.74,1.56-2.74c0.12-0.93-0.56-1.81-1.5-2.43l-0.37-0.25
						c0,0-0.25-0.12-0.37-0.25c-0.12-0.12-0.19-0.31-0.25-0.5c-0.06-0.37,0.06-0.75,0.37-1l0.37-0.31l1.5-1.06l2.93-2.12
						c3.93-2.87,7.85-5.73,11.65-8.72c1.93-1.5,3.8-2.99,5.67-4.55c0.93-0.81,1.81-1.56,2.68-2.43c0.44-0.44,0.81-0.87,1.18-1.31
						c0.19-0.25,0.37-0.44,0.5-0.62l0.44-0.81c1.18-2.12,2.43-4.24,3.55-6.36c1.12-2.12,2.18-4.3,3.12-6.54
						c1-2.24,1.93-4.42,2.8-6.73l0.69-1.68c0.25-0.56,0.37-1.06,0.5-1.62c0.06-0.25,0.06-0.56,0.12-0.81l0.06-0.87l0.06-1.81
						c0.12-2.43,0.19-4.86,0.19-7.29c0-2.43,0-4.86-0.12-7.23c-0.06-0.62-0.12-1.18-0.19-1.74c-0.06-0.25-0.12-0.56-0.19-0.75
						c-0.06-0.25-0.19-0.37-0.25-0.44c-0.06,0-0.06,0-0.06-0.06c-0.06,0-0.12,0-0.19,0.06c-0.19,0.06-0.37,0.25-0.56,0.44
						c-0.37,0.37-0.75,0.81-1,1.31c-0.62,1-1.12,2.06-1.37,3.18c-0.06,0.25-0.12,0.56-0.12,0.81c0,0.12,0,0.25,0,0.37v0.5
						c0,0.62-0.06,1.25-0.12,1.87c-0.25,2.43-0.62,4.86-0.93,7.23c-0.06,0.62-0.19,1.18-0.25,1.81c-0.06,0.56-0.12,1.25-0.31,1.87
						c-0.31,1.25-0.81,2.37-1.31,3.49c-1.06,2.24-2.37,4.36-3.74,6.36c-1.37,1.99-2.93,3.99-4.86,5.48l-0.12-0.12
						c1.18-2.18,2.74-4.05,4.11-5.98c1.37-1.99,2.62-4.05,3.61-6.23c0.5-1.06,0.93-2.18,1.25-3.3c0.12-0.56,0.19-1.06,0.25-1.74
						c0.06-0.62,0.12-1.25,0.25-1.81c0.31-2.43,0.69-4.8,0.93-7.23c0.06-0.62,0.06-1.18,0.12-1.74v-0.44c0-0.12,0-0.37,0-0.5
						c0-0.37,0.06-0.69,0.19-1c0.31-1.25,0.87-2.43,1.5-3.49c0.31-0.56,0.69-1.06,1.18-1.56c0.25-0.25,0.5-0.5,0.87-0.62
						c0.19-0.06,0.44-0.12,0.69-0.19c0.25,0,0.56,0.06,0.75,0.25c0.44,0.31,0.62,0.69,0.75,1c0.12,0.31,0.19,0.69,0.25,1
						c0.12,0.62,0.19,1.25,0.25,1.87c0.19,2.49,0.19,4.92,0.19,7.35c0,2.43-0.06,4.86-0.19,7.29l-0.06,1.81l-0.06,0.93
						c0,0.31-0.06,0.69-0.12,1c-0.12,0.62-0.31,1.31-0.56,1.87l-0.69,1.68c-0.87,2.24-1.81,4.55-2.8,6.73
						c-1,2.24-2.06,4.42-3.18,6.61s-2.37,4.3-3.55,6.42l-0.44,0.81c-0.19,0.31-0.37,0.56-0.62,0.81c-0.44,0.5-0.87,0.93-1.31,1.37
						c-0.87,0.87-1.81,1.68-2.74,2.49c-1.87,1.56-3.8,3.12-5.67,4.61c-3.86,2.99-7.79,5.86-11.72,8.72l-2.99,2.12l-1.5,1.06
						l-0.31,0.25c0.06-0.06,0.06-0.12,0.06-0.19c0,0,0-0.06-0.06-0.06c0,0-0.12-0.06,0,0l0.44,0.25c0.56,0.37,1.06,0.81,1.5,1.43
						c0.44,0.62,0.62,1.37,0.56,2.12c-0.06,0.75-0.37,1.37-0.69,1.99c-0.37,0.56-0.75,1.06-1.25,1.56
						c-0.06,0.06-0.06,0.06-0.06,0.06s0,0,0,0.06v0.06c0,0,0.06,0.12,0.12,0.31l0.19,0.44l0.81,1.62l1.68,3.24
						c1.12,2.18,2.24,4.3,3.3,6.48c2.12,4.36,4.36,8.72,6.36,13.15c1,2.18,2.12,4.42,3.12,6.61l2.99,6.67
						c3.93,8.91,7.67,17.89,11.03,27.05s6.67,19.05,8.98,28.58H297.39z"/>
				</g>
			</g>
			<g>
				<path class="st2" d="M251.17,160.81l-1.38-1.44c0.1-0.1,10.5-10.1,12.95-14.94c1.61-3.19,3.36-3.19,4.27-2.9
					c2.01,0.64,3.18,3.75,2.85,6l-1.98-0.29c0.23-1.53-0.67-3.54-1.48-3.79c-0.49-0.15-1.2,0.57-1.87,1.9
					C261.92,150.47,251.61,160.39,251.17,160.81z"/>
			</g>
			<g>
				<g>
					<path class="st2" d="M121.23,299.99c0.69-0.62,1.5-0.87,2.37-1.12c0.81-0.25,1.68-0.37,2.56-0.37c0.87,0,1.81,0.12,2.62,0.44
						c0.81,0.31,1.62,0.81,2.12,1.56c-0.81-0.37-1.56-0.5-2.37-0.62c-0.81-0.12-1.56-0.12-2.37-0.12c-0.81,0-1.62,0.06-2.43,0.06
						C122.91,299.87,122.04,299.87,121.23,299.99z"/>
				</g>
			</g>
			<g>
				<path class="st2" d="M246.09,301.29c-0.1-0.63-2.53-15.53-2.6-18.5l2-0.04c0.06,2.83,2.55,18.07,2.57,18.22L246.09,301.29z"/>
			</g>
			<g>
				<path class="st5" d="M229.29,300.43"/>
			</g>
			<g>
				<path class="st18" d="M261.6,204.76c-0.29,0.52-0.6,0.91-0.93,1.33c-0.33,0.41-0.7,0.78-1.08,1.13
					c-0.76,0.71-1.59,1.33-2.46,1.87c-0.44,0.26-0.89,0.52-1.35,0.74c-0.45,0.24-0.92,0.44-1.4,0.63c-0.47,0.2-0.97,0.32-1.46,0.46
					c-0.5,0.11-1,0.2-1.51,0.25c0.43-0.29,0.87-0.53,1.3-0.78c0.42-0.26,0.87-0.48,1.28-0.74c0.85-0.48,1.68-0.99,2.47-1.55
					c0.78-0.57,1.53-1.17,2.22-1.84c0.67-0.66,1.35-1.4,1.82-2.11L261.6,204.76z"/>
			</g>
			<g>
				<path class="st18" d="M259.91,199.21c-0.36,0.45-0.71,0.7-1.12,0.96c-0.4,0.24-0.83,0.42-1.26,0.56
					c-0.43,0.13-0.87,0.23-1.32,0.27c-0.45,0.03-0.9-0.01-1.35-0.2c0.39-0.3,0.76-0.49,1.14-0.67c0.37-0.17,0.74-0.32,1.09-0.5
					c0.35-0.18,0.69-0.37,1-0.58c0.3-0.2,0.64-0.45,0.85-0.63L259.91,199.21z"/>
			</g>
		</g>
	</g>
	<g id="corte">
		<line class="st19" x1="50.89" y1="301.26" x2="44.86" y2="301.26"/>
		<polyline class="st19" points="67.15,301.26 67.43,301.26 81.35,301.26 81.58,301.26 		"/>
		<line class="st19" x1="67.15" y1="301.26" x2="50.89" y2="301.26"/>
		<line class="st19" x1="298.78" y1="301.26" x2="81.58" y2="301.26"/>
		<line class="st19" x1="44.86" y1="301.26" x2="22.34" y2="301.26"/>
	</g>
</g>
<g id="luces">
	<circle class="st20" cx="47.68" cy="218.02" r="6.05"/>
	<circle class="st20" cx="91.13" cy="241.48" r="8.13"/>
	<circle class="st20" cx="29.72" cy="232.96" r="8.13"/>
	<circle class="st20" cx="32.59" cy="240.25" r="2.89"/>
	<circle class="st20" cx="55.47" cy="263.93" r="2.89"/>
	<circle class="st20" cx="54.03" cy="223.74" r="2.89"/>
	<circle class="st20" cx="45.43" cy="225.29" r="1.8"/>
	<circle class="st20" cx="96.93" cy="243.14" r="1.8"/>
	<circle class="st20" cx="105.61" cy="253.46" r="1.8"/>
	<circle class="st20" cx="70.85" cy="235.32" r="1.8"/>
	<circle class="st20" cx="63.81" cy="251.68" r="1.8"/>
	<circle class="st20" cx="83.81" cy="241.83" r="1.8"/>
	<circle class="st20" cx="58.68" cy="245.35" r="1.8"/>
	<circle class="st20" cx="51.79" cy="264.39" r="1.8"/>
	<circle class="st20" cx="126.9" cy="247.95" r="1.8"/>
	<circle class="st20" cx="114.42" cy="236.82" r="1.8"/>
	<circle class="st20" cx="235.63" cy="212.33" r="1.8"/>
	<circle class="st21" cx="221.16" cy="230.44" r="1.8"/>
	<circle class="st20" cx="277.5" cy="194.41" r="1.8"/>
	<circle class="st20" cx="268.22" cy="198.65" r="1.8"/>
	<circle class="st20" cx="43.5" cy="247.95" r="1.8"/>
	<circle class="st20" cx="139.65" cy="234.58" r="6.05"/>
	
		<ellipse transform="matrix(0.3117 -0.9502 0.9502 0.3117 -11.3786 393.9182)" class="st20" cx="266.2" cy="204.81" rx="3.7" ry="3.95"/>
	
		<ellipse transform="matrix(0.3117 -0.9502 0.9502 0.3117 -62.0401 370.1674)" class="st21" cx="224.47" cy="227.9" rx="2.86" ry="3.06"/>
	
		<ellipse transform="matrix(0.2991 -0.9542 0.9542 0.2991 -17.4499 408.6946)" class="st21" cx="269.49" cy="216.23" rx="2.86" ry="3.06"/>
	
		<ellipse transform="matrix(0.2991 -0.9542 0.9542 0.2991 -15.1356 409.5097)" class="st21" cx="271.2" cy="215.06" rx="0.77" ry="0.82"/>
	<circle class="st20" cx="229.86" cy="213.5" r="6.05"/>
	<path class="st20" d="M170.02,239.24c-0.07-0.54-0.03-1.09,0.07-1.62c0.1-0.54,0.28-1.06,0.53-1.56c0.26-0.49,0.62-0.97,1.13-1.27
		c0.5-0.31,1.13-0.37,1.64-0.19c-0.55,0.08-1,0.28-1.36,0.59c-0.36,0.31-0.64,0.72-0.87,1.17
		C170.71,237.24,170.4,238.23,170.02,239.24z"/>
	<path class="st20" d="M178.1,234.83c-0.04-0.43,0.06-0.87,0.24-1.27c0.18-0.4,0.47-0.77,0.83-1.05c0.36-0.27,0.79-0.47,1.24-0.52
		c0.44-0.08,0.88-0.01,1.29,0.12c-0.42,0.12-0.81,0.2-1.17,0.35c-0.36,0.13-0.69,0.32-0.98,0.55
		C178.96,233.45,178.53,234.09,178.1,234.83z"/>
</g>
</svg>
