<?xml version="1.0" encoding="utf-8"?>
<!-- Generator: Adobe Illustrator 25.3.0, SVG Export Plug-In . SVG Version: 6.00 Build 0)  -->
<svg version="1.1" xmlns="http://www.w3.org/2000/svg" xmlns:xlink="http://www.w3.org/1999/xlink" x="0px" y="0px"
	 viewBox="0 0 308.18 416.18" style="enable-background:new 0 0 308.18 416.18;" xml:space="preserve">
<style type="text/css">
	.st0{fill:#A8CD74;}
	.st1{fill:#492C21;}
	.st2{fill:#99A3C7;}
	.st3{fill:#D9EEF0;}
	.st4{fill:#525F82;}
	.st5{fill:#A75062;}
	.st6{fill:#301610;}
	.st7{fill:#7D9E4C;}
	.st8{fill:#8E3E4A;}
	.st9{fill:#3B4660;}
	.st10{fill:#020203;}
	.st11{fill:none;stroke:#020203;stroke-width:2;stroke-miterlimit:10;}
	.st12{fill:none;}
	.st13{fill:none;stroke:#020203;stroke-miterlimit:10;}
	.st14{fill:none;stroke:#030405;stroke-width:2;stroke-miterlimit:10;}
</style>
<g id="color_1_">
	<path class="st0" d="M183.8,63.33c0,0-5.22-14.24-10.65-14.11c0,0-22.21-8.15-38.19,14.42c0,0-10.63,11.03-13.26,10.72
		c-2.64-0.31-14.64-11.43-14.64-11.43l-3.67-0.72c0,0-14.24,2.64-5.25,15.8c0,0,15.87,3,22.9,3.61l1.22,10.18l-5.12,2.88
		c0,0-8.14,31.54,5.2,52.52c0,0-6.93-6.65-9.35-11.92l0.86,9.71c0,0,9.4,10.48,17.9,23.83l2.5-0.64c0,0,14.56-19.98,15.9-28.28
		c0,0,15.72,0.72,29.22-11.47c0,0,14.86-10.24,15.38-18.61c0,0-1.56-7.8,12.15-25.68c0,0,9.1-16.09-2.33-19.05
		c0,0-3.76-1.86-13.88-1.3c0,0-0.83,0.56-3.28,1.11c0,0,0.04-0.97-2.1-0.73C185.33,64.19,184.48,63.26,183.8,63.33z"/>
	<path class="st0" d="M121.35,320.3c0,0-5.41-11.16-2-17.91c3.41-6.75,4.63-11.89,13.17-11.65c8.54,0.24,43.97,7.69,43.97,7.69
		l-4.82-9.86c0,0,3.98-13.49,18.73-10.36c0,0,6.41,14.08,26.23,19.44c0,0,20.27,6.87,28.64,14.77c0,0,9.57,9.18,9.14,25.05
		c0,0,1.03,12.84-5.2,12.97c0,0,0.31,9.67-3.02,10.82l-5.16-1.95l-3.1,0.9l-3.86-2.27c0,0-4.97-0.8-7.26-10.66l-0.62-3.29
		l-14.25-6.22c0,0,0.31,3.96-2.33,6.22c0,0-3.24,1.85-6.78-8.49c0,0-6.17,0.55-15.23-3.92l-9.63-7.68L121.35,320.3z"/>
	<path class="st1" d="M199.39,97.3l12.52-12.23c0,0,20.21-21.86,14.7-36.08c0,0-1.32-7.45-11.98-14.7c0,0-8.56-17.99-29.41-20.49
		c0,0-12.98-10.21-35.56-3.07s-44.94,30.6-47.46,38.25l-13.1,15.2L79.12,81.2c0,0-28.62,31.12-5.23,56.88c0,0-10.02-7.97-2.15-32.83
		c0,0-2.11,24.97,15.92,50.24c0,0,15.12,19.47,23.38,27.57c0,0-8.38-11.97-11.59-22.39c0,0,14.14,23.97,36.11,27.76
		c0,0-7.32-3.78-7.9-4.7c0,0-14.9-21.84-14.56-47.98l9.25,12.22c0,0-15.02-31.15-5.2-53.27c0,0,3.44-12.26,4.55-12.89l-22.82-3.54
		c0,0-6.19-3.97-3.13-11.08c3.06-7.11,10.62-4.66,10.62-4.66s13.21,11.57,15,11.48c1.8-0.09,12.51-7.51,13.74-11.1
		c0,0,13.07-20.68,38.75-13.47c0,0,4.74,2.01,9.94,14.01l3.69,1.38c0,0,12.69-4.05,21.76,3.36c0,0,5.43,3.97-4.59,20.75L199.39,97.3
		z"/>
	<path class="st2" d="M112.87,322.88c0,0-17.56-1.04-10.63-29.91c0,0,6.96-13.99,20.41-10.05c0,0,6.92,1.11,9.88,5.66
		c0,0-4.17-23.09-45.32-32.51l-2.01-0.18c0,0-0.83-1.23-3.52-2.04l-3.21-25.46l-4.43-17.97c0,0,2.74-33.25-3.6-50.42
		s-4.98-22.69-21.75-32.07h-1.8c0,0-35.88,41.98-34.14,91.51s13.39,84.88,23.38,95.75C36.14,315.19,66.78,342.62,112.87,322.88z"/>
	<path class="st2" d="M151.39,294.34c0,0-21.05-26.85-20.51-50.1c0,0,17.78-10.93,19.37-15.27c1.59-4.34,12.71-11.56,15.68-35.87
		c0,0,4.72-33.69,3.77-45.14l3.6,10.94l3.6,17.41l3.45,54.96l6.01,7.6c0,0,16.67,13.28,18.22,28.72
		c1.54,15.44-3.77,22.21-3.77,22.21s-8.38-4.21-9.33-12.06l6.46,2.8c0,0,2.83-15.86-14.9-16.32c0,0-14.98-1.83-18.5,10.7
		c-3.52,12.54,3.71,19.41,3.71,19.41l2.39,3L151.39,294.34z"/>
	<path class="st3" d="M112.87,322.88l8.48-1.78c0,0-8.31-10.62,1.54-25.64c0,0,3.25-5.77,10.04-4.84c0,0-0.64-8.4-14.77-7.77
		c0,0-14.92-2.99-17.9,20C100.26,302.84,99.11,321.07,112.87,322.88z"/>
	<path class="st3" d="M170.63,296.64c0,0-1.66-29.04,27.31-16.09c0,0,3.52-17.89-20.18-16.84c0,0-13.96,1.74-15.08,17.64
		C162.67,281.35,163.11,291.13,170.63,296.64z"/>
	<path class="st4" d="M10.23,354.14c0,0-3.91-36.95-1.79-48.78c2.12-11.82,5.72-29.64,11.56-28.03c0,0,8.71,38.87,25.56,44.37
		c0,0,26.83,17.08,67.3,1.72l8.48-2.33c0,0,45.63,1.87,56.64,2.79c0,0,11.46,12.27,23.39,12.27c0,0,0.69-2.52,4.13,6.65
		c0,0,6.76,4.61,7.45-3.83c0,0,9.23,3.66,12.9,5.26c0,0,0.8,6.82,5.04,12.61l6.94,3.73c0,0,3.14-1.18,3.83-0.75
		c0,0,8.15,6.37,8.1-8.19l0.69-0.73c0,0,6.11-3.82,3.59-22.32l-4.92-12.48c0,0,35.51,7.09,48.76,28.66c0,0,4.39-4.98,0.72,63.25
		h-161l-28.09-4.45C109.5,403.57,78.65,359.83,10.23,354.14z"/>
	<path class="st4" d="M46.89,127.93c0,0,6.77-8.46,17.8-16.56c0,0-0.97,19.27,9.19,26.71c0,0-9.54-7.61-1.71-31.91
		c0,0-3.32,21.49,15.63,50.49c0,0,3.73,26.18,9.59,29.62c0,0-0.26,4.49,23.2,4.92c23.46,0.42,32.48-4.11,32.48-4.11
		s7.12-3.67,6.54-19.36l0.36-21.35l1.05-6.88l7.72-2.98c0,0,2.81,24.88,0,40.74c0,0-4.16,42.76-21.01,54.88
		c-16.85,12.12-23.56,14.75-34.49,32.91c0,0-4.05-3.78-26.67-9.25c0,0-2.6-0.69-4.92-2.18c0,0-5.78-36.76-7-45.32
		C73.43,199.72,78.14,137.76,46.89,127.93z"/>
	<path class="st2" d="M139.46,190.57c0,0,21.31,1.05,19.98-20.7c0,0,0.99-18.15,0.06-22.66c0,0-11.8,20.87-24.1,30.04l-16.46-13.64
		c0,0,1.63,9.79,8.33,18.88c0,0,1.33,2.49,8.28,5.93c0,0-18.63-2.74-29.72-19.53l-5.12-7.47c0,0,2.37,11.17,9.75,21.06
		c0,0-21.38-23.29-22.13-24.73c0,0,1.53,22.59,9.17,27.84c0,0,4.42,7.39,26.9,5.25L139.46,190.57z"/>
	<path class="st1" d="M173.85,157.38c0,0,0.72-24.38,2.31-25.53l-7.04,4.12C169.12,135.97,170.48,151.18,173.85,157.38z"/>
	<path class="st3" d="M150.71,141.02c0,0-6.43,14.82-17.44,28.85l-18.78-25.26c0,0,1.32,14.22,3.28,19.76c0,0,9.07,6.86,16.47,13.91
		c0,0,22.03-18.53,26.69-38.37l-0.98-0.73C159.96,139.18,148.5,138.8,150.71,141.02z"/>
	<path class="st5" d="M156.38,130.18c0,0-5.04-3.72-4.41-7.73c0,0,5.92-3.49,12.82,0c0,0,1.59,1.72,5.42,0.74
		c0,0,2.8,1.37,0.22,5.39C170.42,128.58,166.58,133.45,156.38,130.18z"/>
	<path class="st4" d="M152.31,294.06l-7.68-10.29c0,0-12.96-5.09-17.27-6.17c0,0,1.56-0.76,6.29,13.32L152.31,294.06z"/>
</g>
<g id="sombra_1_">
	<path class="st6" d="M122.24,91.61l-1.09-9.09l-3.97,11.23C117.18,93.75,121.04,92.15,122.24,91.61z"/>
	<path class="st6" d="M100.64,51.44l1.8-3.05c0,0,5.29-4.58,15.34-8.48C117.78,39.9,107.96,45.09,100.64,51.44z"/>
	<path class="st6" d="M115.18,48.38c0,0,9.92-4.99,14.5-8.25C129.67,40.13,125.69,46.15,115.18,48.38z"/>
	<path class="st6" d="M160.06,30.91c0,0-12.3,2.76-17.56,4.12C142.5,35.03,150.45,29.89,160.06,30.91z"/>
	<path class="st6" d="M170.48,38.1c0,0,12.62,11.91,14.85,26.09C185.33,64.19,188.13,46.45,170.48,38.1z"/>
	<path class="st6" d="M165.75,16.32c0,0,39.72,17.21,21.68,48.6C187.43,64.91,218.64,35.96,165.75,16.32z"/>
	<path class="st6" d="M193.89,62.75c0,0,13.38-2.52,12.99-19.72C206.88,43.03,213.07,61.15,193.89,62.75z"/>
	<path class="st6" d="M176.02,49.83c-5.41-5.39-14.72-10.7-28.13-10.2c0,0,10.78,2.2,21.09,8.69"/>
	<path class="st6" d="M215.37,34.77l-2.2-3.43c0,0-1.5-1.93-11.61-2.76C201.55,28.58,210.09,31.41,215.37,34.77z"/>
	<path class="st6" d="M193.58,21.83c0,0-0.56-5.21-5.28-7.79c0,0-3.05-1.07-3.57-0.59C184.73,13.46,191.03,17.78,193.58,21.83z"/>
	<path class="st6" d="M71.72,105.44c0,0,0.87-15.59,3.05-19.34c2.18-3.75,4.43-6.04,4.43-6.04L71.72,105.44z"/>
	<path class="st6" d="M122.34,147.21c0,0-9.02-20.42-8.04-27.29c0,0-3.09,10.77-1.06,16.02c0,0,8.77,11.87,9.1,11.5"/>
	<path class="st6" d="M87.65,132.54c0,0-0.14-24.69,6.74-47.44C94.4,85.1,81.09,111.21,87.65,132.54z"/>
	<path class="st6" d="M98.42,105.25c0,0,1.16,46.71,28.44,77.24C126.86,182.49,94.06,159.59,98.42,105.25z"/>
	<path class="st6" d="M107.25,169.87c0,0-14-29.4-14.05-40.99c0,0,2.67,26.6,6.25,31.79C103.02,165.85,107.25,169.87,107.25,169.87z
		"/>
	<path class="st6" d="M117.78,69.48c0,0,7.54,1.61,11.48,0l4.45-4.56C133.71,64.91,121.8,70.21,117.78,69.48z"/>
	<path class="st6" d="M108.2,86.79c0,0,9.87,0.7,11.47-1.26l2.02-3.73l-2.87,0.71L108.2,86.79z"/>
	<path class="st6" d="M155.39,25.54c0,0,19.76,1.71,29.84,17.49C185.23,43.03,181.94,24.79,155.39,25.54z"/>
	<path class="st7" d="M100.64,76.54c0,0,13.92-1.49,2.15-10.9C102.79,65.64,122.52,76.84,100.64,76.54z"/>
	<path class="st7" d="M130.21,76.84c0,0-4.3-2.26-3.21-4.44l-4.24,2.22C122.75,74.62,126.83,76.35,130.21,76.84z"/>
	<path class="st7" d="M121.61,86.29c0,0,0.84-2.73,4.26-2.55l-3.97-1.88l-0.71,0.07C121.2,81.93,121.17,84.65,121.61,86.29z"/>
	<path class="st7" d="M183.8,63.44c0,0-5.92-11.04-22.78-15.06c0,0,11.49-0.9,16.18,2.76C177.2,51.14,182.61,58.24,183.8,63.44z"/>
	<path class="st7" d="M187.43,64.91c0,0,20.68,0.61,23.23,7.55c0,0-0.46-7.98-12.81-8.72C197.86,63.75,190.48,62.97,187.43,64.91z"
		/>
	<path class="st7" d="M143.75,122.45c0,0,3.4-4.48,2.94-6c0,0,1.8,0.49,8.72-1.99c0,0-9,1.61-9.28,0.79
		C146.13,115.24,144.97,120.89,143.75,122.45z"/>
	<path class="st7" d="M137.65,61.3c0,0-2.72,7.77-7.45,15.54l-7.45-1.48L137.65,61.3z"/>
	<path class="st7" d="M114.09,110.44"/>
	<path class="st7" d="M128.34,154.78c0,0-1.48-13.88,2.56-31.59l-5.03-14.38l-3.63-17.21L117,95.25
		C117,95.25,107.48,131.28,128.34,154.78z"/>
	<path class="st7" d="M128.34,154.78"/>
	<path class="st7" d="M128.34,154.78c-0.57,3.67,7.21,11.61,7.21,11.61l-3.38,3.26c-9.36-15.97-18.08-24.39-18.08-24.39l-0.85-7.17
		L128.34,154.78z"/>
	<path class="st7" d="M201.99,317.73c0,0,4.63,7.41,6.94,9.65c2.31,2.24,3,11.05,3,11.05l14.42,5.55c0,0-0.98-8.64-4.83-12.48
		C217.66,327.67,214.64,321.55,201.99,317.73z"/>
	<path class="st7" d="M242.8,359.98c0,0,4.64-11.56,1.55-25.08l-0.79,1.61c0,0-1,19.73-3.08,22.22L242.8,359.98z"/>
	<path class="st7" d="M252.11,348.59c0,0-1.2-16.17-1.78-16.85c-0.57-0.69-3.25-7.36-10.74-16.15c0,0,7.36,9.96,8.9,17.24
		l0.73,17.62L252.11,348.59z"/>
	<path class="st7" d="M228.28,321.1c0,0,8.06,10.76,8.64,19.18c0.57,8.43,2.08,16.34-0.74,18.89l-1.67-1.38
		C234.51,357.79,239.94,340.78,228.28,321.1z"/>
	<path class="st7" d="M187.27,316.66c0,0,9.81,15.74,10.75,18.65l4.82,0.18C202.85,335.49,191.97,319.41,187.27,316.66z"/>
	<path class="st7" d="M172.14,288.23c0,0,7.74-7.87,17.27-10.2C189.41,278.03,177.99,274.39,172.14,288.23z"/>
	<path class="st7" d="M119.57,305.37c0,0-0.17,10.09,5.56,14.93h-4.64C120.49,320.3,116.54,308.58,119.57,305.37z"/>
	<path class="st7" d="M140.54,85.07c0,0,7.41-5.43,19.57-3.82C160.1,81.25,149.94,77.5,140.54,85.07z"/>
	<path class="st7" d="M163.01,109.83c0,0-3.36,4.13-1.41,5.88L163.01,109.83z"/>
	<path class="st7" d="M177.99,107.69c0,0-0.04-11.85,14.83-23.54C192.82,84.15,175.98,94.66,177.99,107.69z"/>
	<path class="st7" d="M170.96,117.78c0,0,5.87,1.22,6.87-1.9C177.82,115.88,173.81,118.25,170.96,117.78z"/>
	<path class="st8" d="M153.07,123.44c0,0,10.97,6.99,17.89,3.52C170.96,126.96,166.5,127.64,153.07,123.44z"/>
	<path class="st4" d="M57.99,256.73c0,0,18.6-2.08,26.65-1.42C84.64,255.32,77.4,250.53,57.99,256.73z"/>
	<path class="st4" d="M69.3,191.2c0,0,4.51,6.8,5.35,11.51l-0.49,6.07L69.3,191.2z"/>
	<path class="st4" d="M172.14,218.52c0,0,6.7,5.39,8.62,6.31l-0.1,5.84C180.66,230.67,178.45,228.61,172.14,218.52z"/>
	<path class="st4" d="M171.68,288.92l4.5,8.87l-5.55-0.79C170.63,297,170.31,290.47,171.68,288.92z"/>
	<path class="st4" d="M197.94,280.55c0,0-3.42,2.28-2.2,5.01c0,0-5.11-6.39-5.12-7.6C190.61,277.96,192.32,277.58,197.94,280.55z"/>
	<path class="st4" d="M89.43,166.48c0,0,12.27,12.6,21.6,16.58l-23.15-25.88L89.43,166.48z"/>
	<path class="st4" d="M104.39,172.09c0,0,9.48,13.52,31.16,16.33c0,0-11.48-1.52-21.15-10.3l-14.14-16.3L104.39,172.09z"/>
	<path class="st9" d="M73.89,138.08c0,0-4.36-12.96-2.53-21.6l1.03-11.04C72.38,105.44,63.45,122.53,73.89,138.08z"/>
	<path class="st9" d="M88.33,165.55c0,0-15.36-27.19-14.9-37.96c0,0,9.72,22.56,14.38,29.06L88.33,165.55z"/>
	<path class="st9" d="M10.14,293.35c0,0,10.83,15.9,29.12,24.54c0,0-12.75-8.9-18.34-37.75L20,277.34
		C20,277.34,13.35,281.81,10.14,293.35z"/>
	<path class="st9" d="M220.87,379.72c0,0,18.8,3.9,60.08-30.04C280.94,349.68,254.57,384.54,220.87,379.72z"/>
	<path class="st9" d="M225.13,397.15c0,0,10.64,4.59,63.84-39.21C288.97,357.94,248.2,400.82,225.13,397.15z"/>
	<path class="st9" d="M93.61,385.68c0,0,16.66,7.11,29.5,15.59C123.11,401.27,105.22,383.46,93.61,385.68z"/>
	<path class="st9" d="M149.78,407.01c0,0-8.03-9.75-11.85-11.98C137.93,395.02,143.44,404.71,149.78,407.01z"/>
	<path class="st9" d="M110.34,390.04c0,0,40.74,9.08,50.45,13.53C160.79,403.57,139.46,389.43,110.34,390.04z"/>
	<path class="st9" d="M211.29,342.63l13.16,7.82c0,0,3.82,5,8.6,7.56c0,0-5.68-7.58-6.71-13.31l-14.42-6.26L211.29,342.63z"/>
	<path class="st9" d="M205.78,341.75c0,0-18.34-3.62-32.4-13.36c0,0-46.76-2.72-59.3-0.5c0,0-16.97,3.66-52.59,0.5
		c0,0,21.27,3.45,37.45-1.37l13.91-4.15l8.91-1.76l56.21,2.77c0,0,13.61,14.02,24,12.04L205.78,341.75z"/>
	<path class="st9" d="M85.2,231.97c0,0,13.3,3.89,32.58,3.53C117.78,235.51,95.94,240.73,85.2,231.97z"/>
	<path class="st9" d="M107.82,253.61c0,0,32.3-23.16,27.73-46.55C135.55,207.06,137.63,223.8,107.82,253.61z"/>
</g>
<g id="contorno_2_">
	<g>
		<path class="st10" d="M199.31,29.96c1.64,2.74,2.79,5.79,3.45,8.96c0.67,3.16,0.81,6.48,0.22,9.72c-0.58,3.23-1.98,6.34-4.05,8.87
			c-2.07,2.55-4.77,4.47-7.65,5.82c2.59-1.86,4.92-4.02,6.71-6.53c1.77-2.53,2.99-5.4,3.51-8.43c0.58-3.02,0.52-6.16,0.1-9.25
			C201.17,36.03,200.43,32.95,199.31,29.96z"/>
	</g>
	<g>
		<path class="st10" d="M147.87,39.64c3.85-0.69,7.86-0.52,11.74,0.23c3.89,0.75,7.67,2.22,11.08,4.33
			c1.68,1.09,3.26,2.33,4.71,3.71c1.43,1.4,2.71,2.95,3.84,4.59c2.2,3.32,3.75,7.02,4.55,10.84c-1.59-3.56-3.48-6.93-5.81-9.92
			c-2.37-2.96-5.17-5.53-8.36-7.53c-3.18-2.01-6.7-3.48-10.37-4.5C155.58,40.38,151.77,39.77,147.87,39.64z"/>
	</g>
	<g>
		<path class="st10" d="M133.48,30.04c5.9-2.55,12.18-4.27,18.62-5.04c6.42-0.75,13.13-0.53,19.39,1.75
			c3.1,1.18,6.02,2.92,8.45,5.21c2.42,2.3,4.34,5.07,5.72,8.06c2.62,6.07,3.28,12.68,2.89,19.07c-0.39-6.39-1.59-12.76-4.3-18.4
			c-1.47-2.75-3.28-5.29-5.59-7.34c-2.27-2.07-4.97-3.66-7.87-4.73c-2.9-1.1-5.98-1.7-9.1-2c-3.12-0.32-6.29-0.27-9.44-0.07
			c-3.16,0.23-6.31,0.66-9.44,1.26C139.67,28.36,136.56,29.14,133.48,30.04z"/>
	</g>
	<path class="st11" d="M121.41,320.6c0,0-6.22-9.09-1.44-19.76c4.76-10.61,8.48-10.39,13.99-10.17"/>
	<path class="st11" d="M132.13,290.68c0,0,19.15,3.02,44.37,7.76"/>
	<path class="st11" d="M122.04,320.33c0,0-24.31,11.58-21.25-21.4c1.95-21.01,29.87-19.54,32.37-8.75"/>
	<g>
		<path class="st10" d="M107.82,253.61c3.48-4.01,6.8-8.11,9.97-12.32c3.15-4.22,6.14-8.55,8.78-13.07
			c2.64-4.52,4.97-9.22,6.59-14.18c1.64-4.94,2.46-10.18,1.87-15.47c1.42,5.14,1.05,10.74-0.37,15.91
			c-1.37,5.22-3.69,10.11-6.36,14.75c-1.38,2.29-2.83,4.54-4.37,6.72c-1.57,2.16-3.19,4.28-4.91,6.31
			C115.58,246.32,111.89,250.18,107.82,253.61z"/>
	</g>
	<g>
		<path class="st10" d="M172.14,218.52c2.16,2.7,4.12,5.5,6.08,8.3c1.94,2.81,3.9,5.61,6.03,8.24c1.05,1.33,2.17,2.59,3.34,3.78
			c1.15,1.13,2.53,2.21,3.81,3.41c2.55,2.38,4.89,4.99,6.92,7.86c4.05,5.71,6.71,12.52,7.23,19.58c0.56,7.06-1,14.14-3.81,20.51
			l-1.84-0.79c1.28-3.11,2.29-6.32,2.92-9.61c0.62-3.28,0.79-6.63,0.56-9.95c-0.22-3.32-0.99-6.59-2.12-9.72
			c-0.6-1.56-1.27-3.08-2.05-4.56c-0.79-1.47-1.66-2.9-2.6-4.29c-1.89-2.77-4.09-5.33-6.51-7.67c-1.2-1.18-2.51-2.23-3.79-3.52
			c-1.21-1.28-2.34-2.61-3.4-3.98C178.73,230.61,174.85,224.9,172.14,218.52z"/>
	</g>
	<path class="st11" d="M152.31,293.73c0,0-21.99-23.74-21.42-49.49"/>
	<g>
		<path class="st10" d="M51.26,267.13c6.06-5.36,13.56-9.13,21.52-11.02c1.99-0.47,4.03-0.8,6.07-0.97c2.05-0.2,4.11-0.22,6.17-0.13
			c4.11,0.22,8.21,0.96,12.12,2.3c0.96,0.37,1.94,0.71,2.89,1.1c0.94,0.42,1.9,0.81,2.82,1.26c1.82,0.91,3.66,1.77,5.45,2.76
			c1.81,0.93,3.56,1.98,5.33,3.01l2.58,1.67c0.86,0.56,1.68,1.18,2.52,1.77c3.29,2.44,6.47,5.12,9.06,8.4
			c2.61,3.23,4.6,7.05,5.59,11.09l-1.69,0.46c-1.09-3.78-2.96-7.26-5.49-10.25c-2.48-3.03-5.53-5.62-8.74-7.95
			c-3.22-2.32-6.65-4.39-10.17-6.3c-1.74-0.98-3.55-1.85-5.34-2.76c-0.9-0.44-1.8-0.82-2.7-1.24c-0.91-0.38-1.84-0.72-2.76-1.08
			c-3.73-1.29-7.62-2.17-11.57-2.48c-3.95-0.31-7.94-0.04-11.85,0.7c-3.92,0.72-7.75,1.96-11.41,3.6
			C57.99,262.67,54.47,264.68,51.26,267.13z"/>
	</g>
	<g>
		<path class="st12" d="M85.03,102.44"/>
	</g>
	<g>
		<path class="st10" d="M114.54,323.19c-3,1.44-6.02,2.56-9.13,3.55c-3.1,0.98-6.25,1.79-9.44,2.42c-6.38,1.27-12.9,1.81-19.41,1.58
			c-3.25-0.14-6.5-0.48-9.71-0.99c-3.21-0.58-6.39-1.31-9.5-2.29c-6.22-1.95-12.15-4.79-17.64-8.28l0,0l0.27,0.12
			c-0.49-0.16-0.71-0.3-1.04-0.47c-0.29-0.17-0.57-0.35-0.84-0.54c-0.53-0.38-1.02-0.79-1.49-1.21c-0.93-0.85-1.76-1.79-2.52-2.75
			c-1.53-1.93-2.83-4.01-4-6.14c-2.34-4.26-4.16-8.74-5.78-13.28c-3.18-9.09-5.4-18.45-7.26-27.85c-1.84-9.41-3.26-18.88-4.35-28.41
			c-1.06-9.56-1.11-19.22-0.34-28.8c1.64-19.16,6.98-38,15.68-55.14c2.19-4.28,4.57-8.46,7.16-12.51c2.6-4.05,5.42-7.95,8.44-11.69
			c3.02-3.74,6.25-7.32,9.71-10.68l2.63-2.47l2.72-2.38c0.93-0.76,1.88-1.51,2.83-2.25c0.98-0.7,1.98-1.37,3.02-2l0.7,0.97
			c-0.88,0.81-1.79,1.56-2.72,2.3c-0.9,0.77-1.81,1.53-2.74,2.27l-2.67,2.34l-2.59,2.44c-3.4,3.31-6.58,6.84-9.55,10.54
			c-2.97,3.7-5.75,7.55-8.31,11.55c-2.55,4.01-4.9,8.14-7.05,12.37c-8.57,16.96-13.82,35.58-15.42,54.5
			c-0.75,9.47-0.69,19,0.37,28.44c1.1,9.45,2.53,18.9,4.37,28.24c1.86,9.34,4.08,18.62,7.23,27.57c1.59,4.46,3.4,8.86,5.66,12.97
			c1.13,2.06,2.39,4.04,3.82,5.85c0.72,0.9,1.48,1.77,2.32,2.52c0.41,0.38,0.85,0.73,1.29,1.05c0.22,0.15,0.45,0.3,0.67,0.43
			c0.2,0.12,0.5,0.26,0.58,0.28l0.14,0.04l0.13,0.08l0,0c5.35,3.4,11.11,6.16,17.16,8.05c3.02,0.95,6.12,1.66,9.23,2.22
			c3.13,0.5,6.29,0.83,9.45,0.97c6.34,0.22,12.71-0.31,18.94-1.55c3.12-0.62,6.2-1.41,9.23-2.37c3.01-0.95,6.03-2.08,8.83-3.42
			L114.54,323.19z"/>
	</g>
	<path class="st11" d="M87.65,155.49c3.22,25.3,7.24,34.64,22.31,35.36c16.05,0.76,32.56,0.31,38.52-1.99
		c5.96-2.29,12.52-0.6,10.99-44.78"/>
	<g>
		<path class="st10" d="M85.2,231.97c2.16,1.87,4.87,2.67,7.53,3.28c0.67,0.16,1.35,0.26,2.03,0.37c0.68,0.12,1.36,0.22,2.05,0.26
			c0.69,0.04,1.37,0.17,2.06,0.19l2.08,0.08c1.38,0.06,2.78,0.03,4.17,0.02c1.39-0.06,2.79-0.08,4.19-0.16
			c1.4-0.12,2.81-0.14,4.21-0.26c1.41-0.1,2.82-0.22,4.26-0.24c-1.35,0.46-2.73,0.83-4.11,1.21c-1.38,0.35-2.79,0.59-4.2,0.84
			c-1.41,0.26-2.84,0.33-4.27,0.5c-1.43,0.07-2.87,0.11-4.32,0.09c-2.88-0.1-5.79-0.49-8.57-1.4l-1.04-0.35
			c-0.34-0.14-0.68-0.28-1.01-0.44c-0.67-0.28-1.31-0.66-1.94-1.01C87.12,234.15,85.91,233.24,85.2,231.97z"/>
	</g>
	<g>
		<path class="st10" d="M57.99,256.73c2.06-1.19,4.26-2.07,6.52-2.78c2.26-0.72,4.59-1.21,6.95-1.51c1.19-0.12,2.38-0.2,3.58-0.21
			c1.2,0.03,2.41,0.08,3.6,0.28c2.37,0.38,4.79,1.23,6.55,2.85c-2.2-0.9-4.44-1.21-6.7-1.3c-2.26-0.06-4.53,0.08-6.8,0.36
			c-2.27,0.25-4.54,0.64-6.82,1.04L57.99,256.73z"/>
	</g>
	<g>
		<path class="st10" d="M69.3,191.2c1.7,5.04,3.21,10.13,4.57,15.27c1.38,5.13,2.61,10.3,3.72,15.5c1.08,5.2,2.09,10.43,2.82,15.7
			c0.75,5.27,1.3,10.58,1.32,15.92l-0.71,0.04c-0.6-5.26-1.51-10.46-2.4-15.67c-0.92-5.2-1.93-10.4-2.98-15.59
			c-1.02-5.19-2.12-10.38-3.18-15.57C71.36,201.61,70.33,196.41,69.3,191.2z"/>
	</g>
	<g>
		<path class="st10" d="M47.32,126.6c1.2,0.17,2.12,0.51,3.11,0.9c0.96,0.41,1.88,0.88,2.75,1.42c1.75,1.07,3.33,2.38,4.77,3.81
			c2.9,2.85,5.12,6.25,7.02,9.76c3.72,7.09,5.94,14.79,7.47,22.54c1.49,7.77,2.29,15.64,2.67,23.51c0.38,7.88,0.33,15.76,0.05,23.62
			l-1.41-0.05c0.23-7.83,0.23-15.68-0.2-23.49c-0.43-7.81-1.27-15.61-2.79-23.26c-1.55-7.63-3.79-15.18-7.43-22
			c-1.84-3.38-4-6.61-6.74-9.26c-1.35-1.33-2.83-2.54-4.43-3.51c-0.8-0.49-1.63-0.91-2.48-1.27c-0.83-0.33-1.79-0.64-2.53-0.74
			L47.32,126.6z"/>
	</g>
	<path class="st11" d="M112.87,265.64c0,0,11.46-19.15,26.9-27.71c15.44-8.56,25.83-33.48,26.29-46.74c0,0,5.89-32.83,2.68-54.69"/>
	<path class="st11" d="M121.35,320.3c0,0,36.19,2.53,54.41,2.9c1.54,0.03,2.99,0.71,4.01,1.87c3.09,3.52,10.93,10.86,22.22,10.4"/>
	<g>
		<path class="st10" d="M220.87,379.72c2.9,0.41,5.83,0.4,8.71,0.1c0.72-0.08,1.44-0.12,2.16-0.23l2.14-0.36l1.07-0.18l1.05-0.25
			l2.1-0.5c5.58-1.47,10.9-3.8,15.92-6.64l3.74-2.19l3.56-2.47l1.79-1.22l1.7-1.36c1.13-0.91,2.27-1.81,3.41-2.7
			c1.14-0.9,2.16-1.95,3.26-2.9l3.26-2.92c2.07-2.06,4.09-4.17,6.21-6.2c-1.78,2.33-3.67,4.58-5.51,6.88
			c-2.04,2.11-4.04,4.29-6.19,6.31c-1.11,0.97-2.22,1.94-3.35,2.9l-1.68,1.44l-1.79,1.31l-3.61,2.58l-3.82,2.29
			c-5.17,2.88-10.72,5.22-16.54,6.42c-2.91,0.58-5.86,1-8.83,0.99C226.67,380.77,223.68,380.58,220.87,379.72z"/>
	</g>
	<g>
		<path class="st10" d="M225.13,397.15c0.38,0.12,0.77,0.21,1.17,0.24c0.4,0.05,0.79,0.09,1.19,0.07c0.79,0.04,1.59-0.04,2.37-0.13
			c1.57-0.21,3.12-0.55,4.63-1.04l1.14-0.33l1.11-0.42l2.22-0.85c1.44-0.67,2.89-1.32,4.31-2.01l4.19-2.28l4.06-2.51
			c1.37-0.8,2.65-1.76,3.97-2.65c1.3-0.92,2.66-1.76,3.91-2.76l3.83-2.87c0.64-0.48,1.29-0.95,1.91-1.45l1.86-1.52
			c2.48-2.01,5.01-3.98,7.41-6.09l3.65-3.12l1.84-1.55l1.79-1.6c2.42-2.11,4.79-4.27,7.26-6.34c-2.15,2.39-4.39,4.7-6.59,7.05
			c-2.2,2.35-4.6,4.5-6.93,6.73c-4.7,4.41-9.68,8.52-14.87,12.37c-5.27,3.72-10.68,7.34-16.63,9.99c-1.49,0.64-3,1.25-4.52,1.83
			l-2.34,0.72l-1.17,0.35l-1.2,0.25c-1.59,0.36-3.21,0.56-4.84,0.62C228.29,397.91,226.62,397.78,225.13,397.15z"/>
	</g>
	<path class="st11" d="M10.23,354.14c0,0-10.18-60.94,9.77-77.91"/>
	<g>
		<path class="st10" d="M170.76,295.45c-0.82-3.2-0.51-6.76,0.93-9.9c0.72-1.56,1.71-3.02,2.93-4.26c0.28-0.34,0.63-0.59,0.96-0.88
			c0.34-0.27,0.65-0.58,1.01-0.82c0.73-0.46,1.4-1.01,2.2-1.37l1.17-0.57c0.39-0.18,0.81-0.3,1.22-0.45
			c0.81-0.32,1.67-0.48,2.51-0.66c1.71-0.23,3.46-0.33,5.15-0.04c3.38,0.51,6.56,1.91,9.09,4.05c-2.97-1.43-6.12-2.3-9.25-2.5
			c-3.14-0.18-6.24,0.47-8.96,1.94c-2.77,1.39-5.09,3.58-6.65,6.26C171.54,288.96,170.77,292.17,170.76,295.45z"/>
	</g>
	<g>
		<path class="st10" d="M168.24,294.34c-2.1-1.92-3.71-4.35-4.9-6.99c-1.12-2.67-1.62-5.68-1.22-8.62c0.37-2.95,1.6-5.78,3.35-8.13
			c1.65-2.46,4.03-4.46,6.69-5.8c5.38-2.64,11.8-2.65,17.21-0.35c2.68,1.17,5.18,2.95,6.85,5.4c1.65,2.44,2.31,5.5,1.72,8.29
			c0.05-1.42-0.12-2.82-0.53-4.14c-0.42-1.31-1.11-2.52-1.98-3.56c-1.72-2.12-4.12-3.57-6.64-4.53c-2.55-0.9-5.28-1.38-7.98-1.23
			c-2.7,0.08-5.37,0.72-7.76,1.92c-2.4,1.17-4.5,2.91-6.05,5.12c-1.71,2.12-2.83,4.63-3.34,7.26
			C162.64,284.29,164.73,289.96,168.24,294.34z"/>
	</g>
	<g>
		<path class="st10" d="M131.97,147.21c0.31-1.19,0.8-2.31,1.37-3.39c0.58-1.08,1.28-2.1,2.1-3.04c0.81-0.93,1.79-1.77,2.95-2.32
			c1.13-0.56,2.52-0.74,3.67-0.27c-1.24-0.05-2.34,0.34-3.3,0.95c-0.95,0.62-1.82,1.4-2.57,2.3
			C134.64,143.2,133.34,145.19,131.97,147.21z"/>
	</g>
	<g>
		<path class="st10" d="M116.52,94.69c0.82-0.77,1.66-1.53,2.53-2.27c0.88-0.74,1.76-1.46,2.8-2.11l0.98,1.74
			c-0.9,0.47-1.82,1.09-2.71,1.73c-0.89,0.64-1.77,1.32-2.64,2.02L116.52,94.69z"/>
	</g>
	<g>
		<path class="st10" d="M140.54,85.07c1.68-1.88,3.85-3.31,6.21-4.27c2.35-1,4.96-1.4,7.52-1.3c2.6,0.13,5.01,0.8,7.46,1.24
			c1.22,0.24,2.45,0.46,3.68,0.64c1.23,0.19,2.47,0.4,3.72,0.32c-2.49,0.46-5.04,0.06-7.52-0.2c-2.5-0.27-4.96-0.91-7.38-1
			c-2.43-0.12-4.89,0.23-7.21,1.02c-1.17,0.37-2.3,0.89-3.38,1.49C142.55,83.59,141.5,84.27,140.54,85.07z"/>
	</g>
	<g>
		<path class="st10" d="M177.99,107.69c-0.92-2.32-0.55-4.97,0.22-7.31c0.79-2.37,2.05-4.57,3.57-6.52
			c0.35-0.51,0.78-0.97,1.18-1.43c0.41-0.46,0.81-0.94,1.23-1.39c0.9-0.84,1.74-1.75,2.7-2.53c0.96-0.77,1.89-1.58,2.88-2.3
			c1.02-0.69,2.02-1.4,3.05-2.06c-0.9,0.84-1.83,1.63-2.74,2.44c-0.92,0.8-1.78,1.66-2.67,2.49c-0.86,0.85-1.68,1.74-2.53,2.61
			c-0.77,0.93-1.61,1.81-2.31,2.78l-1.08,1.45l-0.96,1.52c-0.62,1.02-1.16,2.1-1.61,3.2c-0.47,1.1-0.78,2.26-0.98,3.45
			C177.74,105.27,177.72,106.5,177.99,107.69z"/>
	</g>
	<g>
		<path class="st10" d="M166.83,116.56c-0.87,0.37-1.81,0.57-2.8,0.53c-0.49-0.02-1.01-0.11-1.51-0.38c-0.5-0.26-0.92-0.8-1.04-1.39
			c-0.06-0.61,0-1.05,0.06-1.52c0.08-0.47,0.16-0.94,0.3-1.39c0.26-0.91,0.62-1.8,1.17-2.57c-0.17,0.93-0.3,1.83-0.41,2.72
			c-0.04,0.45-0.1,0.89-0.12,1.34c-0.04,0.44-0.06,0.93-0.02,1.23c0.1,0.63,0.8,1.02,1.66,1.18
			C164.97,116.49,165.89,116.52,166.83,116.56z"/>
	</g>
	<g>
		<path class="st10" d="M170.96,117.78c1.56-0.38,3.02-0.74,4.37-1.34c0.67-0.3,1.29-0.68,1.87-1.13c0.58-0.46,1.05-1.03,1.55-1.67
			c-0.11,0.79-0.45,1.59-1,2.23c-0.55,0.64-1.26,1.13-2.01,1.48c-0.76,0.33-1.57,0.54-2.38,0.61
			C172.56,118.03,171.74,118.01,170.96,117.78z"/>
	</g>
	<g>
		<path class="st10" d="M143.75,74.37c1.07-1.24,2.43-2.23,3.88-3.02c1.45-0.81,3.04-1.4,4.69-1.76c1.65-0.37,3.37-0.51,5.07-0.38
			c1.71,0.08,3.38,0.51,4.99,1.04l-0.27-0.06c0.94,0.15,1.96,0.27,2.95,0.37c1,0.1,1.99,0.17,2.99,0.21c1,0.07,1.98,0.02,2.97-0.06
			c0.98-0.12,1.97-0.28,2.83-0.92c-0.48,0.99-1.5,1.66-2.5,2.09c-1.01,0.46-2.09,0.72-3.15,0.93c-1.07,0.18-2.15,0.29-3.22,0.33
			c-1.08,0.04-2.13,0.01-3.24-0.08l-0.04,0l-0.23-0.06c-1.43-0.36-2.86-0.71-4.33-0.82c-1.46-0.17-2.94-0.14-4.43-0.02
			C149.74,72.4,146.76,73.18,143.75,74.37z"/>
	</g>
	<g>
		<path class="st10" d="M206.88,43.03c1.03,2.1,1.54,4.46,1.53,6.85c0,2.39-0.67,4.85-2.04,6.9c-1.38,2.05-3.41,3.58-5.61,4.5
			c-2.2,0.95-4.54,1.4-6.87,1.46c2.23-0.67,4.4-1.43,6.35-2.51c1.95-1.07,3.69-2.48,4.88-4.29c1.23-1.78,1.89-3.92,2.12-6.13
			C207.46,47.6,207.32,45.31,206.88,43.03z"/>
	</g>
	<g>
		<path class="st10" d="M180.4,128.23c-1.33,1.66-2.91,3.07-4.58,4.32c-1.67,1.26-3.46,2.35-5.31,3.31
			c-3.7,1.91-7.67,3.34-11.8,4.09c-4.12,0.73-8.5,0.78-12.62-0.62c-2.06-0.71-3.95-1.87-5.58-3.2c-1.67-1.32-3.15-2.83-4.51-4.44
			c-5.36-6.52-8.55-14.37-10.82-22.28c-1.13-3.97-1.99-8-2.68-12.06c-0.69-4.05-1.2-8.15-1-12.28c0.86,4.03,1.53,8.04,2.31,12.04
			c0.8,3.99,1.8,7.94,2.99,11.82c1.18,3.88,2.63,7.67,4.34,11.33c1.73,3.64,3.78,7.13,6.35,10.17c1.29,1.52,2.69,2.93,4.24,4.14
			c1.56,1.24,3.19,2.25,5,2.89c3.65,1.28,7.73,1.3,11.64,0.62c3.93-0.67,7.78-1.94,11.38-3.71c3.57-1.78,7.08-3.95,9.68-6.93
			L180.4,128.23z"/>
	</g>
	<g>
		<path class="st10" d="M179.43,127.43c4.53-2.96,8.68-6.62,11.69-11.07c1.47-2.22,2.67-4.67,3-7.23c0.08-0.64,0.06-1.23,0.11-2.02
			c0.06-0.73,0.18-1.44,0.32-2.14c0.31-1.39,0.75-2.73,1.26-4.04c1.01-2.62,2.3-5.11,3.79-7.48c0.75-1.18,1.59-2.34,2.44-3.42
			c0.84-1.05,1.6-2.15,2.31-3.29c1.43-2.26,2.61-4.69,3.51-7.2c0.9-2.52,1.52-5.12,1.93-7.76l-0.01,0.09
			c0.01-0.27-0.06-0.76-0.17-1.14c-0.11-0.41-0.28-0.81-0.49-1.19c-0.41-0.77-1.01-1.45-1.7-2.04c-1.4-1.19-3.19-1.95-5.03-2.51
			c-3.73-1.07-7.73-1.22-11.68-1.18c1.97-0.26,3.95-0.4,5.95-0.4c1.99,0.01,4,0.14,5.99,0.55c1.98,0.42,3.98,1.09,5.7,2.36
			c0.85,0.64,1.64,1.41,2.24,2.35c0.3,0.47,0.56,0.97,0.75,1.5c0.19,0.56,0.33,1.05,0.36,1.77l0,0.02l-0.01,0.07
			c-0.29,2.81-0.97,5.57-1.97,8.21c-0.99,2.64-2.26,5.17-3.8,7.52c-0.77,1.18-1.58,2.32-2.47,3.41c-0.86,1.06-1.65,2.11-2.39,3.24
			c-1.46,2.25-2.74,4.64-3.75,7.13c-0.5,1.24-0.94,2.51-1.24,3.79c-0.14,0.64-0.26,1.28-0.32,1.92c-0.04,0.58-0.04,1.36-0.14,2.09
			c-0.42,2.92-1.77,5.5-3.34,7.82c-3.23,4.62-7.54,8.3-12.22,11.27L179.43,127.43z"/>
	</g>
	<path class="st11" d="M121.69,74.8c0.37-0.23,5.63-3.8,5.96-4.09c2.27-2.01,2.77-1.05,10-10.49"/>
	<g>
		<path class="st10" d="M117.78,69.48c2.64-0.12,5.17-0.9,7.54-1.9c2.38-1.02,4.61-2.35,6.69-3.86c2.1-1.5,4.02-3.24,5.85-5.06
			c0.92-0.91,1.78-1.87,2.65-2.85c0.92-1.02,1.9-1.98,2.97-2.83c2.12-1.73,4.53-3.12,7.1-4.05c2.55-0.97,5.24-1.49,7.93-1.7
			c5.37-0.37,10.77,0.43,15.71,2.32c-5.14-1.16-10.44-1.51-15.56-0.86c-5.1,0.68-10.04,2.53-13.93,5.8
			c-0.99,0.79-1.86,1.71-2.73,2.64c-0.89,0.98-1.81,1.97-2.77,2.91c-1.91,1.89-4.03,3.58-6.28,5.06c-2.27,1.45-4.7,2.68-7.27,3.48
			C123.13,69.35,120.42,69.85,117.78,69.48z"/>
	</g>
	<g>
		<path class="st10" d="M160.31,30.96c-2.93-0.19-5.81,0.29-8.62,0.91c-2.81,0.66-5.53,1.61-8.19,2.7
			c-2.67,1.06-5.23,2.41-7.77,3.77c-1.26,0.7-2.49,1.47-3.74,2.19l-3.65,2.35l0.13-0.11c-0.97,0.92-1.95,1.59-3.01,2.25
			c-1.04,0.65-2.15,1.19-3.27,1.66c-1.13,0.46-2.28,0.85-3.46,1.13c-1.17,0.3-2.37,0.47-3.56,0.59c1.14-0.36,2.27-0.73,3.36-1.19
			c1.1-0.42,2.15-0.97,3.18-1.51c1.03-0.55,2-1.2,2.94-1.87c0.92-0.67,1.85-1.44,2.56-2.21l0.06-0.06l0.07-0.05l3.62-2.57
			c1.26-0.78,2.51-1.57,3.79-2.31c1.31-0.69,2.59-1.45,3.96-2.04l2.03-0.92c0.68-0.29,1.39-0.53,2.08-0.8
			c2.79-1.02,5.68-1.82,8.63-2.21c0.74-0.07,1.48-0.17,2.22-0.22c0.75-0.02,1.48-0.07,2.23-0.04
			C157.4,30.4,158.89,30.55,160.31,30.96z"/>
	</g>
	<g>
		<path class="st12" d="M126.78,30.7"/>
	</g>
	<g>
		<path class="st12" d="M108.59,48.38"/>
	</g>
	<g>
		<path class="st10" d="M193.58,21.83c-2.8-3.67-6.47-6.58-10.48-8.7c-4.02-2.11-8.44-3.4-12.93-3.85c-4.49-0.5-9.05-0.14-13.5,0.72
			c-4.46,0.83-8.8,2.28-13,4.01c-8.38,3.57-16.09,8.66-23.07,14.58c-3.49,2.97-6.79,6.16-9.91,9.54c-3.11,3.38-6.01,6.97-8.49,10.87
			c2.11-4.12,4.88-7.87,7.79-11.47c2.96-3.57,6.15-6.96,9.61-10.06c6.87-6.25,14.69-11.56,23.29-15.27c4.3-1.83,8.8-3.25,13.42-4.09
			c2.3-0.46,4.65-0.69,7-0.78c2.35-0.1,4.72,0,7.05,0.32c4.67,0.63,9.23,2.16,13.25,4.58c2,1.22,3.87,2.65,5.56,4.25
			C190.86,18.07,192.4,19.84,193.58,21.83z"/>
	</g>
	<g>
		<path class="st10" d="M201.55,28.58c1.88,0.38,3.72,0.94,5.53,1.59c1.81,0.64,3.59,1.41,5.32,2.26c3.44,1.75,6.73,3.93,9.44,6.79
			c2.73,2.81,4.9,6.32,5.83,10.23c0.96,3.9,0.73,8-0.21,11.82c-2.02,7.68-6.5,14.27-11.43,20.14c-4.98,5.89-10.68,11.08-16.64,15.88
			c5.45-5.39,10.73-10.91,15.43-16.87l1.75-2.24l1.62-2.33c1.13-1.52,2.05-3.17,3.02-4.78c1.8-3.28,3.49-6.67,4.32-10.29
			c0.92-3.58,1.13-7.33,0.31-10.89c-0.74-3.59-2.69-6.84-5.14-9.62c-2.46-2.79-5.51-5.08-8.77-6.99
			C208.69,31.33,205.18,29.8,201.55,28.58z"/>
	</g>
	<g>
		<path class="st10" d="M197.04,77.7c1.02,0.83,1.78,1.68,2.47,2.54c0.7,0.84,1.3,1.69,1.88,2.51l1.67,2.43
			c0.59,0.78,1.16,1.56,2.12,2.46l-0.03,0.2c-1.15-0.16-2.21-0.7-3.1-1.42c-0.91-0.71-1.65-1.6-2.31-2.52
			c-0.65-0.94-1.2-1.94-1.68-2.96c-0.49-1.02-0.9-2.08-1.22-3.17L197.04,77.7z"/>
	</g>
	<path class="st11" d="M190.15,277.46c0,0,3.11,11.08,18.02,16.89c14.91,5.81,27.45,10.7,33.72,15.13
		c6.27,4.43,10.7,12.84,11.92,19.72c1.22,6.88,1.07,22.78-4.59,21.25"/>
	<g>
		<path class="st10" d="M241.61,358.54c0.77,0.61,1.73,1.19,2.63,1.49c0.46,0.17,0.9,0.22,1.3,0.23c0.17-0.05,0.38-0.02,0.52-0.12
			c0.07-0.04,0.16-0.05,0.23-0.1c0.06-0.06,0.13-0.11,0.2-0.16c0.56-0.45,0.84-1.43,1.04-2.45c0.19-1.07,0.32-2.18,0.41-3.29
			c0.35-4.46,0.3-8.99,0.19-13.51c-0.07-2.26-0.17-4.52-0.32-6.77c-0.02-0.28-0.04-0.57-0.07-0.84l-0.12-0.76
			c-0.14-0.51-0.25-1.04-0.45-1.56c-0.35-1.04-0.78-2.08-1.24-3.1c-1.89-4.08-4.11-8.05-6.34-12.01c1.38,1.81,2.69,3.67,3.93,5.59
			c1.25,1.91,2.41,3.87,3.46,5.92c0.53,1.02,1.03,2.06,1.45,3.16c0.22,0.54,0.38,1.12,0.54,1.7l0.17,0.92
			c0.04,0.3,0.06,0.57,0.09,0.86c0.22,2.28,0.39,4.55,0.53,6.83c0.26,4.56,0.39,9.12,0.1,13.73c-0.08,1.15-0.19,2.31-0.38,3.48
			c-0.23,1.17-0.5,2.56-1.7,3.63c-0.58,0.55-1.41,0.79-2.15,0.86c-0.73,0.01-1.43-0.1-2.04-0.33c-1.25-0.43-2.26-1.06-3.27-1.84
			L241.61,358.54z"/>
	</g>
	<g>
		<path class="st10" d="M234.87,357.31c0.57,0.67,1.36,1.33,2.11,1.66c0.78,0.33,1.42,0.3,2.01-0.12c0.62-0.44,1.07-1.32,1.47-2.18
			c0.39-0.9,0.68-1.88,0.92-2.87c0.93-4,1.15-8.23,1.18-12.41c0.16-4.22-0.65-8.13-2.31-11.97l-5.09-11.68l6.43,11.03
			c1.11,1.83,2.04,3.92,2.46,6.09c0.48,2.16,0.53,4.43,0.51,6.54c-0.04,4.29-0.24,8.6-1.24,12.88c-0.26,1.07-0.57,2.14-1.02,3.18
			c-0.49,1.04-1,2.15-2.11,3c-0.31,0.18-0.6,0.39-0.94,0.51c-0.35,0.11-0.7,0.23-1.07,0.22c-0.74,0.07-1.41-0.15-2.01-0.39
			c-1.18-0.55-2.05-1.3-2.86-2.24L234.87,357.31z"/>
	</g>
	<g>
		<path class="st10" d="M172.59,287.8c2.42,5.02,4.95,10.01,7.64,14.88c1.34,2.44,2.74,4.85,4.23,7.17
			c0.74,1.16,1.53,2.28,2.36,3.33c0.87,1.07,1.77,2.13,2.68,3.19c3.64,4.24,7.37,8.45,10.71,13.04c1.65,2.31,3.24,4.69,4.41,7.4
			c0.58,1.44,0.9,2.66,1.52,3.81c0.3,0.57,0.64,1.09,1.02,1.52c0.19,0.22,0.4,0.39,0.59,0.52c0.1,0.06,0.19,0.12,0.28,0.15
			c0.04,0.02,0.08,0.03,0.11,0.04c0.01,0.01,0.1,0-0.04,0.01l0.39,0.04c0.15,0.04,0.49,0.08,0.71,0.05c0.25-0.03,0.46-0.1,0.65-0.21
			c0.37-0.22,0.66-0.66,0.85-1.24c0.17-0.58,0.26-1.26,0.26-1.95c0.01-0.68-0.06-1.41-0.11-2.17c-0.24-2.96-0.77-5.82-2.12-8.35
			c-1.34-2.53-3.28-4.76-5.43-6.81l-0.81-0.78c-0.28-0.29-0.36-0.45-0.5-0.69c-0.11-0.22-0.21-0.44-0.28-0.67
			c-0.28-0.92-0.21-1.85,0.01-2.67c0.45-1.65,1.43-2.93,2.51-4.01c-0.65,1.38-1.14,2.85-1.14,4.2c0,0.67,0.16,1.3,0.41,1.8
			c0.06,0.13,0.13,0.25,0.2,0.36c0.06,0.09,0.18,0.25,0.17,0.23l0.83,0.78c2.22,2.11,4.33,4.49,5.83,7.32
			c1.52,2.84,2.11,6.06,2.35,9.11c0.12,1.49,0.29,3.17-0.23,4.89c-0.27,0.85-0.78,1.8-1.73,2.37c-0.46,0.28-0.98,0.44-1.49,0.49
			c-0.53,0.04-0.96,0.03-1.54-0.13l0.39,0.04c-0.32,0.01-0.4-0.02-0.56-0.05c-0.14-0.03-0.27-0.07-0.39-0.12
			c-0.24-0.09-0.46-0.21-0.65-0.34c-0.39-0.25-0.71-0.55-0.99-0.85c-0.56-0.61-0.97-1.27-1.33-1.95c-0.72-1.32-1.12-2.82-1.6-3.97
			c-1.05-2.44-2.58-4.75-4.19-6.99c-3.26-4.47-6.96-8.64-10.62-12.89c-0.91-1.06-1.83-2.13-2.72-3.23c-0.9-1.14-1.73-2.32-2.49-3.51
			c-1.53-2.39-2.93-4.84-4.28-7.3c-2.69-4.94-5.22-9.95-7.64-15.02L172.59,287.8z"/>
	</g>
	<g>
		<path class="st10" d="M202.66,316.78c3.37,1.19,6.52,2.7,9.54,4.53c3,1.85,5.86,4.03,8.16,6.82c0.57,0.69,1.12,1.44,1.58,2.2
			c0.47,0.75,0.93,1.51,1.35,2.29c0.84,1.56,1.59,3.17,2.2,4.83c1.23,3.33,2.1,6.73,2.41,10.35l-0.06-0.3
			c0.45,1.14,0.96,2.3,1.48,3.42c0.53,1.12,1.1,2.23,1.74,3.25c0.63,0.99,1.4,2.04,2.12,2.47c0.17,0.1,0.29,0.12,0.35,0.12
			c0.06-0.01,0.12-0.01,0.25-0.12c0.25-0.21,0.53-0.7,0.74-1.21l-0.06,0.24c0.35-2.88,0.42-5.88,0.36-8.83
			c-0.07-2.96-0.37-5.91-0.94-8.8c-0.58-2.88-1.46-5.76-2.34-8.59c-0.92-2.83-1.92-5.65-3.27-8.35c1.85,2.4,3.17,5.16,4.36,7.94
			c1.14,2.82,2.1,5.67,2.79,8.66c0.67,2.98,1.08,6.02,1.24,9.06c0.18,3.05,0.11,6.08-0.21,9.17l-0.01,0.12l-0.05,0.12
			c-0.27,0.66-0.56,1.35-1.26,2c-0.34,0.32-0.88,0.6-1.46,0.64c-0.58,0.03-1.09-0.14-1.47-0.35c-1.48-0.9-2.16-2.06-2.9-3.18
			c-1.38-2.28-2.43-4.63-3.34-7.08l-0.05-0.12l-0.01-0.17c-0.28-3.26-1.11-6.62-2.29-9.75c-0.58-1.58-1.29-3.11-2.09-4.58
			c-0.39-0.74-0.82-1.46-1.27-2.17c-0.44-0.72-0.92-1.36-1.44-2c-2.1-2.55-4.8-4.62-7.66-6.38c-2.87-1.74-5.99-3.23-9.12-4.34
			L202.66,316.78z"/>
	</g>
	<path class="st11" d="M247.84,315.5c0,0,51.22,11.86,52.44,38c0,0-0.4,50.1-1.68,54.52"/>
	<g>
		<path class="st10" d="M110.34,403.57c-3.32-3.57-6.85-6.92-10.54-10.09c-3.66-3.2-7.47-6.2-11.38-9.07
			c-7.83-5.73-16.13-10.78-24.8-15.07c-4.33-2.15-8.79-4.06-13.3-5.81c-4.52-1.72-9.13-3.21-13.8-4.52
			c-4.68-1.24-9.4-2.37-14.2-3.14c-4.78-0.92-9.62-1.35-14.48-1.83c9.75,0.01,19.54,1.13,29.07,3.46c4.77,1.14,9.45,2.62,14.07,4.26
			c4.59,1.72,9.11,3.64,13.52,5.8c8.77,4.39,17.14,9.58,24.86,15.62C97.07,389.19,104.27,395.92,110.34,403.57z"/>
	</g>
	<g>
		<path class="st10" d="M123.11,401.27c-2.28-1.78-4.53-3.52-6.82-5.2c-2.3-1.66-4.61-3.29-7.02-4.72
			c-1.19-0.75-2.42-1.42-3.66-2.06c-1.23-0.66-2.51-1.21-3.81-1.74c-2.6-1.03-5.31-1.71-8.2-1.87c2.82-0.68,5.88-0.41,8.69,0.39
			c2.85,0.77,5.51,2.07,8.01,3.57c2.49,1.53,4.82,3.28,6.96,5.23C119.42,396.81,121.42,398.92,123.11,401.27z"/>
	</g>
	<g>
		<path class="st10" d="M160.79,403.57c-3.97-1.95-8.01-3.65-12.11-5.18c-4.1-1.53-8.25-2.9-12.47-4
			c-4.21-1.15-8.47-2.09-12.79-2.78c-4.31-0.78-8.67-1.13-13.08-1.57c4.4-0.39,8.86-0.47,13.28,0.02c2.22,0.14,4.41,0.58,6.61,0.9
			c1.1,0.19,2.17,0.47,3.26,0.7l1.63,0.36l1.61,0.43c2.15,0.57,4.26,1.27,6.37,1.98c2.08,0.79,4.16,1.57,6.17,2.51
			C153.32,398.78,157.24,400.91,160.79,403.57z"/>
	</g>
	<g>
		<path class="st10" d="M149.78,407.01c-1.58-0.32-3.05-0.98-4.43-1.77c-1.38-0.8-2.68-1.76-3.83-2.89
			c-1.15-1.14-2.13-2.46-2.88-3.92c-0.71-1.47-1.13-3.11-1.05-4.71c0.74,1.44,1.5,2.7,2.38,3.9c0.92,1.17,1.91,2.25,2.96,3.31
			C145.05,403.02,147.39,404.9,149.78,407.01z"/>
	</g>
	<g>
		<path class="st12" d="M81.99,103.57"/>
	</g>
	<g>
		<path class="st12" d="M76.18,84.15"/>
	</g>
	<g>
		<path class="st12" d="M71.44,82.74"/>
	</g>
	<g>
		<path class="st12" d="M72.05,89.5"/>
	</g>
	<g>
		<path class="st12" d="M87.03,100.74"/>
	</g>
	<g>
		<path class="st12" d="M78.47,95.92"/>
	</g>
	<g>
		<path class="st12" d="M112.64,95.92"/>
	</g>
	<g>
		<path class="st12" d="M78.47,92.56"/>
	</g>
	<path class="st11" d="M117.91,163.08c7.96,7.65,16.36,15.24,16.36,15.24s23.83-22.55,26.68-39.54"/>
	<path class="st11" d="M132.74,169.65c0,0,16.2-20.1,17.43-29.73"/>
	<path class="st11" d="M114.09,144.08c11.51,15.04,20.18,25.3,20.18,33.17"/>
	<g>
		<path class="st10" d="M115.92,155.12c2.99,2.36,5.71,5,8.32,7.76c1.28,1.4,2.55,2.82,3.71,4.33c1.14,1.51,2.3,3.08,2.95,4.88
			c-0.51-0.81-1.05-1.56-1.69-2.26c-0.6-0.73-1.24-1.42-1.86-2.12c-1.27-1.39-2.56-2.77-3.84-4.15
			C120.94,160.8,118.36,158.05,115.92,155.12z"/>
	</g>
	<g>
		<path class="st10" d="M135.8,172.09l2.68-3.75c0.88-1.25,1.77-2.48,2.61-3.75c1.69-2.53,3.26-5.11,4.5-7.94
			c-0.49,3.08-1.98,5.92-3.67,8.49C140.16,167.7,138.16,170.09,135.8,172.09z"/>
	</g>
	<g>
		<path class="st10" d="M143.75,86.29c1.54,1.57,3.13,2.99,4.79,4.28c1.67,1.27,3.43,2.4,5.29,3.27c1.84,0.93,3.83,1.49,5.87,1.83
			c2.05,0.41,4.15,0.28,6.37,0.24c-2.01,0.84-4.24,1.45-6.51,1.31l-0.85,0c-0.28-0.03-0.56-0.08-0.84-0.13
			c-0.56-0.1-1.13-0.15-1.68-0.3c-0.55-0.16-1.09-0.33-1.63-0.5c-0.54-0.18-1.05-0.44-1.57-0.65c-2.04-0.99-3.91-2.32-5.47-3.92
			C145.95,90.14,144.6,88.33,143.75,86.29z"/>
	</g>
	<g>
		<path class="st10" d="M164.38,88.93c0.07,0.78-0.03,1.55-0.24,2.3c-0.2,0.75-0.54,1.48-1.02,2.14c-0.49,0.64-1.15,1.23-1.97,1.47
			c-0.83,0.24-1.68,0.08-2.35-0.29c0.79-0.04,1.47-0.14,2.07-0.44c0.58-0.32,1.05-0.79,1.46-1.34
			C163.16,91.66,163.71,90.31,164.38,88.93z"/>
	</g>
	<path class="st13" d="M151.54,122.52c0,0,0.99,6.69,6.11,8.03c4.5,1.17,11.01,1.15,13.3-2.68c2.29-3.82-0.92-4.74-0.92-4.74
		s-3.97,1.07-5.2-0.61S154.9,120.08,151.54,122.52z"/>
	<g>
		<path class="st10" d="M153.07,123.44c3.04,0.54,6,1.29,8.96,2.01c1.48,0.37,2.96,0.72,4.44,1.05c0.74,0.16,1.48,0.31,2.23,0.42
			c0.75,0.12,1.5,0.23,2.25,0.03c-0.68,0.42-1.51,0.41-2.28,0.46c-0.78,0-1.56-0.05-2.33-0.14c-1.54-0.18-3.05-0.5-4.55-0.85
			C158.81,125.67,155.88,124.73,153.07,123.44z"/>
	</g>
	<g>
		<path class="st10" d="M180.89,100.78c2.51,0.36,4.78,0.93,7.03,1.14c1.12,0.09,2.23,0.18,3.3,0c1.08-0.15,2.13-0.52,3.27-1.14
			c-0.5,1.18-1.59,2.14-2.84,2.65c-1.27,0.54-2.64,0.59-3.93,0.48c-1.3-0.13-2.54-0.49-3.7-1.01
			C182.88,102.37,181.79,101.71,180.89,100.78z"/>
	</g>
	<g>
		<path class="st10" d="M183.8,94.69c0.62-0.73,1.36-1.35,2.15-1.89c0.79-0.54,1.65-0.99,2.56-1.34c0.91-0.33,1.91-0.54,2.93-0.43
			c1.01,0.08,2.02,0.65,2.46,1.52c-0.78-0.59-1.63-0.79-2.49-0.74c-0.86,0.05-1.72,0.27-2.56,0.59
			C187.15,93.03,185.52,93.89,183.8,94.69z"/>
	</g>
	<g>
		<path class="st10" d="M170.35,38.35c-0.04-0.06-0.17-0.12-0.09-0.25c0.1-0.08,0.19-0.06,0.29-0.06c0.18,0.01,0.36,0.04,0.53,0.07
			c0.35,0.08,0.68,0.19,1.02,0.31c0.66,0.24,1.3,0.54,1.93,0.85c1.25,0.65,2.44,1.41,3.56,2.28c2.25,1.72,4.2,3.85,5.73,6.27
			c1.5,2.43,2.56,5.19,2.9,8.03c0.37,2.84,0.06,5.72-0.89,8.34c0.13-2.78-0.03-5.48-0.65-8.06c-0.62-2.58-1.65-5.02-3.06-7.25
			c-1.38-2.25-3.12-4.28-5.05-6.15c-0.97-0.92-1.99-1.82-3.07-2.63c-0.53-0.42-1.09-0.81-1.66-1.18c-0.28-0.19-0.57-0.36-0.87-0.52
			c-0.15-0.08-0.3-0.16-0.46-0.21c-0.07-0.02-0.17-0.05-0.21-0.03C170.26,38.18,170.31,38.29,170.35,38.35z"/>
	</g>
	<path class="st11" d="M180.76,231.85c0,0-3.08-34.34-2.93-45.89c0.15-11.62-8.14-40.97-8.14-40.97"/>
	<path class="st11" d="M211.96,337.3c0,0,10.38,0.4,11.32,0"/>
	<path class="st11" d="M212.96,337.82c0,0,11.1,6.72,13.26,5.54"/>
	<g>
		<path class="st10" d="M187.43,64.91c2.03-1.94,3.52-4.31,4.7-6.76c1.17-2.47,1.95-5.09,2.41-7.77c0.22-1.34,0.36-2.69,0.44-4.05
			c0.05-1.35,0.1-2.76-0.04-4.01c-0.29-2.58-1.36-5.08-2.81-7.34c-2.94-4.53-7.13-8.27-11.6-11.49c-2.24-1.62-4.61-3.07-7.04-4.41
			c-1.22-0.66-2.47-1.28-3.75-1.8c-0.64-0.26-1.3-0.49-1.96-0.7c-0.66-0.18-1.35-0.38-2.04-0.26c0.68-0.2,1.41-0.08,2.1,0.02
			c0.7,0.12,1.38,0.31,2.05,0.52c1.35,0.42,2.66,0.93,3.96,1.49c2.59,1.11,5.06,2.49,7.46,3.99c4.73,3.07,9.2,6.75,12.44,11.59
			c1.58,2.42,2.83,5.17,3.17,8.17c0.15,1.52,0.07,2.92-0.01,4.36c-0.09,1.43-0.31,2.86-0.61,4.27c-0.6,2.81-1.64,5.54-3.12,8
			c-0.74,1.23-1.59,2.38-2.56,3.43C189.67,63.19,188.64,64.18,187.43,64.91z"/>
	</g>
	<g>
		<path class="st10" d="M94.4,85.1c-1.79,3.68-3.12,7.51-4.22,11.39c-0.27,0.97-0.54,1.94-0.76,2.92c-0.23,0.98-0.49,1.95-0.65,2.95
			c-0.17,0.99-0.41,1.97-0.56,2.96l-0.43,2.99c-0.16,0.99-0.22,2-0.33,3l-0.15,1.5c-0.04,0.5-0.04,1.01-0.08,1.51l-0.17,3.02
			l-0.01,3.03c-0.02,1.01-0.02,2.02,0.05,3.03l0.12,3.04c0.09,2.03,0.35,4.05,0.44,6.1c-0.52-1.97-1.05-3.97-1.42-5.99
			c-0.28-2.03-0.69-4.06-0.76-6.13c-0.4-4.11-0.13-8.26,0.31-12.37c0.54-4.1,1.51-8.15,2.9-12.04C90.1,92.14,91.89,88.36,94.4,85.1z
			"/>
	</g>
	<g>
		<path class="st10" d="M107.9,86.79l6.2-2.91c1.02-0.48,2.03-0.96,3.08-1.39l1.58-0.64l0.8-0.32l0.4-0.16l0.2-0.08l0.1-0.04
			c0.02,0,0.03-0.02,0.06-0.01c0.04,0.04,0.13,0.14,0.31,0.41c0.15,0.29,0.21,0.41,0.22,0.46c0,0.03-0.03,0.03-0.04,0.04l-0.09,0.07
			l-0.17,0.14l-0.35,0.27l-0.7,0.54c-0.48,0.34-0.95,0.69-1.45,1c-1,0.62-2.07,1.13-3.17,1.55c-1.1,0.42-2.25,0.74-3.42,0.95
			C110.3,86.87,109.09,86.98,107.9,86.79z"/>
	</g>
	<g>
		<path class="st10" d="M143.75,122.45c0.55-1.16,0.84-2.39,1.12-3.6c0.25-1.22,0.44-2.46,0.57-3.7l0.06-0.57l0.58,0.14
			c0.64,0.16,1.47,0.19,2.23,0.21c0.78,0.02,1.56-0.02,2.35-0.06c0.79-0.05,1.58-0.11,2.37-0.18l2.39-0.23
			c-0.75,0.28-1.53,0.49-2.3,0.71c-0.78,0.19-1.57,0.36-2.37,0.48c-0.8,0.13-1.61,0.2-2.42,0.23c-0.83,0.02-1.61,0.01-2.52-0.19
			l0.64-0.43c-0.07,0.64-0.17,1.29-0.29,1.92c-0.15,0.63-0.29,1.27-0.51,1.88c-0.21,0.62-0.46,1.22-0.76,1.8
			C144.53,121.42,144.21,121.99,143.75,122.45z"/>
	</g>
	<g>
		<path class="st10" d="M102.79,65.64c1.86,0.68,3.63,1.6,5.28,2.73c0.83,0.56,1.61,1.21,2.34,1.96c0.37,0.37,0.69,0.81,0.98,1.29
			c0.27,0.5,0.54,1.06,0.52,1.76c-0.01,0.68-0.36,1.41-0.84,1.8c-0.46,0.43-0.97,0.69-1.47,0.89c-1.01,0.36-2.02,0.59-3.02,0.66
			c-2,0.19-3.98,0.1-5.94-0.19c1.95-0.34,3.89-0.57,5.76-0.97c0.93-0.2,1.84-0.44,2.65-0.81c0.81-0.36,1.41-0.87,1.37-1.42
			c0.04-0.59-0.49-1.4-1.06-2.08c-0.58-0.71-1.29-1.34-2-1.98C105.9,68.04,104.35,66.86,102.79,65.64z"/>
	</g>
	<g>
		<path class="st10" d="M130.18,76.93c-1.84-0.22-3.69-0.44-5.53-0.8c-0.92-0.18-1.84-0.36-2.76-0.63
			c-0.46-0.13-0.92-0.28-1.37-0.47c-0.46-0.2-0.92-0.41-1.4-0.84l0,0l0.4,0.19c-0.41-0.11-0.45-0.2-0.59-0.26l-0.3-0.21l-0.55-0.41
			l-1.04-0.84l-2.03-1.7l-3.98-3.46l-1.98-1.75c-0.68-0.61-1.24-1.16-1.94-1.56c-0.7-0.43-1.42-0.73-2.22-0.94
			c-0.38-0.1-0.86-0.21-1.2-0.26c-0.15-0.02-0.3-0.01-0.57-0.02l-0.11,0l-0.09,0.01c-0.07,0.01-0.16,0.03-0.25,0.05
			c-0.37,0.1-0.77,0.24-1.18,0.39c-0.38,0.13-0.74,0.3-1.11,0.49c-0.36,0.19-0.73,0.41-1.1,0.63c-0.35,0.21-0.68,0.44-0.99,0.7
			c-1.26,1.01-2.11,2.4-2.37,3.98c-0.28,1.57-0.05,3.25,0.48,4.82c0.26,0.79,0.6,1.55,1,2.29c0.05,0.1,0.18,0.27,0.31,0.45
			c0.08,0.1,0.24,0.27,0.36,0.38l0.99,0.5l0,0l-0.2-0.07l6.86,1.18c1.14,0.2,2.28,0.38,3.42,0.55c0.57,0.08,1.14,0.16,1.7,0.22
			c0.52,0.06,1.12,0.06,1.72,0.11c2.36,0.2,4.67,0.56,6.98,1.06c1.15,0.24,2.29,0.58,3.4,0.99c1.09,0.45,2.24,0.95,3.02,1.94
			l-0.21,0.19c-0.89-0.66-2.01-0.97-3.1-1.27c-1.09-0.31-2.22-0.52-3.35-0.74c-2.26-0.41-4.56-0.68-6.83-0.79
			c-0.56-0.03-1.12-0.02-1.76-0.07c-0.6-0.05-1.18-0.12-1.76-0.2c-1.16-0.15-2.32-0.32-3.47-0.5c-2.3-0.36-4.59-0.78-6.88-1.2
			l-0.11-0.02L98.41,79l0,0l-0.59-0.3l-0.3-0.15l-0.16-0.09l-0.13-0.08c-0.09-0.06-0.09-0.07-0.1-0.08l-0.04-0.04
			c-0.2-0.19-0.34-0.33-0.54-0.58c-0.12-0.18-0.28-0.35-0.43-0.63c-0.44-0.81-0.81-1.65-1.11-2.53c-0.58-1.75-0.87-3.66-0.53-5.56
			c0.3-1.9,1.41-3.7,2.9-4.87c0.37-0.3,0.76-0.57,1.16-0.82c0.38-0.23,0.77-0.46,1.18-0.68c0.41-0.22,0.85-0.42,1.3-0.58
			c0.41-0.15,0.84-0.3,1.32-0.43c0.12-0.03,0.25-0.06,0.39-0.08c0.07-0.01,0.15-0.02,0.24-0.03l0.22,0c0.17,0,0.46-0.01,0.74,0.03
			c0.53,0.09,0.9,0.18,1.38,0.3c0.91,0.23,1.82,0.61,2.61,1.1c0.84,0.48,1.54,1.17,2.17,1.73l1.96,1.74l3.96,3.45l2,1.69l1.01,0.81
			l0.5,0.38l0.24,0.17c0.05,0.05,0.2,0.08,0,0.04l0.4,0.19l0,0c0.48,0.39,1.4,0.76,2.21,1.09c0.84,0.32,1.7,0.64,2.58,0.93
			c1.75,0.57,3.52,1.09,5.31,1.64L130.18,76.93z"/>
	</g>
	<path class="st13" d="M109.66,43.03"/>
	<path class="st11" d="M76.18,150.8"/>
	<g>
		<path class="st10" d="M117.78,39.9c-6.45,3.48-12.32,7.93-17.6,12.94c-5.3,4.99-10.03,10.59-13.88,16.74
			c-3.87,6.13-7.04,12.71-9.19,19.63c-1.13,3.44-1.94,6.98-2.61,10.54c-0.27,1.79-0.63,3.57-0.79,5.38l-0.31,2.7
			c-0.07,0.9-0.17,1.79-0.19,2.69c-0.32,7.19,0.94,14.41,3.24,21.26c2.3,6.87,5.61,13.38,9.4,19.59c3.82,6.2,8.22,12.04,12.97,17.59
			c4.73,5.56,9.84,10.83,15.3,15.7c-11.39-9.22-21.46-20.16-29.53-32.5c-4.03-6.17-7.43-12.8-9.84-19.81
			c-2.41-7-3.78-14.44-3.5-21.92c0.42-7.43,1.8-14.74,4.11-21.79c1.12-3.53,2.53-6.96,4.13-10.3c1.58-3.35,3.44-6.56,5.49-9.63
			C93.21,56.47,104.54,46.23,117.78,39.9z"/>
	</g>
	<g>
		<path class="st10" d="M128.34,154.78c-4.69-4.48-8.13-10.21-10.6-16.24c-2.48-6.06-3.79-12.57-4.22-19.09
			c-0.18-3.27-0.1-6.54,0.14-9.8c0.35-3.24,0.74-6.49,1.5-9.66c1.37-6.37,3.55-12.52,6.34-18.36c-2.07,6.12-3.72,12.35-4.81,18.65
			c-0.57,3.15-0.91,6.33-1.14,9.5c-0.17,3.18-0.23,6.37-0.03,9.54c0.38,6.34,1.56,12.65,3.68,18.66c1.06,3,2.34,5.93,3.85,8.75
			C124.54,149.58,126.28,152.29,128.34,154.78z"/>
	</g>
	<g>
		<path class="st10" d="M115.92,100.2c-0.61,3.58-1.1,7.17-1.41,10.78c-0.35,3.6-0.57,7.21-0.69,10.82
			c-0.21,7.22-0.01,14.44,0.86,21.59c0.39,3.58,0.99,7.13,1.75,10.64c0.34,1.77,0.8,3.5,1.24,5.25c0.23,0.87,0.5,1.73,0.75,2.59
			c0.23,0.87,0.51,1.73,0.8,2.58c2.22,6.85,5.29,13.42,9.13,19.6c-1.07-1.46-2.24-2.87-3.19-4.43c-0.49-0.77-1.01-1.52-1.48-2.3
			l-1.37-2.37c-1.74-3.21-3.32-6.53-4.56-9.98c-2.59-6.86-4.18-14.07-5.05-21.34c-0.85-7.28-0.97-14.62-0.43-21.9
			C112.8,114.45,113.93,107.2,115.92,100.2z"/>
	</g>
	<g>
		<path class="st10" d="M135.55,188.42c-1.87-0.75-3.65-1.71-5.37-2.77c-1.72-1.05-3.38-2.22-4.99-3.45
			c-3.19-2.49-6.15-5.3-8.79-8.38c-2.67-3.06-5.02-6.4-7.13-9.88c-2.07-3.5-3.82-7.18-5.34-10.95c-1.52-3.77-2.64-7.68-3.63-11.62
			c-0.42-1.98-0.89-3.96-1.18-5.96c-0.16-1-0.35-2-0.48-3l-0.34-3.02c-0.88-8.04-0.76-16.16,0.12-24.15
			c-0.11,8.04,0.3,16.06,1.42,23.96c1.14,7.89,3.01,15.67,5.95,23.05c2.89,7.39,6.82,14.37,11.8,20.57c2.48,3.1,5.23,6,8.22,8.63
			C128.79,184.11,132.02,186.5,135.55,188.42z"/>
	</g>
	<g>
		<path class="st10" d="M100.26,159.99c2.12,3.31,4.45,6.42,6.94,9.38c2.51,2.94,5.2,5.71,8.13,8.19c2.87,2.56,6.1,4.66,9.45,6.52
			l2.57,1.33l2.68,1.1l1.34,0.57l1.39,0.42c0.93,0.29,1.86,0.59,2.8,0.91c-0.97-0.11-1.95-0.23-2.93-0.37l-1.47-0.22l-1.43-0.38
			c-0.95-0.27-1.91-0.53-2.87-0.82l-2.76-1.14c-3.62-1.64-7.06-3.78-10.06-6.4c-3.01-2.61-5.74-5.54-8.05-8.76
			C103.66,167.12,101.65,163.68,100.26,159.99z"/>
	</g>
	<g>
		<path class="st10" d="M93.15,127.93c0.68,4.86,1.53,9.67,2.51,14.44c1,4.77,2.15,9.49,3.53,14.15l1.08,3.48
			c0.35,1.16,0.82,2.28,1.2,3.43l0.6,1.72l0.68,1.68c0.47,1.11,0.89,2.26,1.38,3.37c1.95,4.45,4.29,8.7,6.91,12.86
			c-3.28-3.66-6.06-7.79-8.32-12.2c-2.21-4.42-4.03-9.04-5.44-13.78c-1.37-4.75-2.45-9.57-3.15-14.45
			C93.42,137.76,93,132.84,93.15,127.93z"/>
	</g>
	<path class="st13" d="M173.57,157.76c0,0,0.01-18.21,2.79-26.53"/>
	<g>
		<path class="st10" d="M113.62,133.96c1,1.8,2.13,3.63,3.26,5.41c1.15,1.78,2.32,3.55,3.57,5.27c1.24,1.72,2.51,3.44,3.84,5.11
			l4.05,5.04c-1.76-1.27-3.47-2.63-5.03-4.15c-1.6-1.48-3.05-3.12-4.45-4.79c-1.38-1.69-2.66-3.47-3.82-5.33
			c-1.16-1.86-2.18-3.78-2.98-5.89L113.62,133.96z"/>
	</g>
	<path class="st13" d="M55.73,118.45"/>
	<path class="st13" d="M81.99,146.84"/>
	<g>
		<path class="st12" d="M54.02,119.47"/>
	</g>
	<g>
		<path class="st10" d="M73.89,138.08c-2.34-1.82-3.69-4.64-4.54-7.45c-0.83-2.84-1.16-5.83-1.06-8.77l0.02-1.11l0.1-1.1l0.2-2.2
			c0.25-1.45,0.45-2.91,0.77-4.34c0.37-1.42,0.69-2.85,1.11-4.25c0.48-1.39,0.92-2.78,1.43-4.15c-0.29,1.44-0.64,2.85-0.96,4.27
			c-0.31,1.42-0.55,2.85-0.82,4.28l-0.58,4.3l-0.16,2.16l-0.08,1.08l-0.01,1.08c-0.12,2.88,0.17,5.76,0.8,8.56
			c0.31,1.4,0.79,2.76,1.4,4.06C72.07,135.81,72.86,137.04,73.89,138.08z"/>
	</g>
	<g>
		<path class="st10" d="M77.77,81.63c-2.69,4.4-5.03,8.96-7.01,13.66c-0.96,2.36-1.87,4.73-2.58,7.16
			c-0.74,2.42-1.36,4.88-1.72,7.37c-0.84,4.96-0.81,10.06,0.39,14.93c0.59,2.44,1.55,4.78,2.72,7.02c1.15,2.27,2.72,4.29,4.32,6.32
			c-1.92-1.72-3.73-3.61-5.16-5.81c-1.41-2.2-2.63-4.57-3.38-7.1c-0.79-2.52-1.2-5.15-1.35-7.79c-0.11-2.64,0.1-5.28,0.49-7.88
			c0.84-5.2,2.6-10.17,4.86-14.85C71.63,89.98,74.4,85.55,77.77,81.63z"/>
	</g>
	<g>
		<path class="st10" d="M185.23,13.3c3.14,0.21,6.23,1.01,9.2,2.11c2.97,1.1,5.8,2.6,8.44,4.37c1.33,0.88,2.55,1.91,3.78,2.92
			c0.59,0.54,1.14,1.11,1.71,1.67c0.28,0.28,0.57,0.55,0.84,0.84l0.76,0.92c2.13,2.37,3.7,5.18,4.95,8.04
			c-1.98-2.45-3.83-4.89-6.09-6.98c-2.19-2.13-4.53-4.08-7.08-5.76c-2.51-1.73-5.17-3.24-7.92-4.59
			C191.04,15.5,188.19,14.32,185.23,13.3z"/>
	</g>
	<path class="st14" d="M144.63,283.77c0,0-0.72-0.74-18.57-6.6"/>
</g>
</svg>
