<?xml version="1.0" encoding="utf-8"?>
<!-- Generator: Adobe Illustrator 25.3.0, SVG Export Plug-In . SVG Version: 6.00 Build 0)  -->
<svg version="1.1" id="madera_navbar" xmlns="http://www.w3.org/2000/svg" xmlns:xlink="http://www.w3.org/1999/xlink" x="0px"
	 y="0px" viewBox="0 0 262.1 68" style="enable-background:new 0 0 262.1 68;" xml:space="preserve">
<style type="text/css">
	.st0{fill:#775713;}
	.st1{fill:#4B3815;}
</style>
<g id="background">
	<g>
		<path class="st0" d="M22.3,42.6c0,0-7.1-0.1-7.6-13.4s2.2-16.4,2.2-16.4l3.8-2l42,1.3c0,0,38.8,0.5,39.5-0.2s58.2-1,58.2-1
			l34.7,0.8l42.8-1l9.8,0.3c0,0,3.9,2,3.2,6.7c0,0,5.2,8.7-2.6,12.2l-0.4,1.6c0,0,6,0.9,1,9l1.2,2.2L248.6,57l-1.7,1.8
			c0,0-15.6,4.2-35.3-1.5c0,0-18.4-1.8-20.1-1c-1.7,0.8-59.7,0.2-59.7,0.2s-14.8,0.3-24.6,3.7l-42-0.4L18,58.3c0,0-4.5-4.1-2.4-9.3
			C15.4,49,15.2,42.6,22.3,42.6z"/>
	</g>
</g>
<g id="border">
	<g>
		<path class="st1" d="M251.7,17.3c0.3-2.6-0.1-4.6-1.3-5.9c-1.7-1.9-4.2-1.9-4.3-1.9c-32-0.3-50.1,0.9-51.2,1
			c-13-0.4-24.4-0.6-34-0.8c-0.2-0.1-0.4-0.2-0.6-0.2c-34.7,0.8-83,1.3-83.5,1.3C66,11,52.2,10.4,41.2,9.9
			c-10.6-0.5-19-0.8-21.4-0.4c-5.6,1-5.9,5.1-6.3,13.4c-0.3,5.1,0.6,10.4,1.4,14c0.5,2.3,2.1,4.2,4.2,5c-0.1,0-0.2,0-0.2,0
			c-1.3,0.2-2.5,1-3.2,2.1c-2.8,4.5-1.5,12.1,0,14c0.5,0.6,1.3,1,2.2,1c10.9-0.4,37.8,0.8,38,0.8c9.8,0.9,19.7,1.2,28.3,1.2
			c8,0,14.9-0.2,19.6-0.3c2.5-0.1,5.2-0.6,7.9-1.3c0.3-0.1,0.5-0.1,0.7-0.2c4.3-1.1,14-1.9,18.4-1.8c0.2,0,0.3,0,0.5-0.1
			c10.1-0.6,20.7-0.4,26.1-0.2c3.5,0.1,7,0.2,10.4,0.1c22.7-0.4,33.7-0.2,38.3,0c2,0.1,4,0.4,6,0.9c8.1,2.1,15.2,2.8,21,2.8
			c7.5,0,12.7-1.1,14.5-1.5c1-0.2,1.6-1,1.7-2c0-1,0.2-3,0.6-4.8c0.6-2.7,0.8-5.5,0.7-8.5V42c0-0.7-0.2-1.2-0.6-1.7
			c0.6-0.9,2.8-4.7,1.4-7.8c-0.4-0.8-1.1-1.6-2-2.1c2.3-0.8,3.3-2.3,3.8-3.6C254.4,23.2,252.5,18.9,251.7,17.3z M251.1,26.5
			c-0.7,1.4-2.5,2.3-5.1,2.4c-0.5,0-1.2,0-1.9,0c-0.2,0-0.5,0-0.7,0c0,0,0,0,0,0c-9.6,0.1-30.4,0.3-31.4,0.5
			c-0.5,0.1-0.8,0.6-0.7,1.1c0.1,0.5,0.5,0.8,1,0.8c0.1,0,0.1,0,0,0.1c1.2-0.1,19.7-0.3,32.6-0.4c2.5,0.3,4,1.1,4.6,2.4
			c0.8,1.8-0.3,4.4-1.1,5.6c-2.5,0.2-13.9,1.3-18.3,1.1c-0.5,0-1,0.5-1,1s0.4,1,1,1h1.2c4.6,0,12.9-0.7,16.3-1
			c0.1,0.1,0.2,0.1,0.3,0.1c0.4,0,0.7,0.3,0.7,0.7v2.3c0.1,2.9-0.1,5.5-0.6,8c-0.4,1.9-0.6,4-0.7,5.1c0,0.1-0.1,0.2-0.2,0.2
			c-3.5,0.9-16.5,3.6-34.7-1.1c-2.1-0.6-4.3-0.9-6.4-1c-4.5-0.2-15.6-0.5-38.4-0.1c-3.4,0-6.8,0-10.3-0.1
			c-5.5-0.1-16.3-0.3-26.6,0.2c-0.1,0-0.2,0-0.3,0.1c-4.7-0.1-14.2,0.7-18.5,1.8c-0.2,0.1-0.5,0.1-0.7,0.2c-2.5,0.7-5.1,1.1-7.5,1.2
			C94.1,59.2,75,59.8,56.1,58c-0.3,0-27.3-1.2-38.3-0.8c-0.2,0-0.5-0.1-0.6-0.3c-0.9-1.2-2.3-8,0.1-11.7c0.4-0.6,1.1-1,1.9-1.2
			c3.3-0.6,5.6-1,6.2-1.1c0.1,0,0.2,0,0.3-0.1c0.2,0,0.4,0,0.6,0c3.9,0,8.3-0.3,9.1-0.4c0.5-0.1,0.9-0.5,0.9-1.1
			c-0.1-0.5-0.6-1-1.1-0.9c-3.2,0.2-11.9,0.6-14.1,0H21c-2.1-0.3-3.8-1.9-4.2-3.9c-0.7-3.5-1.6-8.7-1.3-13.5
			c0.4-8.5,0.7-10.8,4.6-11.5c2.3-0.4,11,0,21,0.4c11.1,0.5,24.8,1.1,35.7,0.9c0.5,0,48.2-0.5,82.8-1.3c0.2,0.1,0.4,0.2,0.6,0.2
			c9.7,0.1,21.4,0.4,34.8,0.8c0.2-0.1,14.6-1,40.8-1c3.2,0,6.7,0,10.3,0c0.1,0,1.7,0,2.8,1.2c0.9,1,1.2,2.5,0.9,4.4
			c-0.1,0.2-0.1,0.6,0,0.8c0,0.1,0.1,0.1,0.1,0.2C250.4,18.9,252.6,23.7,251.1,26.5z"/>
	</g>
</g>
<g id="borderInside">
	<g>
		<g>
			<path class="st1" d="M85.4,54.1c-1.8,0-3.4-1.2-3.9-3.1c-0.7-2.8-2.3-6-6.1-5.2c-1.5,0.2-3.7,0.7-3.9,1.5
				c-0.1,0.4,0.3,0.9,1.2,1.5c0.2,0.1,0.2,0.4,0.1,0.5c-0.1,0.2-0.4,0.2-0.5,0.1c-1.2-0.8-1.7-1.6-1.5-2.3c0.4-1.6,3.8-2,4.5-2.1
				c3.4-0.7,5.9,1.3,7,5.8c0.4,1.6,1.8,2.6,3.4,2.5c7-0.6,13.5-1.2,18.1-1.6c4.3-0.4,8.4-0.5,12.3-0.3c8.2,0.3,15.1-0.2,19.5-0.7
				c1.8-0.2,3.6-0.5,5.7-1c7.9-1.6,20.1-0.4,20.2-0.4c0.2,0,0.4,0.2,0.3,0.4c0,0.2-0.2,0.4-0.4,0.3c-0.1,0-12.2-1.2-20,0.4
				c-2.1,0.4-4,0.8-5.8,1c-4.4,0.5-11.3,1-19.6,0.7c-3.8-0.1-7.9,0-12.2,0.3c-4.6,0.4-11,1-18.1,1.6C85.7,54.1,85.5,54.1,85.4,54.1z
				"/>
		</g>
	</g>
	<g>
		<g>
			<path class="st1" d="M36.5,51.8c-3.5,0-7.2-0.6-11.3-1.8c-0.9-0.3-1.2-0.1-1.3,0c-0.2,0.1-0.1,0.5-0.1,0.7s-0.1,0.4-0.3,0.4
				c-0.2,0-0.4-0.1-0.4-0.3c-0.1-0.6,0-1.1,0.3-1.4c0.4-0.4,1-0.4,2-0.1C30,50.7,34.1,51.2,38,51c5-0.2,9.5-0.8,12.4-1.2
				c4.5-0.6,8.9-0.8,13.3-0.4c4.4,0.3,8.5,0.9,10.6,1.2c1,0.1,1.9,0,2.7-0.3c0.5-0.2,0.8-0.4,0.8-0.7c0.1-0.2,0-0.3-0.1-0.5
				c-0.2-0.4-0.6-0.6-1.1-0.7c-1.7-0.2-1.9,0.1-2,0.2c-0.1,0.2,0.1,0.7,0.3,0.9c0.1,0.2,0.1,0.4-0.1,0.5s-0.4,0.1-0.5-0.1
				c-0.1-0.1-0.8-1-0.4-1.7c0.3-0.6,1.2-0.8,2.7-0.6c0.7,0.1,1.4,0.5,1.7,1.1c0.2,0.4,0.2,0.8,0.1,1.1c-0.2,0.5-0.6,0.8-1.2,1.1
				c-0.9,0.4-2,0.5-3.1,0.4c-2.1-0.3-6.2-0.9-10.5-1.2c-4.4-0.3-8.8-0.2-13.2,0.4c-2.9,0.4-7.4,0.9-12.4,1.2
				C37.5,51.8,37,51.8,36.5,51.8z"/>
		</g>
	</g>
	<g>
		<g>
			<path class="st1" d="M61.4,38.5c-4.6,0-8-1.7-8.1-1.8c-0.2-0.1-0.3-0.3-0.2-0.5s0.3-0.3,0.5-0.2c0.1,0,8.6,4.3,16.3-0.8
				c0.2-0.1,0.4-0.1,0.5,0.1c0.1,0.2,0.1,0.4-0.1,0.5C67.3,37.9,64.1,38.5,61.4,38.5z"/>
		</g>
	</g>
	<g>
		<g>
			<path class="st1" d="M213,39.2c-6.8,0-8.4-0.7-8.8-1c-5.8-3.2-12.7-3.4-12.7-3.4c-0.2,0-0.4-0.2-0.4-0.4s0.2-0.4,0.4-0.4
				c0.1,0,7.1,0.2,13.1,3.5l0.1,0.1c0.1,0,2.6,1.9,27.1-0.2c0.2,0,0.4,0.1,0.4,0.3s-0.1,0.4-0.3,0.4C223.1,38.9,217.1,39.2,213,39.2
				z"/>
		</g>
	</g>
	<g>
		<g>
			<path class="st1" d="M230.3,55.6c-3.1,0-6.7-0.8-17.8-3.9c0,0-4.8-0.9-10.8-1.6c-0.2,0-0.4-0.2-0.3-0.4c0-0.2,0.2-0.4,0.4-0.3
				c6,0.7,10.9,1.6,10.9,1.6c15.4,4.3,16.4,4.1,21.3,3.6l1.1-0.1c2.7-0.3,4.2-1.1,4.3-2.2c0-0.4-0.2-0.7-0.6-0.8
				c-0.4-0.1-0.8-0.1-1.1-0.1l0,0c0.2,0.1,0.2,0.3,0.1,0.5c-0.1,0.1-1.6,2.3-4.1,1.7c-0.4-0.1-0.7-0.5-0.8-0.9
				c0-0.4,0.2-0.9,0.6-1.1c1.2-0.6,3.2-1.3,5.5-0.8c0.7,0.2,1.3,0.9,1.2,1.6c-0.1,1.1-1.1,2.4-5,2.8l-1.1,0.1
				C232.7,55.4,231.6,55.6,230.3,55.6z M237.4,51.3c-1.4,0-2.6,0.5-3.4,0.9c-0.2,0.1-0.2,0.3-0.2,0.3c0,0.1,0,0.2,0.2,0.3
				C235.9,53.3,237.2,51.5,237.4,51.3C237.3,51.4,237.4,51.3,237.4,51.3z"/>
		</g>
	</g>
	<g>
		<g>
			<path class="st1" d="M31.9,37.2c-4.6,0-8-1.7-8.1-1.8c-0.2-0.1-0.3-0.3-0.2-0.5c0.1-0.2,0.3-0.3,0.5-0.2c0.1,0,8.6,4.3,16.3-0.8
				c0.2-0.1,0.4-0.1,0.5,0.1c0.1,0.2,0.1,0.4-0.1,0.5C37.8,36.6,34.6,37.2,31.9,37.2z"/>
		</g>
	</g>
	<g>
		<g>
			<path class="st1" d="M57.4,34.3L57.4,34.3c-6-1.8-20.4-5.3-27.3-0.5c-0.2,0.1-0.4,0.1-0.5-0.1c-0.1-0.2-0.1-0.4,0.1-0.5
				c7.2-5,21.8-1.4,27.8,0.3c0.2,0.1,0.3,0.3,0.3,0.5C57.7,34.1,57.5,34.3,57.4,34.3z"/>
		</g>
	</g>
	<g>
		<g>
			<path class="st1" d="M244.6,19.4c-1.3,0-2.4-0.7-2.5-0.8c-0.2-0.1-0.2-0.3-0.1-0.5c0.1-0.2,0.3-0.2,0.5-0.1c0,0,2.2,1.4,3.5,0.1
				c0.6-0.6,0.8-1.1,0.6-1.5c-0.2-0.3-0.9-0.6-2.3-0.3c-1.3,0.3-5.3,0.5-9.9,0.8c-5.5,0.3-11.8,0.7-14,1.2c-0.2,0-0.4-0.1-0.4-0.3
				c0-0.2,0.1-0.4,0.3-0.4c2.2-0.5,8.6-0.9,14.1-1.2c4.4-0.3,8.5-0.5,9.8-0.8c2.2-0.4,2.9,0.2,3.1,0.7c0.3,0.7,0.1,1.5-0.8,2.4
				C246,19.2,245.3,19.4,244.6,19.4z"/>
		</g>
	</g>
	<g>
		<g>
			<path class="st1" d="M97.1,22.6c-4.8,0-7.9-0.1-7.9-0.1c-0.2,0-0.4-0.2-0.4-0.4c0-0.2,0.2-0.3,0.4-0.4c0.3,0,26.3,0.9,49.6-2.6
				c3-0.4,5.9-0.7,8.8-0.6c8.3,0,28.8,0,38.5-1.1c7.2-0.9,14.4-0.3,21.3,1.6c0.4,0.1,0.8,0.2,1.3,0.4c0.2,0.1,0.3,0.3,0.3,0.5
				c-0.1,0.2-0.3,0.3-0.5,0.3c-0.4-0.1-0.8-0.2-1.3-0.4c-6.8-1.9-13.9-2.4-21-1.6c-9.7,1.1-30.2,1.2-38.6,1.1
				c-2.9,0-5.8,0.2-8.7,0.6C123.4,22.2,106.7,22.6,97.1,22.6z"/>
		</g>
	</g>
	<g>
		<g>
			<path class="st1" d="M54.8,21c-0.2,0-0.4,0-0.6,0c-0.4-0.1-0.8-0.3-1-0.7c-0.1-0.2-0.2-0.5-0.1-0.7c0.1-0.3,0.3-0.5,0.7-0.7
				c0.5-0.2,1.1-0.3,1.7-0.2c1.1,0.1,3.3,0.4,5.6,0.6c2.3,0.1,4.7,0,7-0.3c1.5-0.2,4-0.5,6.7-0.7c2.1-0.1,4.4,0.1,6.9,0.8
				c0.4,0.1,0.5,0.1,0.5,0c0,0,0-0.1,0-0.2c0-0.2,0.1-0.4,0.3-0.4c0.2,0,0.4,0.1,0.4,0.3c0.1,0.4,0,0.7-0.2,0.9
				c-0.3,0.2-0.7,0.3-1.2,0.1c-2.4-0.7-4.6-0.9-6.7-0.8c-2.7,0.2-5.1,0.5-6.6,0.7c-2.4,0.4-4.8,0.5-7.2,0.3
				c-2.3-0.1-4.5-0.4-5.7-0.6l0.1,0.1c0.1,0.1,0.5,0.6,0.2,1.1C55.7,20.9,55.2,21,54.8,21z M55.1,19.3c-0.3,0-0.7,0.1-1,0.2
				c-0.2,0.1-0.3,0.2-0.4,0.3v0.1c0.1,0.1,0.3,0.3,0.5,0.3c0.7,0.1,0.9,0,0.9,0S55,20,54.9,20C54.9,19.8,54.9,19.5,55.1,19.3
				C55.1,19.4,55.2,19.3,55.1,19.3C55.2,19.3,55.1,19.3,55.1,19.3z"/>
		</g>
	</g>
	<g>
		<g>
			<path class="st1" d="M229.4,52.6c-0.1,0-0.2-0.1-0.3-0.2c-0.1-0.2-0.1-0.4,0.1-0.5c0.1,0,8-4.8,16.2-0.6c0.2,0.1,0.3,0.3,0.2,0.5
				s-0.3,0.3-0.5,0.2c-7.7-4.1-15.3,0.5-15.4,0.6C229.5,52.6,229.5,52.6,229.4,52.6z"/>
		</g>
	</g>
	<g>
		<g>
			<path class="st1" d="M54.3,22.4c-1.5,0-2.7-1.1-3.2-3.2c-0.2-0.8-0.9-1.3-1.7-1.2c-3.8,0.4-7.2,0.7-9.6,1
				c-2.3,0.2-4.5,0.3-6.6,0.3c-4.4-0.1-8,0.2-10.4,0.5c-0.2,0-0.4-0.1-0.4-0.3c0-0.2,0.1-0.4,0.3-0.4c2.3-0.3,6.1-0.6,10.5-0.5
				c2.1,0.1,4.2,0,6.5-0.3c2.5-0.2,5.9-0.6,9.6-1c1.1-0.1,2.2,0.6,2.5,1.7c0.5,2.1,1.6,2.9,3.1,2.6c0.9-0.1,1.9-0.4,1.9-0.7
				c0-0.1-0.1-0.3-0.6-0.6c-0.2-0.1-0.2-0.4-0.1-0.5c0.1-0.2,0.3-0.2,0.5-0.1c0.3,0.2,1,0.7,0.9,1.4c-0.2,0.9-2,1.2-2.5,1.3
				C54.8,22.4,54.5,22.4,54.3,22.4z"/>
		</g>
	</g>
</g>
</svg>
